<svg version="1.1" viewBox="0.0 0.0 600.0 371.0" fill="none" stroke="none" stroke-linecap="square" stroke-miterlimit="10" width="600" height="371" xmlns:xlink="http://www.w3.org/1999/xlink" xmlns="http://www.w3.org/2000/svg"><path fill="#ffffff" d="M0 0L600.0 0L600.0 371.0L0 371.0L0 0Z" fill-rule="nonzero"/><path stroke="#333333" stroke-width="1.0" stroke-linecap="butt" d="M77.5 300.5L581.5 300.5" fill-rule="nonzero"/><path stroke="#cccccc" stroke-width="1.0" stroke-linecap="butt" d="M77.5 260.5L581.5 260.5" fill-rule="nonzero"/><path stroke="#cccccc" stroke-width="1.0" stroke-linecap="butt" d="M77.5 220.5L581.5 220.5" fill-rule="nonzero"/><path stroke="#cccccc" stroke-width="1.0" stroke-linecap="butt" d="M77.5 181.5L581.5 181.5" fill-rule="nonzero"/><path stroke="#cccccc" stroke-width="1.0" stroke-linecap="butt" d="M77.5 141.5L581.5 141.5" fill-rule="nonzero"/><path stroke="#cccccc" stroke-width="1.0" stroke-linecap="butt" d="M77.5 101.5L581.5 101.5" fill-rule="nonzero"/><path stroke="#cccccc" stroke-width="1.0" stroke-linecap="butt" d="M77.5 61.5L581.5 61.5" fill-rule="nonzero"/><clipPath id="id_0"><path d="M77.55 61.916668L581.45 61.916668L581.45 300.45L77.55 300.45L77.55 61.916668Z" clip-rule="nonzero"/></clipPath><path stroke="#000000" stroke-width="0.0" stroke-linecap="butt" stroke-opacity="0.0" clip-path="url(#id_0)" d="M113.0 300.0L90.0 300.0L90.0 283.0C90.0 281.89542 90.89543 281.0 92.0 281.0L111.0 281.0C112.10457 281.0 113.0 281.89542 113.0 283.0Z" fill-rule="nonzero"/><path fill="#002f4a" clip-path="url(#id_0)" d="M113.0 300.0L90.0 300.0L90.0 283.0C90.0 281.89542 90.89543 281.0 92.0 281.0L111.0 281.0C112.10457 281.0 113.0 281.89542 113.0 283.0Z" fill-rule="nonzero"/><path stroke="#000000" stroke-width="0.0" stroke-linecap="butt" stroke-opacity="0.0" clip-path="url(#id_0)" d="M148.0 300.0L125.0 300.0L125.0 223.0C125.0 221.89543 125.89543 221.0 127.0 221.0L146.0 221.0C147.10457 221.0 148.0 221.89543 148.0 223.0Z" fill-rule="nonzero"/><path fill="#002f4a" clip-path="url(#id_0)" d="M148.0 300.0L125.0 300.0L125.0 223.0C125.0 221.89543 125.89543 221.0 127.0 221.0L146.0 221.0C147.10457 221.0 148.0 221.89543 148.0 223.0Z" fill-rule="nonzero"/><path stroke="#000000" stroke-width="0.0" stroke-linecap="butt" stroke-opacity="0.0" clip-path="url(#id_0)" d="M183.0 300.0L160.0 300.0L160.0 143.0C160.0 141.89543 160.89543 141.0 162.0 141.0L181.0 141.0C182.10457 141.0 183.0 141.89543 183.0 143.0Z" fill-rule="nonzero"/><path fill="#002f4a" clip-path="url(#id_0)" d="M183.0 300.0L160.0 300.0L160.0 143.0C160.0 141.89543 160.89543 141.0 162.0 141.0L181.0 141.0C182.10457 141.0 183.0 141.89543 183.0 143.0Z" fill-rule="nonzero"/><path stroke="#000000" stroke-width="0.0" stroke-linecap="butt" stroke-opacity="0.0" clip-path="url(#id_0)" d="M219.0 300.0L196.0 300.0L196.0 64.0C196.0 62.89543 196.89543 62.0 198.0 62.0L217.0 62.0C218.10457 62.0 219.0 62.89543 219.0 64.0Z" fill-rule="nonzero"/><path fill="#002f4a" clip-path="url(#id_0)" d="M219.0 300.0L196.0 300.0L196.0 64.0C196.0 62.89543 196.89543 62.0 198.0 62.0L217.0 62.0C218.10457 62.0 219.0 62.89543 219.0 64.0Z" fill-rule="nonzero"/><path stroke="#000000" stroke-width="0.0" stroke-linecap="butt" stroke-opacity="0.0" clip-path="url(#id_0)" d="M254.0 300.0L231.0 300.0L231.0 163.0C231.0 161.89543 231.89543 161.0 233.0 161.0L252.0 161.0C253.10457 161.0 254.0 161.89543 254.0 163.0Z" fill-rule="nonzero"/><path fill="#002f4a" clip-path="url(#id_0)" d="M254.0 300.0L231.0 300.0L231.0 163.0C231.0 161.89543 231.89543 161.0 233.0 161.0L252.0 161.0C253.10457 161.0 254.0 161.89543 254.0 163.0Z" fill-rule="nonzero"/><path stroke="#000000" stroke-width="0.0" stroke-linecap="butt" stroke-opacity="0.0" clip-path="url(#id_0)" d="M289.0 300.0L266.0 300.0L266.0 124.0C266.0 122.89543 266.89542 122.0 268.0 122.0L287.0 122.0C288.10458 122.0 289.0 122.89543 289.0 124.0Z" fill-rule="nonzero"/><path fill="#002f4a" clip-path="url(#id_0)" d="M289.0 300.0L266.0 300.0L266.0 124.0C266.0 122.89543 266.89542 122.0 268.0 122.0L287.0 122.0C288.10458 122.0 289.0 122.89543 289.0 124.0Z" fill-rule="nonzero"/><path stroke="#000000" stroke-width="0.0" stroke-linecap="butt" stroke-opacity="0.0" clip-path="url(#id_0)" d="M324.0 300.0L301.0 300.0L301.0 223.0C301.0 221.89543 301.89542 221.0 303.0 221.0L322.0 221.0C323.10458 221.0 324.0 221.89543 324.0 223.0Z" fill-rule="nonzero"/><path fill="#002f4a" clip-path="url(#id_0)" d="M324.0 300.0L301.0 300.0L301.0 223.0C301.0 221.89543 301.89542 221.0 303.0 221.0L322.0 221.0C323.10458 221.0 324.0 221.89543 324.0 223.0Z" fill-rule="nonzero"/><path stroke="#000000" stroke-width="0.0" stroke-linecap="butt" stroke-opacity="0.0" clip-path="url(#id_0)" d="M359.0 300.0L336.0 300.0L336.0 283.0C336.0 281.89542 336.89542 281.0 338.0 281.0L357.0 281.0C358.10458 281.0 359.0 281.89542 359.0 283.0Z" fill-rule="nonzero"/><path fill="#002f4a" clip-path="url(#id_0)" d="M359.0 300.0L336.0 300.0L336.0 283.0C336.0 281.89542 336.89542 281.0 338.0 281.0L357.0 281.0C358.10458 281.0 359.0 281.89542 359.0 283.0Z" fill-rule="nonzero"/><path stroke="#000000" stroke-width="0.0" stroke-linecap="butt" stroke-opacity="0.0" clip-path="url(#id_0)" d="M394.0 300.0L371.0 300.0L371.0 243.0C371.0 241.89543 371.89542 241.0 373.0 241.0L392.0 241.0C393.10458 241.0 394.0 241.89543 394.0 243.0Z" fill-rule="nonzero"/><path fill="#002f4a" clip-path="url(#id_0)" d="M394.0 300.0L371.0 300.0L371.0 243.0C371.0 241.89543 371.89542 241.0 373.0 241.0L392.0 241.0C393.10458 241.0 394.0 241.89543 394.0 243.0Z" fill-rule="nonzero"/><path stroke="#000000" stroke-width="0.0" stroke-linecap="butt" stroke-opacity="0.0" clip-path="url(#id_0)" d="M429.0 300.0L406.0 300.0L406.0 283.0C406.0 281.89542 406.89542 281.0 408.0 281.0L427.0 281.0C428.10458 281.0 429.0 281.89542 429.0 283.0Z" fill-rule="nonzero"/><path fill="#002f4a" clip-path="url(#id_0)" d="M429.0 300.0L406.0 300.0L406.0 283.0C406.0 281.89542 406.89542 281.0 408.0 281.0L427.0 281.0C428.10458 281.0 429.0 281.89542 429.0 283.0Z" fill-rule="nonzero"/><path stroke="#000000" stroke-width="0.0" stroke-linecap="butt" stroke-opacity="0.0" clip-path="url(#id_0)" d="M464.0 300.0L441.0 300.0L441.0 283.0C441.0 281.89542 441.89542 281.0 443.0 281.0L462.0 281.0C463.10458 281.0 464.0 281.89542 464.0 283.0Z" fill-rule="nonzero"/><path fill="#002f4a" clip-path="url(#id_0)" d="M464.0 300.0L441.0 300.0L441.0 283.0C441.0 281.89542 441.89542 281.0 443.0 281.0L462.0 281.0C463.10458 281.0 464.0 281.89542 464.0 283.0Z" fill-rule="nonzero"/><path stroke="#000000" stroke-width="0.0" stroke-linecap="butt" stroke-opacity="0.0" clip-path="url(#id_0)" d="M500.0 300.0L477.0 300.0L477.0 283.0C477.0 281.89542 477.89542 281.0 479.0 281.0L498.0 281.0C499.10458 281.0 500.0 281.89542 500.0 283.0Z" fill-rule="nonzero"/><path fill="#002f4a" clip-path="url(#id_0)" d="M500.0 300.0L477.0 300.0L477.0 283.0C477.0 281.89542 477.89542 281.0 479.0 281.0L498.0 281.0C499.10458 281.0 500.0 281.89542 500.0 283.0Z" fill-rule="nonzero"/><path stroke="#000000" stroke-width="0.0" stroke-linecap="butt" stroke-opacity="0.0" clip-path="url(#id_0)" d="M535.0 300.0L512.0 300.0L512.0 283.0C512.0 281.89542 512.89545 281.0 514.0 281.0L533.0 281.0C534.10455 281.0 535.0 281.89542 535.0 283.0Z" fill-rule="nonzero"/><path fill="#002f4a" clip-path="url(#id_0)" d="M535.0 300.0L512.0 300.0L512.0 283.0C512.0 281.89542 512.89545 281.0 514.0 281.0L533.0 281.0C534.10455 281.0 535.0 281.89542 535.0 283.0Z" fill-rule="nonzero"/><path stroke="#000000" stroke-width="0.0" stroke-linecap="butt" stroke-opacity="0.0" clip-path="url(#id_0)" d="M570.0 300.0L547.0 300.0L547.0 283.0C547.0 281.89542 547.89545 281.0 549.0 281.0L568.0 281.0C569.10455 281.0 570.0 281.89542 570.0 283.0Z" fill-rule="nonzero"/><path fill="#002f4a" clip-path="url(#id_0)" d="M570.0 300.0L547.0 300.0L547.0 283.0C547.0 281.89542 547.89545 281.0 549.0 281.0L568.0 281.0C569.10455 281.0 570.0 281.89542 570.0 283.0Z" fill-rule="nonzero"/><path fill="#071924" d="M327.82812 349.45L324.35938 349.45L324.35938 349.02814Q324.82812 348.9969 325.125 348.91876Q325.42188 348.825 325.42188 348.7Q325.42188 348.65314 325.40625 348.575Q325.40625 348.4969 325.375 348.4344L324.6875 346.575L321.78125 346.575Q321.60938 346.98126 321.5 347.29376Q321.40625 347.59064 321.32812 347.85626Q321.25 348.10626 321.21875 348.2625Q321.1875 348.41876 321.1875 348.5125Q321.1875 348.7469 321.54688 348.8875Q321.92188 349.0125 322.39062 349.02814L322.39062 349.45L319.26562 349.45L319.26562 349.02814Q319.40625 349.02814 319.64062 348.96564Q319.875 348.90314 320.01562 348.8094Q320.25 348.65314 320.375 348.48126Q320.51562 348.3094 320.625 348.0125Q321.26562 346.45 322.01562 344.4969Q322.76562 342.54376 323.35938 341.0125L323.82812 341.0125L326.60938 348.1844Q326.6875 348.41876 326.79688 348.5594Q326.90625 348.7 327.10938 348.84064Q327.25 348.91876 327.46875 348.98126Q327.6875 349.02814 327.82812 349.02814L327.82812 349.45ZM324.46875 346.04376L323.21875 342.825L321.98438 346.04376L324.46875 346.04376ZM332.875 348.85626Q333.10938 349.075 333.23438 349.35626Q333.375 349.6375 333.375 350.0594Q333.375 350.46564 333.1875 350.825Q333.01562 351.2 332.64062 351.46564Q332.25 351.7469 331.70312 351.90314Q331.15625 352.0594 330.35938 352.0594Q329.04688 352.0594 328.39062 351.66876Q327.75 351.27814 327.75 350.54376Q327.75 349.95 328.21875 349.60626Q328.6875 349.2625 329.40625 349.23126L329.40625 349.1375Q329.23438 349.09064 329.04688 349.0125Q328.85938 348.9344 328.71875 348.825Q328.57812 348.7 328.48438 348.54376Q328.39062 348.3719 328.39062 348.1219Q328.39062 347.8094 328.60938 347.5594Q328.82812 347.29376 329.26562 347.10626L329.26562 347.0125Q328.70312 346.7469 328.39062 346.34064Q328.09375 345.9344 328.09375 345.3875Q328.09375 344.5594 328.70312 344.04376Q329.3125 343.5125 330.26562 343.5125Q330.53125 343.5125 330.78125 343.5594Q331.04688 343.60626 331.32812 343.7L333.34375 343.7L333.34375 344.2625L331.98438 344.2625L331.98438 344.29376Q332.1875 344.54376 332.29688 344.85626Q332.40625 345.15314 332.40625 345.45Q332.40625 346.21564 331.78125 346.7469Q331.17188 347.2625 330.34375 347.2625L329.64062 347.2625Q329.5 347.3094 329.35938 347.4344Q329.21875 347.5594 329.21875 347.7625Q329.21875 347.98126 329.32812 348.10626Q329.45312 348.21564 329.64062 348.2469Q329.79688 348.29376 330.01562 348.3094Q330.25 348.325 330.5 348.325Q330.75 348.34064 331.20312 348.3719Q331.65625 348.3875 331.84375 348.40314Q332.10938 348.41876 332.375 348.54376Q332.65625 348.65314 332.875 348.85626ZM331.29688 345.41876Q331.29688 344.73126 331.01562 344.325Q330.73438 343.91876 330.23438 343.91876Q329.95312 343.91876 329.75 344.04376Q329.5625 344.15314 329.4375 344.35626Q329.32812 344.5594 329.26562 344.84064Q329.21875 345.10626 329.21875 345.3875Q329.21875 346.04376 329.5 346.45Q329.79688 346.85626 330.25 346.85626Q330.75 346.85626 331.01562 346.45Q331.29688 346.04376 331.29688 345.41876ZM332.42188 350.27814Q332.42188 349.95 332.26562 349.73126Q332.10938 349.52814 331.79688 349.45Q331.64062 349.41876 331.125 349.3875Q330.625 349.35626 329.9375 349.35626Q329.3125 349.48126 329.04688 349.7625Q328.78125 350.0594 328.78125 350.52814Q328.78125 350.73126 328.85938 350.91876Q328.95312 351.10626 329.17188 351.2625Q329.375 351.41876 329.71875 351.5125Q330.0625 351.60626 330.5625 351.60626Q331.42188 351.60626 331.92188 351.27814Q332.42188 350.95 332.42188 350.27814ZM339.0625 348.09064Q338.6875 348.77814 338.07812 349.2Q337.46875 349.60626 336.6875 349.60626Q335.98438 349.60626 335.45312 349.35626Q334.9375 349.10626 334.59375 348.6844Q334.25 348.2625 334.07812 347.7Q333.92188 347.1375 333.92188 346.5125Q333.92188 345.95 334.09375 345.41876Q334.28125 344.8719 334.625 344.4344Q334.95312 344.0125 335.45312 343.7625Q335.95312 343.5125 336.5625 343.5125Q337.20312 343.5125 337.64062 343.71564Q338.09375 343.90314 338.375 344.2469Q338.65625 344.575 338.78125 345.02814Q338.92188 345.46564 338.92188 345.9969L338.92188 346.3719L335.09375 346.3719Q335.09375 346.95 335.20312 347.41876Q335.3125 347.8719 335.54688 348.23126Q335.76562 348.5594 336.125 348.7625Q336.5 348.95 337.01562 348.95Q337.53125 348.95 337.90625 348.71564Q338.29688 348.46564 338.64062 347.84064L339.0625 348.09064ZM337.76562 345.8875Q337.76562 345.5594 337.70312 345.1844Q337.65625 344.8094 337.53125 344.5594Q337.39062 344.29376 337.15625 344.1219Q336.92188 343.95 336.54688 343.95Q335.9375 343.95 335.53125 344.46564Q335.125 344.96564 335.09375 345.8875L337.76562 345.8875Z" fill-rule="nonzero"/><path fill="#071924" d="M29.737513 226.94896Q29.737513 227.68333 29.456263 228.37083Q29.159388 229.05833 28.612513 229.58958Q28.050013 230.10521 27.268763 230.41771Q26.471888 230.73021 25.471888 230.73021Q24.471888 230.73021 23.659388 230.43333Q22.846888 230.12083 22.268763 229.57396Q21.690638 229.04271 21.378138 228.32396Q21.050013 227.58958 21.050013 226.76146Q21.050013 226.15208 21.206263 225.65208Q21.362513 225.15208 21.628138 224.69896L21.237513 224.46458L21.237513 223.99583L24.206263 223.93333L24.206263 224.41771Q23.768763 224.51146 23.268763 224.69896Q22.753138 224.88646 22.393763 225.13646Q22.003138 225.41771 21.784388 225.80833Q21.550013 226.19896 21.550013 226.69896Q21.550013 227.26146 21.800013 227.76146Q22.050013 228.24583 22.550013 228.60521Q23.018763 228.93333 23.753138 229.13646Q24.487513 229.32396 25.393763 229.32396Q26.190638 229.32396 26.862513 229.12083Q27.518763 228.91771 28.018763 228.54271Q28.518763 228.16771 28.800013 227.66771Q29.081263 227.15208 29.081263 226.51146Q29.081263 226.04271 28.940638 225.65208Q28.784388 225.24583 28.534388 224.94896Q28.284388 224.65208 27.956263 224.43333Q27.628138 224.21458 27.237513 224.07396L27.440638 223.63646Q28.675013 224.13646 29.206263 224.96458Q29.737513 225.79271 29.737513 226.94896ZM22.221888 215.88646Q22.800013 215.33958 23.612513 215.02708Q24.409388 214.71458 25.393763 214.71458Q26.393763 214.71458 27.206263 215.04271Q28.003138 215.35521 28.581263 215.91771Q29.143763 216.46458 29.456263 217.18333Q29.753138 217.90208 29.753138 218.71458Q29.753138 219.58958 29.425013 220.32396Q29.096888 221.05833 28.518763 221.58958Q27.956263 222.10521 27.143763 222.41771Q26.331263 222.71458 25.393763 222.71458Q24.393763 222.71458 23.596888 222.40208Q22.800013 222.07396 22.221888 221.52708Q21.643763 220.98021 21.346888 220.24583Q21.034388 219.51146 21.034388 218.71458Q21.034388 217.88646 21.346888 217.16771Q21.659388 216.43333 22.221888 215.88646ZM28.112513 216.76146Q27.581263 216.43333 26.909388 216.29271Q26.237513 216.13646 25.393763 216.13646Q24.550013 216.13646 23.831263 216.30833Q23.112513 216.48021 22.612513 216.79271Q22.112513 217.12083 21.831263 217.60521Q21.550013 218.08958 21.550013 218.71458Q21.550013 219.41771 21.878138 219.91771Q22.206263 220.40208 22.737513 220.71458Q23.253138 221.01146 23.956263 221.15208Q24.643763 221.29271 25.393763 221.29271Q26.237513 221.29271 26.925013 221.15208Q27.596888 220.99583 28.128138 220.66771Q28.643763 220.33958 28.940638 219.87083Q29.221888 219.38646 29.221888 218.71458Q29.221888 218.08958 28.940638 217.58958Q28.643763 217.08958 28.112513 216.76146ZM21.643763 205.19896Q21.659388 205.37083 21.721888 205.68333Q21.784388 205.99583 21.909388 206.19896Q22.050013 206.40208 22.471888 206.48021Q22.893763 206.54271 23.503138 206.54271L27.112513 206.54271Q27.815638 206.54271 28.331263 206.83958Q28.831263 207.12083 29.159388 207.58958Q29.471888 208.05833 29.612513 208.57396Q29.753138 209.07396 29.753138 209.54271Q29.753138 210.29271 29.550013 210.88646Q29.362513 211.46458 29.018763 211.87083Q28.690638 212.26146 28.268763 212.46458Q27.831263 212.65208 27.362513 212.65208L22.440638 212.65208Q22.237513 212.65208 22.096888 212.73021Q21.956263 212.79271 21.846888 212.99583Q21.768763 213.15208 21.721888 213.38646Q21.659388 213.60521 21.643763 213.74583L21.237513 213.74583L21.237513 210.29271L21.643763 210.29271Q21.659388 210.44896 21.706263 210.69896Q21.753138 210.94896 21.784388 211.05833Q21.862513 211.26146 22.034388 211.33958Q22.190638 211.40208 22.378138 211.40208L26.971888 211.40208Q27.315638 211.40208 27.690638 211.32396Q28.050013 211.24583 28.362513 211.04271Q28.675013 210.80833 28.893763 210.41771Q29.096888 210.02708 29.096888 209.33958Q29.096888 208.69896 28.893763 208.26146Q28.675013 207.82396 28.346888 207.57396Q28.034388 207.32396 27.690638 207.23021Q27.346888 207.12083 26.987513 207.12083L23.581263 207.12083Q22.925013 207.12083 22.518763 207.21458Q22.096888 207.30833 21.971888 207.49583Q21.831263 207.69896 21.753138 208.05833Q21.659388 208.41771 21.643763 208.60521L21.237513 208.60521L21.237513 205.19896L21.643763 205.19896ZM21.643763 196.07396Q21.659388 196.24583 21.753138 196.58958Q21.831263 196.91771 21.925013 197.07396Q22.065638 197.27708 22.487513 197.35521Q22.909388 197.41771 23.550013 197.41771L29.628138 197.41771L29.628138 197.93333L22.831263 202.98021L27.112513 202.98021Q27.831263 202.98021 28.221888 202.88646Q28.612513 202.79271 28.768763 202.60521Q28.909388 202.46458 29.018763 202.04271Q29.128138 201.62083 29.128138 201.49583L29.550013 201.49583L29.550013 204.90208L29.128138 204.90208Q29.128138 204.74583 29.018763 204.37083Q28.909388 203.99583 28.831263 203.90208Q28.675013 203.69896 28.346888 203.62083Q28.003138 203.54271 27.175013 203.54271L23.081263 203.54271Q22.815638 203.54271 22.550013 203.63646Q22.284388 203.73021 22.128138 203.88646Q21.940638 204.10521 21.800013 204.46458Q21.659388 204.82396 21.643763 205.04271L21.237513 205.04271L21.237513 202.66771L27.581263 197.99583L23.612513 197.99583Q22.893763 197.99583 22.503138 198.08958Q22.112513 198.18333 21.987513 198.35521Q21.878138 198.52708 21.768763 198.90208Q21.659388 199.26146 21.643763 199.46458L21.237513 199.46458L21.237513 196.07396L21.643763 196.07396ZM23.487513 188.85521L23.487513 189.26146Q23.284388 189.30833 23.003138 189.44896Q22.706263 189.58958 22.440638 189.76146Q22.175013 189.93333 21.971888 190.13646Q21.768763 190.33958 21.737513 190.54271Q21.721888 190.71458 21.706263 190.99583Q21.690638 191.27708 21.690638 191.51146L21.690638 191.83958L28.346888 191.83958Q28.534388 191.83958 28.706263 191.76146Q28.862513 191.68333 28.940638 191.48021Q28.987513 191.37083 29.065638 191.04271Q29.128138 190.69896 29.128138 190.51146L29.550013 190.51146L29.550013 194.43333L29.128138 194.43333Q29.128138 194.27708 29.096888 193.94896Q29.050013 193.60521 29.003138 193.46458Q28.925013 193.27708 28.784388 193.18333Q28.628138 193.08958 28.393763 193.08958L21.690638 193.08958L21.690638 193.43333Q21.690638 193.62083 21.706263 193.88646Q21.706263 194.15208 21.737513 194.40208Q21.768763 194.58958 21.971888 194.80833Q22.175013 195.01146 22.440638 195.18333Q22.706263 195.35521 23.003138 195.49583Q23.300013 195.63646 23.487513 195.68333L23.487513 196.08958L21.237513 196.08958L21.237513 188.85521L23.487513 188.85521ZM24.128138 180.05833Q24.175013 180.32396 24.315638 180.55833Q24.456263 180.79271 24.831263 180.96458Q25.612513 181.30833 26.471888 181.68333Q27.315638 182.04271 28.253138 182.44896Q28.518763 182.55833 28.893763 182.69896Q29.268763 182.82396 29.596888 182.93333L29.596888 183.38646Q28.221888 183.94896 27.096888 184.41771Q25.956263 184.88646 24.768763 185.38646Q24.503138 185.51146 24.362513 185.77708Q24.206263 186.02708 24.159388 186.29271L23.768763 186.29271L23.768763 183.62083L24.175013 183.62083Q24.190638 183.79271 24.253138 184.05833Q24.315638 184.32396 24.440638 184.32396Q24.456263 184.32396 24.534388 184.29271Q24.596888 184.26146 24.690638 184.23021Q25.300013 183.99583 26.378138 183.55833Q27.440638 183.12083 28.096888 182.83958Q27.596888 182.63646 26.846888 182.32396Q26.096888 181.99583 25.159388 181.62083Q25.003138 181.55833 24.878138 181.51146Q24.737513 181.46458 24.596888 181.46458Q24.487513 181.46458 24.409388 181.55833Q24.331263 181.65208 24.268763 181.79271Q24.221888 181.91771 24.190638 182.05833Q24.159388 182.18333 24.143763 182.26146L23.768763 182.26146L23.768763 180.05833L24.128138 180.05833ZM29.440638 174.29271Q29.550013 174.55833 29.612513 174.77708Q29.675013 174.98021 29.675013 175.24583Q29.675013 175.69896 29.456263 175.98021Q29.237513 176.24583 28.831263 176.32396L28.831263 176.35521Q29.253138 176.73021 29.471888 177.16771Q29.690638 177.60521 29.690638 178.23021Q29.690638 178.87083 29.300013 179.29271Q28.893763 179.71458 28.253138 179.71458Q27.925013 179.71458 27.659388 179.62083Q27.393763 179.52708 27.175013 179.33958Q27.003138 179.19896 26.878138 178.96458Q26.737513 178.71458 26.643763 178.49583Q26.550013 178.23021 26.284388 177.43333Q26.003138 176.62083 25.862513 176.33958L25.284388 176.33958Q25.206263 176.33958 24.987513 176.37083Q24.768763 176.40208 24.581263 176.51146Q24.362513 176.63646 24.206263 176.85521Q24.034388 177.05833 24.034388 177.44896Q24.034388 177.71458 24.128138 177.94896Q24.221888 178.18333 24.315638 178.27708Q24.440638 178.27708 24.675013 178.23021Q24.893763 178.16771 25.081263 178.16771Q25.284388 178.16771 25.456263 178.35521Q25.628138 178.54271 25.628138 178.87083Q25.628138 179.15208 25.425013 179.29271Q25.206263 179.43333 24.956263 179.43333Q24.690638 179.43333 24.440638 179.24583Q24.190638 179.05833 24.003138 178.74583Q23.831263 178.48021 23.721888 178.10521Q23.612513 177.73021 23.612513 177.37083Q23.612513 176.88646 23.675013 176.52708Q23.737513 176.15208 23.971888 175.85521Q24.175013 175.55833 24.550013 175.40208Q24.925013 175.24583 25.518763 175.24583Q26.346888 175.24583 27.003138 175.26146Q27.643763 175.27708 28.409388 175.27708Q28.643763 175.27708 28.784388 175.19896Q28.909388 175.12083 29.003138 174.94896Q29.050013 174.87083 29.065638 174.68333Q29.065638 174.48021 29.065638 174.29271L29.440638 174.29271ZM26.346888 176.33958Q26.503138 176.82396 26.643763 177.19896Q26.784388 177.57396 26.987513 177.90208Q27.190638 178.19896 27.471888 178.37083Q27.737513 178.54271 28.112513 178.54271Q28.596888 178.54271 28.831263 178.29271Q29.050013 178.02708 29.050013 177.63646Q29.050013 177.21458 28.846888 176.90208Q28.643763 176.58958 28.378138 176.37083L26.346888 176.33958ZM29.550013 167.38646L29.550013 170.21458L29.159388 170.21458Q29.143763 170.07396 29.143763 169.91771Q29.128138 169.74583 29.096888 169.65208Q29.034388 169.48021 28.909388 169.40208Q28.768763 169.32396 28.565638 169.32396L25.596888 169.32396Q24.971888 169.32396 24.643763 169.62083Q24.315638 169.90208 24.315638 170.32396Q24.315638 170.63646 24.409388 170.90208Q24.503138 171.15208 24.643763 171.33958Q24.784388 171.54271 24.940638 171.65208Q25.096888 171.76146 25.190638 171.82396L28.503138 171.82396Q28.706263 171.82396 28.831263 171.74583Q28.956263 171.65208 29.034388 171.49583Q29.096888 171.37083 29.128138 171.23021Q29.143763 171.08958 29.159388 170.93333L29.550013 170.93333L29.550013 173.76146L29.159388 173.76146Q29.143763 173.62083 29.143763 173.48021Q29.128138 173.33958 29.096888 173.23021Q29.034388 173.07396 28.909388 172.99583Q28.768763 172.91771 28.565638 172.91771L25.003138 172.91771Q24.800013 172.91771 24.628138 172.99583Q24.456263 173.07396 24.362513 173.23021Q24.284388 173.33958 24.253138 173.49583Q24.221888 173.65208 24.206263 173.82396L23.831263 173.82396L23.706263 171.90208L23.784388 171.82396L24.596888 171.82396L24.596888 171.79271Q24.456263 171.65208 24.268763 171.44896Q24.065638 171.23021 23.940638 171.04271Q23.800013 170.82396 23.706263 170.52708Q23.612513 170.23021 23.612513 169.85521Q23.612513 169.02708 24.128138 168.62083Q24.643763 168.21458 25.518763 168.21458L28.518763 168.21458Q28.721888 168.21458 28.846888 168.15208Q28.971888 168.07396 29.050013 167.90208Q29.096888 167.76146 29.128138 167.66771Q29.143763 167.55833 29.159388 167.38646L29.550013 167.38646ZM29.550013 155.85521L29.550013 159.32396L29.128138 159.32396Q29.096888 158.85521 29.018763 158.55833Q28.925013 158.26146 28.800013 158.26146Q28.753138 158.26146 28.675013 158.27708Q28.596888 158.27708 28.534388 158.30833L26.675013 158.99583L26.675013 161.90208Q27.081263 162.07396 27.393763 162.18333Q27.690638 162.27708 27.956263 162.35521Q28.206263 162.43333 28.362513 162.46458Q28.518763 162.49583 28.612513 162.49583Q28.846888 162.49583 28.987513 162.13646Q29.112513 161.76146 29.128138 161.29271L29.550013 161.29271L29.550013 164.41771L29.128138 164.41771Q29.128138 164.27708 29.065638 164.04271Q29.003138 163.80833 28.909388 163.66771Q28.753138 163.43333 28.581263 163.30833Q28.409388 163.16771 28.112513 163.05833Q26.550013 162.41771 24.596888 161.66771Q22.643763 160.91771 21.112513 160.32396L21.112513 159.85521L28.284388 157.07396Q28.518763 156.99583 28.659388 156.88646Q28.800013 156.77708 28.940638 156.57396Q29.018763 156.43333 29.081263 156.21458Q29.128138 155.99583 29.128138 155.85521L29.550013 155.85521ZM26.143763 159.21458L22.925013 160.46458L26.143763 161.69896L26.143763 159.21458ZM28.956263 150.80833Q29.175013 150.57396 29.456263 150.44896Q29.737513 150.30833 30.159388 150.30833Q30.565638 150.30833 30.925013 150.49583Q31.300013 150.66771 31.565638 151.04271Q31.846888 151.43333 32.003136 151.98021Q32.159386 152.52708 32.159386 153.32396Q32.159386 154.63646 31.768763 155.29271Q31.378138 155.93333 30.643763 155.93333Q30.050013 155.93333 29.706263 155.46458Q29.362513 154.99583 29.331263 154.27708L29.237513 154.27708Q29.190638 154.44896 29.112513 154.63646Q29.034388 154.82396 28.925013 154.96458Q28.800013 155.10521 28.643763 155.19896Q28.471888 155.29271 28.221888 155.29271Q27.909388 155.29271 27.659388 155.07396Q27.393763 154.85521 27.206263 154.41771L27.112513 154.41771Q26.846888 154.98021 26.440638 155.29271Q26.034388 155.58958 25.487513 155.58958Q24.659388 155.58958 24.143763 154.98021Q23.612513 154.37083 23.612513 153.41771Q23.612513 153.15208 23.659388 152.90208Q23.706263 152.63646 23.800013 152.35521L23.800013 150.33958L24.362513 150.33958L24.362513 151.69896L24.393763 151.69896Q24.643763 151.49583 24.956263 151.38646Q25.253138 151.27708 25.550013 151.27708Q26.315638 151.27708 26.846888 151.90208Q27.362513 152.51146 27.362513 153.33958L27.362513 154.04271Q27.409388 154.18333 27.534388 154.32396Q27.659388 154.46458 27.862513 154.46458Q28.081263 154.46458 28.206263 154.35521Q28.315638 154.23021 28.346888 154.04271Q28.393763 153.88646 28.409388 153.66771Q28.425013 153.43333 28.425013 153.18333Q28.440638 152.93333 28.471888 152.48021Q28.487513 152.02708 28.503138 151.83958Q28.518763 151.57396 28.643763 151.30833Q28.753138 151.02708 28.956263 150.80833ZM25.518763 152.38646Q24.831263 152.38646 24.425013 152.66771Q24.018763 152.94896 24.018763 153.44896Q24.018763 153.73021 24.143763 153.93333Q24.253138 154.12083 24.456263 154.24583Q24.659388 154.35521 24.940638 154.41771Q25.206263 154.46458 25.487513 154.46458Q26.143763 154.46458 26.550013 154.18333Q26.956263 153.88646 26.956263 153.43333Q26.956263 152.93333 26.550013 152.66771Q26.143763 152.38646 25.518763 152.38646ZM30.378138 151.26146Q30.050013 151.26146 29.831263 151.41771Q29.628138 151.57396 29.550013 151.88646Q29.518763 152.04271 29.487513 152.55833Q29.456263 153.05833 29.456263 153.74583Q29.581263 154.37083 29.862513 154.63646Q30.159388 154.90208 30.628138 154.90208Q30.831263 154.90208 31.018763 154.82396Q31.206263 154.73021 31.362513 154.51146Q31.518763 154.30833 31.612513 153.96458Q31.706263 153.62083 31.706263 153.12083Q31.706263 152.26146 31.378138 151.76146Q31.050013 151.26146 30.378138 151.26146ZM28.190638 144.62083Q28.878138 144.99583 29.300013 145.60521Q29.706263 146.21458 29.706263 146.99583Q29.706263 147.69896 29.456263 148.23021Q29.206263 148.74583 28.784388 149.08958Q28.362513 149.43333 27.800013 149.60521Q27.237513 149.76146 26.612513 149.76146Q26.050013 149.76146 25.518763 149.58958Q24.971888 149.40208 24.534388 149.05833Q24.112513 148.73021 23.862513 148.23021Q23.612513 147.73021 23.612513 147.12083Q23.612513 146.48021 23.815638 146.04271Q24.003138 145.58958 24.346888 145.30833Q24.675013 145.02708 25.128138 144.90208Q25.565638 144.76146 26.096888 144.76146L26.471888 144.76146L26.471888 148.58958Q27.050013 148.58958 27.518763 148.48021Q27.971888 148.37083 28.331263 148.13646Q28.659388 147.91771 28.862513 147.55833Q29.050013 147.18333 29.050013 146.66771Q29.050013 146.15208 28.815638 145.77708Q28.565638 145.38646 27.940638 145.04271L28.190638 144.62083ZM25.987513 145.91771Q25.659388 145.91771 25.284388 145.98021Q24.909388 146.02708 24.659388 146.15208Q24.393763 146.29271 24.221888 146.52708Q24.050013 146.76146 24.050013 147.13646Q24.050013 147.74583 24.565638 148.15208Q25.065638 148.55833 25.987513 148.58958L25.987513 145.91771Z" fill-rule="nonzero"/><path fill="#071924" d="M70.56563 298.98126Q70.94063 299.4344 71.12813 300.04376Q71.31563 300.6375 71.31563 301.3094Q71.31563 302.10626 71.08125 302.73126Q70.8625 303.35626 70.45625 303.77814Q70.05 304.2 69.4875 304.41876Q68.925 304.6375 68.2375 304.6375Q67.47188 304.6375 66.87813 304.3875Q66.28438 304.1375 65.925 303.7Q65.53438 303.23126 65.34688 302.6219Q65.15938 302.0125 65.15938 301.3094Q65.15938 300.60626 65.33125 300.02814Q65.51875 299.4344 65.90938 298.96564Q66.28438 298.4969 66.87813 298.2469Q67.47188 297.98126 68.2375 297.98126Q69.03438 297.98126 69.6125 298.2469Q70.19063 298.5125 70.56563 298.98126ZM70.01875 301.3094Q70.01875 299.90314 69.53438 299.1375Q69.06563 298.3719 68.2375 298.3719Q67.40938 298.3719 66.925 299.1375Q66.45625 299.90314 66.45625 301.3094Q66.45625 302.6219 66.90938 303.4344Q67.3625 304.23126 68.2375 304.23126Q69.09688 304.23126 69.55 303.4344Q70.01875 302.6219 70.01875 301.3094Z" fill-rule="nonzero"/><path fill="#071924" d="M70.69063 264.69446L65.19063 264.69446L65.19063 263.89758Q65.34688 263.71008 65.62813 263.49133Q65.90938 263.25696 66.3 263.00696Q66.53438 262.83508 66.8625 262.64758Q67.19063 262.46008 67.6125 262.24133Q68.06563 261.99133 68.31563 261.80383Q68.56563 261.61633 68.76875 261.3507Q68.90938 261.1632 68.9875 260.89758Q69.08125 260.61633 69.08125 260.11633Q69.08125 259.38196 68.675 259.0382Q68.28438 258.69446 67.675 258.69446Q67.3 258.69446 66.95625 258.8507Q66.6125 258.99133 66.44063 259.25696Q66.4875 259.44446 66.55 259.71008Q66.6125 259.96008 66.6125 260.21008Q66.6125 260.42883 66.425 260.6007Q66.2375 260.77258 65.87813 260.77258Q65.58125 260.77258 65.425 260.58508Q65.26875 260.38196 65.26875 260.0382Q65.26875 259.7257 65.44063 259.4132Q65.6125 259.08508 65.94063 258.80383Q66.26875 258.55383 66.7375 258.39758Q67.22188 258.2257 67.76875 258.2257Q68.97188 258.2257 69.675 258.75696Q70.37813 259.2882 70.37813 260.19446Q70.37813 260.61633 70.25313 260.9757Q70.12813 261.31946 69.84688 261.58508Q69.53438 261.88196 69.1125 262.1007Q68.70625 262.31946 67.84688 262.69446Q67.34688 262.92883 66.89375 263.17883Q66.45625 263.42883 66.175 263.6632L70.69063 263.6632L70.69063 264.69446Z" fill-rule="nonzero"/><path fill="#071924" d="M70.90938 224.40764L69.70625 224.40764L69.70625 227.07951L68.58125 227.07951L68.58125 224.40764L64.83125 224.40764L64.83125 223.50139L68.94063 218.50139L69.70625 218.50139L69.70625 223.64201L70.90938 223.64201L70.90938 224.40764ZM68.58125 223.64201L68.58125 219.79826L65.425 223.64201L68.58125 223.64201Z" fill-rule="nonzero"/><path fill="#071924" d="M70.84688 182.48021Q70.84688 183.08958 70.62813 183.62083Q70.40938 184.15208 70.03438 184.52708Q69.6125 184.96458 69.09688 185.16771Q68.58125 185.37083 68.01875 185.37083Q67.3625 185.37083 66.83125 185.13646Q66.31563 184.88646 65.94063 184.44896Q65.56563 184.01146 65.3625 183.37083Q65.15938 182.71458 65.15938 181.91771Q65.15938 179.82396 66.39375 178.38646Q67.64375 176.94896 69.7375 176.66771L69.84688 177.18333L69.31563 177.27708Q68.05 177.69896 67.34688 178.57396Q66.65938 179.43333 66.45625 180.66771Q66.95625 180.23021 67.44063 180.04271Q67.94063 179.85521 68.4875 179.85521Q69.45625 179.85521 70.14375 180.60521Q70.84688 181.35521 70.84688 182.48021ZM69.58125 182.63646Q69.58125 181.68333 69.14375 181.12083Q68.70625 180.54271 67.97188 180.54271Q67.53438 180.54271 67.15938 180.71458Q66.78438 180.87083 66.425 181.26146Q66.425 181.32396 66.40938 181.58958Q66.39375 181.83958 66.39375 181.98021Q66.39375 183.35521 66.84688 184.13646Q67.3 184.90208 68.01875 184.90208Q68.72188 184.90208 69.14375 184.30833Q69.58125 183.69896 69.58125 182.63646Z" fill-rule="nonzero"/><path fill="#071924" d="M71.09688 143.22466Q71.09688 144.20903 70.2375 144.92778Q69.39375 145.6309 68.01875 145.6309Q66.72188 145.6309 65.94063 144.97466Q65.15938 144.3184 65.15938 143.30278Q65.15938 142.53716 65.6125 142.03716Q66.08125 141.53716 66.9875 141.17778Q66.2375 140.7559 65.8625 140.27153Q65.50313 139.77153 65.50313 139.14653Q65.50313 138.17778 66.31563 137.53716Q67.12813 136.89653 68.25313 136.89653Q69.37813 136.89653 70.08125 137.5059Q70.78438 138.11528 70.78438 139.03716Q70.78438 139.6309 70.39375 140.16216Q70.01875 140.6934 69.26875 141.02153Q70.2375 141.4434 70.65938 141.9434Q71.09688 142.4434 71.09688 143.22466ZM69.675 138.97466Q69.675 138.2559 69.25313 137.8184Q68.83125 137.36528 68.15938 137.36528Q67.50313 137.36528 67.08125 137.80278Q66.65938 138.22466 66.65938 138.86528Q66.65938 139.47466 67.14375 139.91216Q67.62813 140.33403 68.84688 140.8184Q69.28438 140.53716 69.47188 140.08403Q69.675 139.61528 69.675 138.97466ZM69.925 143.5059Q69.925 143.1309 69.76875 142.84966Q69.6125 142.5684 69.31563 142.34966Q69.01875 142.11528 68.50313 141.8809Q68.00313 141.6309 67.39375 141.3809Q66.83125 141.6934 66.56563 142.16216Q66.31563 142.6309 66.31563 143.24028Q66.31563 144.09966 66.81563 144.6309Q67.31563 145.16216 68.15938 145.16216Q68.97188 145.16216 69.44063 144.6934Q69.925 144.22466 69.925 143.5059Z" fill-rule="nonzero"/><path fill="#071924" d="M64.28438 105.672226L60.346874 105.672226L60.346874 105.25035Q60.51875 105.25035 60.89375 105.2191Q61.26875 105.172226 61.409374 105.12535Q61.58125 105.06285 61.675 104.93785Q61.784374 104.797226 61.784374 104.547226L61.784374 100.422226L60.315624 100.422226L60.315624 99.93785L60.64375 99.93785Q61.26875 99.93785 61.76875 99.703476Q62.26875 99.4691 62.4875 99.203476L62.971874 99.203476Q62.95625 99.578476 62.940624 100.0941Q62.925 100.5941 62.925 101.00035L62.925 104.4691Q62.925 104.68785 63.01875 104.8441Q63.1125 105.00035 63.284374 105.078476Q63.425 105.140976 63.76875 105.203476Q64.12813 105.25035 64.28438 105.25035L64.28438 105.672226ZM70.56563 100.203476Q70.94063 100.6566 71.12813 101.265976Q71.31563 101.859726 71.31563 102.5316Q71.31563 103.328476 71.08125 103.953476Q70.8625 104.578476 70.45625 105.00035Q70.05 105.422226 69.4875 105.640976Q68.925 105.859726 68.2375 105.859726Q67.47188 105.859726 66.87813 105.609726Q66.28438 105.359726 65.925 104.922226Q65.53438 104.453476 65.34688 103.8441Q65.15938 103.234726 65.15938 102.5316Q65.15938 101.828476 65.33125 101.25035Q65.51875 100.6566 65.90938 100.18785Q66.28438 99.7191 66.87813 99.4691Q67.47188 99.203476 68.2375 99.203476Q69.03438 99.203476 69.6125 99.4691Q70.19063 99.734726 70.56563 100.203476ZM70.01875 102.5316Q70.01875 101.12535 69.53438 100.359726Q69.06563 99.5941 68.2375 99.5941Q67.40938 99.5941 66.925 100.359726Q66.45625 101.12535 66.45625 102.5316Q66.45625 103.8441 66.90938 104.6566Q67.3625 105.453476 68.2375 105.453476Q69.09688 105.453476 69.55 104.6566Q70.01875 103.8441 70.01875 102.5316Z" fill-rule="nonzero"/><path fill="#071924" d="M64.28438 65.916664L60.346874 65.916664L60.346874 65.49479Q60.51875 65.49479 60.89375 65.46354Q61.26875 65.416664 61.409374 65.36979Q61.58125 65.30729 61.675 65.18229Q61.784374 65.041664 61.784374 64.791664L61.784374 60.666664L60.315624 60.666664L60.315624 60.18229L60.64375 60.18229Q61.26875 60.18229 61.76875 59.947914Q62.26875 59.71354 62.4875 59.447914L62.971874 59.447914Q62.95625 59.822914 62.940624 60.33854Q62.925 60.83854 62.925 61.24479L62.925 64.71354Q62.925 64.93229 63.01875 65.08854Q63.1125 65.24479 63.284374 65.322914Q63.425 65.385414 63.76875 65.447914Q64.12813 65.49479 64.28438 65.49479L64.28438 65.916664ZM70.69063 65.916664L65.19063 65.916664L65.19063 65.11979Q65.34688 64.93229 65.62813 64.71354Q65.90938 64.479164 66.3 64.229164Q66.53438 64.05729 66.8625 63.86979Q67.19063 63.68229 67.6125 63.46354Q68.06563 63.21354 68.31563 63.02604Q68.56563 62.83854 68.76875 62.572914Q68.90938 62.385414 68.9875 62.11979Q69.08125 61.83854 69.08125 61.33854Q69.08125 60.604164 68.675 60.260414Q68.28438 59.916664 67.675 59.916664Q67.3 59.916664 66.95625 60.072914Q66.6125 60.21354 66.44063 60.479164Q66.4875 60.666664 66.55 60.93229Q66.6125 61.18229 66.6125 61.43229Q66.6125 61.65104 66.425 61.822914Q66.2375 61.99479 65.87813 61.99479Q65.58125 61.99479 65.425 61.80729Q65.26875 61.604164 65.26875 61.260414Q65.26875 60.947914 65.44063 60.635414Q65.6125 60.30729 65.94063 60.02604Q66.26875 59.77604 66.7375 59.61979Q67.22188 59.447914 67.76875 59.447914Q68.97188 59.447914 69.675 59.979164Q70.37813 60.510414 70.37813 61.416664Q70.37813 61.83854 70.25313 62.197914Q70.12813 62.541664 69.84688 62.80729Q69.53438 63.104164 69.1125 63.322914Q68.70625 63.541664 67.84688 63.916664Q67.34688 64.15104 66.89375 64.40104Q66.45625 64.65104 66.175 64.885414L70.69063 64.885414L70.69063 65.916664Z" fill-rule="nonzero"/><path fill="#071924" d="M100.39324 317.45L94.89324 317.45L94.89324 316.65314Q95.04949 316.46564 95.33074 316.2469Q95.61199 316.0125 96.00262 315.7625Q96.23699 315.59064 96.56512 315.40314Q96.89324 315.21564 97.31512 314.9969Q97.76824 314.7469 98.01824 314.5594Q98.26824 314.3719 98.47137 314.10626Q98.61199 313.91876 98.69012 313.65314Q98.78387 313.3719 98.78387 312.8719Q98.78387 312.1375 98.37762 311.79376Q97.98699 311.45 97.37762 311.45Q97.00262 311.45 96.65887 311.60626Q96.31512 311.7469 96.14324 312.0125Q96.19012 312.2 96.25262 312.46564Q96.31512 312.71564 96.31512 312.96564Q96.31512 313.1844 96.12762 313.35626Q95.94012 313.52814 95.58074 313.52814Q95.28387 313.52814 95.12762 313.34064Q94.97137 313.1375 94.97137 312.79376Q94.97137 312.48126 95.14324 312.16876Q95.31512 311.84064 95.64324 311.5594Q95.97137 311.3094 96.44012 311.15314Q96.92449 310.98126 97.47137 310.98126Q98.67449 310.98126 99.37762 311.5125Q100.08074 312.04376 100.08074 312.95Q100.08074 313.3719 99.95574 313.73126Q99.83074 314.075 99.54949 314.34064Q99.23699 314.6375 98.81512 314.85626Q98.40887 315.075 97.54949 315.45Q97.04949 315.6844 96.59637 315.9344Q96.15887 316.1844 95.87762 316.41876L100.39324 316.41876L100.39324 317.45ZM107.26824 311.98126Q107.64324 312.4344 107.83074 313.04376Q108.01824 313.6375 108.01824 314.3094Q108.01824 315.10626 107.78387 315.73126Q107.56512 316.35626 107.15887 316.77814Q106.75262 317.2 106.19012 317.41876Q105.62762 317.6375 104.94012 317.6375Q104.17449 317.6375 103.58074 317.3875Q102.98699 317.1375 102.62762 316.7Q102.23699 316.23126 102.04949 315.6219Q101.86199 315.0125 101.86199 314.3094Q101.86199 313.60626 102.03387 313.02814Q102.22137 312.4344 102.61199 311.96564Q102.98699 311.4969 103.58074 311.2469Q104.17449 310.98126 104.94012 310.98126Q105.73699 310.98126 106.31512 311.2469Q106.89324 311.5125 107.26824 311.98126ZM106.72137 314.3094Q106.72137 312.90314 106.23699 312.1375Q105.76824 311.3719 104.94012 311.3719Q104.11199 311.3719 103.62762 312.1375Q103.15887 312.90314 103.15887 314.3094Q103.15887 315.6219 103.61199 316.4344Q104.06512 317.23126 104.94012 317.23126Q105.79949 317.23126 106.25262 316.4344Q106.72137 315.6219 106.72137 314.3094Z" fill-rule="nonzero"/><path fill="#071924" d="M136.50822 317.45L131.00822 317.45L131.00822 316.65314Q131.16447 316.46564 131.44572 316.2469Q131.72697 316.0125 132.1176 315.7625Q132.35197 315.59064 132.6801 315.40314Q133.00822 315.21564 133.4301 314.9969Q133.88322 314.7469 134.13322 314.5594Q134.38322 314.3719 134.58635 314.10626Q134.72697 313.91876 134.8051 313.65314Q134.89885 313.3719 134.89885 312.8719Q134.89885 312.1375 134.4926 311.79376Q134.10197 311.45 133.4926 311.45Q133.1176 311.45 132.77385 311.60626Q132.4301 311.7469 132.25822 312.0125Q132.3051 312.2 132.3676 312.46564Q132.4301 312.71564 132.4301 312.96564Q132.4301 313.1844 132.2426 313.35626Q132.0551 313.52814 131.69572 313.52814Q131.39885 313.52814 131.2426 313.34064Q131.08635 313.1375 131.08635 312.79376Q131.08635 312.48126 131.25822 312.16876Q131.4301 311.84064 131.75822 311.5594Q132.08635 311.3094 132.5551 311.15314Q133.03947 310.98126 133.58635 310.98126Q134.78947 310.98126 135.4926 311.5125Q136.19572 312.04376 136.19572 312.95Q136.19572 313.3719 136.07072 313.73126Q135.94572 314.075 135.66447 314.34064Q135.35197 314.6375 134.9301 314.85626Q134.52385 315.075 133.66447 315.45Q133.16447 315.6844 132.71135 315.9344Q132.27385 316.1844 131.9926 316.41876L136.50822 316.41876L136.50822 317.45ZM142.10197 317.45L138.16447 317.45L138.16447 317.02814Q138.33635 317.02814 138.71135 316.9969Q139.08635 316.95 139.22697 316.90314Q139.39885 316.84064 139.4926 316.71564Q139.60197 316.575 139.60197 316.325L139.60197 312.2L138.13322 312.2L138.13322 311.71564L138.46135 311.71564Q139.08635 311.71564 139.58635 311.48126Q140.08635 311.2469 140.3051 310.98126L140.78947 310.98126Q140.77385 311.35626 140.75822 311.8719Q140.7426 312.3719 140.7426 312.77814L140.7426 316.2469Q140.7426 316.46564 140.83635 316.6219Q140.9301 316.77814 141.10197 316.85626Q141.2426 316.91876 141.58635 316.98126Q141.94572 317.02814 142.10197 317.02814L142.10197 317.45Z" fill-rule="nonzero"/><path fill="#071924" d="M170.6232 317.45L165.1232 317.45L165.1232 316.65314Q165.27945 316.46564 165.5607 316.2469Q165.84195 316.0125 166.23257 315.7625Q166.46695 315.59064 166.79507 315.40314Q167.1232 315.21564 167.54507 314.9969Q167.9982 314.7469 168.2482 314.5594Q168.4982 314.3719 168.70132 314.10626Q168.84195 313.91876 168.92007 313.65314Q169.01382 313.3719 169.01382 312.8719Q169.01382 312.1375 168.60757 311.79376Q168.21695 311.45 167.60757 311.45Q167.23257 311.45 166.88882 311.60626Q166.54507 311.7469 166.3732 312.0125Q166.42007 312.2 166.48257 312.46564Q166.54507 312.71564 166.54507 312.96564Q166.54507 313.1844 166.35757 313.35626Q166.17007 313.52814 165.8107 313.52814Q165.51382 313.52814 165.35757 313.34064Q165.20132 313.1375 165.20132 312.79376Q165.20132 312.48126 165.3732 312.16876Q165.54507 311.84064 165.8732 311.5594Q166.20132 311.3094 166.67007 311.15314Q167.15445 310.98126 167.70132 310.98126Q168.90445 310.98126 169.60757 311.5125Q170.3107 312.04376 170.3107 312.95Q170.3107 313.3719 170.1857 313.73126Q170.0607 314.075 169.77945 314.34064Q169.46695 314.6375 169.04507 314.85626Q168.63882 315.075 167.77945 315.45Q167.27945 315.6844 166.82632 315.9344Q166.38882 316.1844 166.10757 316.41876L170.6232 316.41876L170.6232 317.45ZM177.6232 317.45L172.1232 317.45L172.1232 316.65314Q172.27945 316.46564 172.5607 316.2469Q172.84195 316.0125 173.23257 315.7625Q173.46695 315.59064 173.79507 315.40314Q174.1232 315.21564 174.54507 314.9969Q174.9982 314.7469 175.2482 314.5594Q175.4982 314.3719 175.70132 314.10626Q175.84195 313.91876 175.92007 313.65314Q176.01382 313.3719 176.01382 312.8719Q176.01382 312.1375 175.60757 311.79376Q175.21695 311.45 174.60757 311.45Q174.23257 311.45 173.88882 311.60626Q173.54507 311.7469 173.3732 312.0125Q173.42007 312.2 173.48257 312.46564Q173.54507 312.71564 173.54507 312.96564Q173.54507 313.1844 173.35757 313.35626Q173.17007 313.52814 172.8107 313.52814Q172.51382 313.52814 172.35757 313.34064Q172.20132 313.1375 172.20132 312.79376Q172.20132 312.48126 172.3732 312.16876Q172.54507 311.84064 172.8732 311.5594Q173.20132 311.3094 173.67007 311.15314Q174.15445 310.98126 174.70132 310.98126Q175.90445 310.98126 176.60757 311.5125Q177.3107 312.04376 177.3107 312.95Q177.3107 313.3719 177.1857 313.73126Q177.0607 314.075 176.77945 314.34064Q176.46695 314.6375 176.04507 314.85626Q175.63882 315.075 174.77945 315.45Q174.27945 315.6844 173.82632 315.9344Q173.38882 316.1844 173.10757 316.41876L177.6232 316.41876L177.6232 317.45Z" fill-rule="nonzero"/><path fill="#071924" d="M205.73819 317.45L200.23819 317.45L200.23819 316.65314Q200.39444 316.46564 200.67569 316.2469Q200.95694 316.0125 201.34756 315.7625Q201.58194 315.59064 201.91006 315.40314Q202.23819 315.21564 202.66006 314.9969Q203.11319 314.7469 203.36319 314.5594Q203.61319 314.3719 203.81631 314.10626Q203.95694 313.91876 204.03506 313.65314Q204.12881 313.3719 204.12881 312.8719Q204.12881 312.1375 203.72256 311.79376Q203.33194 311.45 202.72256 311.45Q202.34756 311.45 202.00381 311.60626Q201.66006 311.7469 201.48819 312.0125Q201.53506 312.2 201.59756 312.46564Q201.66006 312.71564 201.66006 312.96564Q201.66006 313.1844 201.47256 313.35626Q201.28506 313.52814 200.92569 313.52814Q200.62881 313.52814 200.47256 313.34064Q200.31631 313.1375 200.31631 312.79376Q200.31631 312.48126 200.48819 312.16876Q200.66006 311.84064 200.98819 311.5594Q201.31631 311.3094 201.78506 311.15314Q202.26944 310.98126 202.81631 310.98126Q204.01944 310.98126 204.72256 311.5125Q205.42569 312.04376 205.42569 312.95Q205.42569 313.3719 205.30069 313.73126Q205.17569 314.075 204.89444 314.34064Q204.58194 314.6375 204.16006 314.85626Q203.75381 315.075 202.89444 315.45Q202.39444 315.6844 201.94131 315.9344Q201.50381 316.1844 201.22256 316.41876L205.73819 316.41876L205.73819 317.45ZM209.45694 319.59064Q208.89444 319.59064 208.44131 319.45Q207.98819 319.3094 207.66006 319.075Q207.33194 318.84064 207.14444 318.52814Q206.97256 318.23126 206.97256 317.91876Q206.97256 317.6219 207.11319 317.40314Q207.25381 317.16876 207.56631 317.16876Q207.91006 317.16876 208.09756 317.34064Q208.28506 317.5125 208.28506 317.73126Q208.28506 317.91876 208.22256 318.2Q208.16006 318.4969 208.12881 318.6219Q208.17569 318.66876 208.26944 318.7469Q208.37881 318.84064 208.55069 318.91876Q208.73819 318.9969 208.94131 319.04376Q209.14444 319.10626 209.51944 319.10626Q209.86319 319.10626 210.19131 318.98126Q210.51944 318.8719 210.76944 318.6219Q211.01944 318.34064 211.16006 317.98126Q211.31631 317.6219 211.31631 317.04376Q211.31631 316.71564 211.23819 316.41876Q211.17569 316.10626 210.98819 315.8719Q210.81631 315.6375 210.50381 315.5125Q210.19131 315.3875 209.70694 315.3875L208.94131 315.3875L208.94131 314.71564L209.44131 314.71564Q210.25381 314.71564 210.61319 314.27814Q210.97256 313.825 210.97256 312.9344Q210.97256 312.2 210.62881 311.825Q210.28506 311.45 209.64444 311.45Q209.34756 311.45 209.14444 311.52814Q208.94131 311.60626 208.83194 311.66876Q208.67569 311.7469 208.58194 311.85626Q208.48819 311.95 208.44131 311.9969Q208.48819 312.1844 208.53506 312.46564Q208.59756 312.73126 208.59756 312.98126Q208.59756 313.2 208.41006 313.3719Q208.23819 313.54376 207.87881 313.54376Q207.56631 313.54376 207.42569 313.325Q207.28506 313.09064 207.28506 312.8094Q207.28506 312.4969 207.44131 312.1844Q207.61319 311.8719 207.95694 311.59064Q208.28506 311.3094 208.76944 311.15314Q209.25381 310.98126 209.87881 310.98126Q210.59756 310.98126 211.06631 311.2Q211.53506 311.40314 211.80069 311.7Q212.06631 312.0125 212.16006 312.34064Q212.26944 312.66876 212.26944 312.90314Q212.26944 313.1844 212.19131 313.48126Q212.11319 313.77814 211.92569 314.02814Q211.70694 314.3094 211.36319 314.54376Q211.03506 314.7625 210.53506 314.90314L210.53506 314.9969Q210.86319 315.02814 211.22256 315.15314Q211.59756 315.2625 211.89444 315.48126Q212.20694 315.73126 212.41006 316.10626Q212.61319 316.48126 212.61319 317.0594Q212.61319 318.1844 211.70694 318.8875Q210.80069 319.59064 209.45694 319.59064Z" fill-rule="nonzero"/><path fill="#071924" d="M240.85316 317.45L235.35316 317.45L235.35316 316.65314Q235.50941 316.46564 235.79066 316.2469Q236.07191 316.0125 236.46254 315.7625Q236.69691 315.59064 237.02504 315.40314Q237.35316 315.21564 237.77504 314.9969Q238.22816 314.7469 238.47816 314.5594Q238.72816 314.3719 238.93129 314.10626Q239.07191 313.91876 239.15004 313.65314Q239.24379 313.3719 239.24379 312.8719Q239.24379 312.1375 238.83754 311.79376Q238.44691 311.45 237.83754 311.45Q237.46254 311.45 237.11879 311.60626Q236.77504 311.7469 236.60316 312.0125Q236.65004 312.2 236.71254 312.46564Q236.77504 312.71564 236.77504 312.96564Q236.77504 313.1844 236.58754 313.35626Q236.40004 313.52814 236.04066 313.52814Q235.74379 313.52814 235.58754 313.34064Q235.43129 313.1375 235.43129 312.79376Q235.43129 312.48126 235.60316 312.16876Q235.77504 311.84064 236.10316 311.5594Q236.43129 311.3094 236.90004 311.15314Q237.38441 310.98126 237.93129 310.98126Q239.13441 310.98126 239.83754 311.5125Q240.54066 312.04376 240.54066 312.95Q240.54066 313.3719 240.41566 313.73126Q240.29066 314.075 240.00941 314.34064Q239.69691 314.6375 239.27504 314.85626Q238.86879 315.075 238.00941 315.45Q237.50941 315.6844 237.05629 315.9344Q236.61879 316.1844 236.33754 316.41876L240.85316 316.41876L240.85316 317.45ZM248.07191 316.91876L246.86879 316.91876L246.86879 319.59064L245.74379 319.59064L245.74379 316.91876L241.99379 316.91876L241.99379 316.0125L246.10316 311.0125L246.86879 311.0125L246.86879 316.15314L248.07191 316.15314L248.07191 316.91876ZM245.74379 316.15314L245.74379 312.3094L242.58754 316.15314L245.74379 316.15314Z" fill-rule="nonzero"/><path fill="#071924" d="M276.46814 317.45L270.96814 317.45L270.96814 316.65314Q271.1244 316.46564 271.40564 316.2469Q271.6869 316.0125 272.0775 315.7625Q272.3119 315.59064 272.64 315.40314Q272.96814 315.21564 273.39 314.9969Q273.84314 314.7469 274.09314 314.5594Q274.34314 314.3719 274.54626 314.10626Q274.6869 313.91876 274.765 313.65314Q274.85876 313.3719 274.85876 312.8719Q274.85876 312.1375 274.4525 311.79376Q274.0619 311.45 273.4525 311.45Q273.0775 311.45 272.73376 311.60626Q272.39 311.7469 272.21814 312.0125Q272.265 312.2 272.3275 312.46564Q272.39 312.71564 272.39 312.96564Q272.39 313.1844 272.2025 313.35626Q272.015 313.52814 271.65564 313.52814Q271.35876 313.52814 271.2025 313.34064Q271.04626 313.1375 271.04626 312.79376Q271.04626 312.48126 271.21814 312.16876Q271.39 311.84064 271.71814 311.5594Q272.04626 311.3094 272.515 311.15314Q272.9994 310.98126 273.54626 310.98126Q274.7494 310.98126 275.4525 311.5125Q276.15564 312.04376 276.15564 312.95Q276.15564 313.3719 276.03064 313.73126Q275.90564 314.075 275.6244 314.34064Q275.3119 314.6375 274.89 314.85626Q274.48376 315.075 273.6244 315.45Q273.1244 315.6844 272.67126 315.9344Q272.23376 316.1844 271.9525 316.41876L276.46814 316.41876L276.46814 317.45ZM282.265 314.7Q282.65564 315.0125 282.90564 315.4969Q283.17126 315.96564 283.17126 316.6844Q283.17126 317.95 282.29626 318.7625Q281.4369 319.59064 280.1244 319.59064Q279.09314 319.59064 278.3744 319.10626Q277.67126 318.6219 277.67126 317.96564Q277.67126 317.66876 277.8119 317.45Q277.96814 317.23126 278.265 317.23126Q278.6244 317.23126 278.8119 317.41876Q278.9994 317.59064 278.9994 317.8094Q278.9994 317.9969 278.92126 318.27814Q278.85876 318.5594 278.8275 318.7Q278.8744 318.7469 278.98376 318.8094Q279.09314 318.8875 279.23376 318.95Q279.39 319.0125 279.60876 319.0594Q279.8275 319.10626 280.1244 319.10626Q280.4994 319.10626 280.8275 318.95Q281.15564 318.8094 281.39 318.5125Q281.64 318.1844 281.765 317.7625Q281.89 317.34064 281.89 316.7Q281.89 315.8719 281.42126 315.325Q280.96814 314.77814 280.21814 314.77814Q279.7494 314.77814 279.34314 314.96564Q278.9369 315.1375 278.6244 315.54376L278.21814 315.3875L278.71814 311.16876L282.92126 311.16876L282.92126 312.2L279.2025 312.2L278.89 314.6844Q279.15564 314.4969 279.5775 314.325Q280.015 314.1375 280.53064 314.1375Q280.96814 314.1375 281.42126 314.27814Q281.8744 314.40314 282.265 314.7Z" fill-rule="nonzero"/><path fill="#071924" d="M311.08313 317.45L305.58313 317.45L305.58313 316.65314Q305.73938 316.46564 306.02063 316.2469Q306.30188 316.0125 306.6925 315.7625Q306.92688 315.59064 307.255 315.40314Q307.58313 315.21564 308.005 314.9969Q308.45813 314.7469 308.70813 314.5594Q308.95813 314.3719 309.16125 314.10626Q309.30188 313.91876 309.38 313.65314Q309.47375 313.3719 309.47375 312.8719Q309.47375 312.1375 309.0675 311.79376Q308.67688 311.45 308.0675 311.45Q307.6925 311.45 307.34875 311.60626Q307.005 311.7469 306.83313 312.0125Q306.88 312.2 306.9425 312.46564Q307.005 312.71564 307.005 312.96564Q307.005 313.1844 306.8175 313.35626Q306.63 313.52814 306.27063 313.52814Q305.97375 313.52814 305.8175 313.34064Q305.66125 313.1375 305.66125 312.79376Q305.66125 312.48126 305.83313 312.16876Q306.005 311.84064 306.33313 311.5594Q306.66125 311.3094 307.13 311.15314Q307.61438 310.98126 308.16125 310.98126Q309.36438 310.98126 310.0675 311.5125Q310.77063 312.04376 310.77063 312.95Q310.77063 313.3719 310.64563 313.73126Q310.52063 314.075 310.23938 314.34064Q309.92688 314.6375 309.505 314.85626Q309.09875 315.075 308.23938 315.45Q307.73938 315.6844 307.28625 315.9344Q306.84875 316.1844 306.5675 316.41876L311.08313 316.41876L311.08313 317.45ZM318.23938 314.7469Q318.23938 315.35626 318.02063 315.8875Q317.80188 316.41876 317.42688 316.79376Q317.005 317.23126 316.48938 317.4344Q315.97375 317.6375 315.41125 317.6375Q314.755 317.6375 314.22375 317.40314Q313.70813 317.15314 313.33313 316.71564Q312.95813 316.27814 312.755 315.6375Q312.55188 314.98126 312.55188 314.1844Q312.55188 312.09064 313.78625 310.65314Q315.03625 309.21564 317.13 308.9344L317.23938 309.45L316.70813 309.54376Q315.4425 309.96564 314.73938 310.84064Q314.05188 311.7 313.84875 312.9344Q314.34875 312.4969 314.83313 312.3094Q315.33313 312.1219 315.88 312.1219Q316.84875 312.1219 317.53625 312.8719Q318.23938 313.6219 318.23938 314.7469ZM316.97375 314.90314Q316.97375 313.95 316.53625 313.3875Q316.09875 312.8094 315.36438 312.8094Q314.92688 312.8094 314.55188 312.98126Q314.17688 313.1375 313.8175 313.52814Q313.8175 313.59064 313.80188 313.85626Q313.78625 314.10626 313.78625 314.2469Q313.78625 315.6219 314.23938 316.40314Q314.6925 317.16876 315.41125 317.16876Q316.11438 317.16876 316.53625 316.575Q316.97375 315.96564 316.97375 314.90314Z" fill-rule="nonzero"/><path fill="#071924" d="M346.69812 317.45L341.19812 317.45L341.19812 316.65314Q341.35437 316.46564 341.63562 316.2469Q341.91687 316.0125 342.3075 315.7625Q342.54187 315.59064 342.87 315.40314Q343.19812 315.21564 343.62 314.9969Q344.07312 314.7469 344.32312 314.5594Q344.57312 314.3719 344.77625 314.10626Q344.91687 313.91876 344.995 313.65314Q345.08875 313.3719 345.08875 312.8719Q345.08875 312.1375 344.6825 311.79376Q344.29187 311.45 343.6825 311.45Q343.3075 311.45 342.96375 311.60626Q342.62 311.7469 342.44812 312.0125Q342.495 312.2 342.5575 312.46564Q342.62 312.71564 342.62 312.96564Q342.62 313.1844 342.4325 313.35626Q342.245 313.52814 341.88562 313.52814Q341.58875 313.52814 341.4325 313.34064Q341.27625 313.1375 341.27625 312.79376Q341.27625 312.48126 341.44812 312.16876Q341.62 311.84064 341.94812 311.5594Q342.27625 311.3094 342.745 311.15314Q343.22937 310.98126 343.77625 310.98126Q344.97937 310.98126 345.6825 311.5125Q346.38562 312.04376 346.38562 312.95Q346.38562 313.3719 346.26062 313.73126Q346.13562 314.075 345.85437 314.34064Q345.54187 314.6375 345.12 314.85626Q344.71375 315.075 343.85437 315.45Q343.35437 315.6844 342.90125 315.9344Q342.46375 316.1844 342.1825 316.41876L346.69812 316.41876L346.69812 317.45ZM353.58875 311.54376L349.41687 319.59064L348.6825 319.59064L352.60437 312.15314L350.3075 312.15314Q349.79187 312.15314 349.51062 312.16876Q349.22937 312.16876 348.97937 312.2625Q348.8075 312.34064 348.65125 312.65314Q348.51062 312.96564 348.4325 313.46564L348.07312 313.46564L348.07312 311.16876L353.58875 311.16876L353.58875 311.54376Z" fill-rule="nonzero"/><path fill="#071924" d="M381.3131 317.45L375.8131 317.45L375.8131 316.65314Q375.96936 316.46564 376.2506 316.2469Q376.53186 316.0125 376.9225 315.7625Q377.15686 315.59064 377.485 315.40314Q377.8131 315.21564 378.235 314.9969Q378.6881 314.7469 378.9381 314.5594Q379.1881 314.3719 379.39124 314.10626Q379.53186 313.91876 379.61 313.65314Q379.70374 313.3719 379.70374 312.8719Q379.70374 312.1375 379.2975 311.79376Q378.90686 311.45 378.2975 311.45Q377.9225 311.45 377.57874 311.60626Q377.235 311.7469 377.0631 312.0125Q377.11 312.2 377.1725 312.46564Q377.235 312.71564 377.235 312.96564Q377.235 313.1844 377.0475 313.35626Q376.86 313.52814 376.5006 313.52814Q376.20374 313.52814 376.0475 313.34064Q375.89124 313.1375 375.89124 312.79376Q375.89124 312.48126 376.0631 312.16876Q376.235 311.84064 376.5631 311.5594Q376.89124 311.3094 377.36 311.15314Q377.84436 310.98126 378.39124 310.98126Q379.59436 310.98126 380.2975 311.5125Q381.0006 312.04376 381.0006 312.95Q381.0006 313.3719 380.8756 313.73126Q380.7506 314.075 380.46936 314.34064Q380.15686 314.6375 379.735 314.85626Q379.32874 315.075 378.46936 315.45Q377.96936 315.6844 377.51624 315.9344Q377.07874 316.1844 376.7975 316.41876L381.3131 316.41876L381.3131 317.45ZM388.71936 315.2469Q388.71936 316.23126 387.86 316.95Q387.01624 317.65314 385.64124 317.65314Q384.34436 317.65314 383.5631 316.9969Q382.78186 316.34064 382.78186 315.325Q382.78186 314.5594 383.235 314.0594Q383.70374 313.5594 384.61 313.2Q383.86 312.77814 383.485 312.29376Q383.1256 311.79376 383.1256 311.16876Q383.1256 310.2 383.9381 309.5594Q384.7506 308.91876 385.8756 308.91876Q387.0006 308.91876 387.70374 309.52814Q388.40686 310.1375 388.40686 311.0594Q388.40686 311.65314 388.01624 312.1844Q387.64124 312.71564 386.89124 313.04376Q387.86 313.46564 388.28186 313.96564Q388.71936 314.46564 388.71936 315.2469ZM387.2975 310.9969Q387.2975 310.27814 386.8756 309.84064Q386.45374 309.3875 385.78186 309.3875Q385.1256 309.3875 384.70374 309.825Q384.28186 310.2469 384.28186 310.8875Q384.28186 311.4969 384.76624 311.9344Q385.2506 312.35626 386.46936 312.84064Q386.90686 312.5594 387.09436 312.10626Q387.2975 311.6375 387.2975 310.9969ZM387.5475 315.52814Q387.5475 315.15314 387.39124 314.8719Q387.235 314.59064 386.9381 314.3719Q386.64124 314.1375 386.1256 313.90314Q385.6256 313.65314 385.01624 313.40314Q384.45374 313.71564 384.1881 314.1844Q383.9381 314.65314 383.9381 315.2625Q383.9381 316.1219 384.4381 316.65314Q384.9381 317.1844 385.78186 317.1844Q386.59436 317.1844 387.0631 316.71564Q387.5475 316.2469 387.5475 315.52814Z" fill-rule="nonzero"/><path fill="#071924" d="M413.14682 319.59064Q412.58432 319.59064 412.1312 319.45Q411.67807 319.3094 411.34995 319.075Q411.02182 318.84064 410.83432 318.52814Q410.66245 318.23126 410.66245 317.91876Q410.66245 317.6219 410.80307 317.40314Q410.9437 317.16876 411.2562 317.16876Q411.59995 317.16876 411.78745 317.34064Q411.97495 317.5125 411.97495 317.73126Q411.97495 317.91876 411.91245 318.2Q411.84995 318.4969 411.8187 318.6219Q411.86557 318.66876 411.95932 318.7469Q412.0687 318.84064 412.24057 318.91876Q412.42807 318.9969 412.6312 319.04376Q412.83432 319.10626 413.20932 319.10626Q413.55307 319.10626 413.8812 318.98126Q414.20932 318.8719 414.45932 318.6219Q414.70932 318.34064 414.84995 317.98126Q415.0062 317.6219 415.0062 317.04376Q415.0062 316.71564 414.92807 316.41876Q414.86557 316.10626 414.67807 315.8719Q414.5062 315.6375 414.1937 315.5125Q413.8812 315.3875 413.39682 315.3875L412.6312 315.3875L412.6312 314.71564L413.1312 314.71564Q413.9437 314.71564 414.30307 314.27814Q414.66245 313.825 414.66245 312.9344Q414.66245 312.2 414.3187 311.825Q413.97495 311.45 413.33432 311.45Q413.03745 311.45 412.83432 311.52814Q412.6312 311.60626 412.52182 311.66876Q412.36557 311.7469 412.27182 311.85626Q412.17807 311.95 412.1312 311.9969Q412.17807 312.1844 412.22495 312.46564Q412.28745 312.73126 412.28745 312.98126Q412.28745 313.2 412.09995 313.3719Q411.92807 313.54376 411.5687 313.54376Q411.2562 313.54376 411.11557 313.325Q410.97495 313.09064 410.97495 312.8094Q410.97495 312.4969 411.1312 312.1844Q411.30307 311.8719 411.64682 311.59064Q411.97495 311.3094 412.45932 311.15314Q412.9437 310.98126 413.5687 310.98126Q414.28745 310.98126 414.7562 311.2Q415.22495 311.40314 415.49057 311.7Q415.7562 312.0125 415.84995 312.34064Q415.95932 312.66876 415.95932 312.90314Q415.95932 313.1844 415.8812 313.48126Q415.80307 313.77814 415.61557 314.02814Q415.39682 314.3094 415.05307 314.54376Q414.72495 314.7625 414.22495 314.90314L414.22495 314.9969Q414.55307 315.02814 414.91245 315.15314Q415.28745 315.2625 415.58432 315.48126Q415.89682 315.73126 416.09995 316.10626Q416.30307 316.48126 416.30307 317.0594Q416.30307 318.1844 415.39682 318.8875Q414.49057 319.59064 413.14682 319.59064ZM423.30307 311.98126Q423.67807 312.4344 423.86557 313.04376Q424.05307 313.6375 424.05307 314.3094Q424.05307 315.10626 423.8187 315.73126Q423.59995 316.35626 423.1937 316.77814Q422.78745 317.2 422.22495 317.41876Q421.66245 317.6375 420.97495 317.6375Q420.20932 317.6375 419.61557 317.3875Q419.02182 317.1375 418.66245 316.7Q418.27182 316.23126 418.08432 315.6219Q417.89682 315.0125 417.89682 314.3094Q417.89682 313.60626 418.0687 313.02814Q418.2562 312.4344 418.64682 311.96564Q419.02182 311.4969 419.61557 311.2469Q420.20932 310.98126 420.97495 310.98126Q421.77182 310.98126 422.34995 311.2469Q422.92807 311.5125 423.30307 311.98126ZM422.7562 314.3094Q422.7562 312.90314 422.27182 312.1375Q421.80307 311.3719 420.97495 311.3719Q420.14682 311.3719 419.66245 312.1375Q419.1937 312.90314 419.1937 314.3094Q419.1937 315.6219 419.64682 316.4344Q420.09995 317.23126 420.97495 317.23126Q421.83432 317.23126 422.28745 316.4344Q422.7562 315.6219 422.7562 314.3094Z" fill-rule="nonzero"/><path fill="#071924" d="M449.2618 319.59064Q448.6993 319.59064 448.2462 319.45Q447.79306 319.3094 447.46494 319.075Q447.1368 318.84064 446.9493 318.52814Q446.77744 318.23126 446.77744 317.91876Q446.77744 317.6219 446.91806 317.40314Q447.0587 317.16876 447.3712 317.16876Q447.71494 317.16876 447.90244 317.34064Q448.08994 317.5125 448.08994 317.73126Q448.08994 317.91876 448.02744 318.2Q447.96494 318.4969 447.9337 318.6219Q447.98056 318.66876 448.0743 318.7469Q448.1837 318.84064 448.35556 318.91876Q448.54306 318.9969 448.7462 319.04376Q448.9493 319.10626 449.3243 319.10626Q449.66806 319.10626 449.9962 318.98126Q450.3243 318.8719 450.5743 318.6219Q450.8243 318.34064 450.96494 317.98126Q451.1212 317.6219 451.1212 317.04376Q451.1212 316.71564 451.04306 316.41876Q450.98056 316.10626 450.79306 315.8719Q450.6212 315.6375 450.3087 315.5125Q449.9962 315.3875 449.5118 315.3875L448.7462 315.3875L448.7462 314.71564L449.2462 314.71564Q450.0587 314.71564 450.41806 314.27814Q450.77744 313.825 450.77744 312.9344Q450.77744 312.2 450.4337 311.825Q450.08994 311.45 449.4493 311.45Q449.15244 311.45 448.9493 311.52814Q448.7462 311.60626 448.6368 311.66876Q448.48056 311.7469 448.3868 311.85626Q448.29306 311.95 448.2462 311.9969Q448.29306 312.1844 448.33994 312.46564Q448.40244 312.73126 448.40244 312.98126Q448.40244 313.2 448.21494 313.3719Q448.04306 313.54376 447.6837 313.54376Q447.3712 313.54376 447.23056 313.325Q447.08994 313.09064 447.08994 312.8094Q447.08994 312.4969 447.2462 312.1844Q447.41806 311.8719 447.7618 311.59064Q448.08994 311.3094 448.5743 311.15314Q449.0587 310.98126 449.6837 310.98126Q450.40244 310.98126 450.8712 311.2Q451.33994 311.40314 451.60556 311.7Q451.8712 312.0125 451.96494 312.34064Q452.0743 312.66876 452.0743 312.90314Q452.0743 313.1844 451.9962 313.48126Q451.91806 313.77814 451.73056 314.02814Q451.5118 314.3094 451.16806 314.54376Q450.83994 314.7625 450.33994 314.90314L450.33994 314.9969Q450.66806 315.02814 451.02744 315.15314Q451.40244 315.2625 451.6993 315.48126Q452.0118 315.73126 452.21494 316.10626Q452.41806 316.48126 452.41806 317.0594Q452.41806 318.1844 451.5118 318.8875Q450.60556 319.59064 449.2618 319.59064ZM458.1368 317.45L454.1993 317.45L454.1993 317.02814Q454.3712 317.02814 454.7462 316.9969Q455.1212 316.95 455.2618 316.90314Q455.4337 316.84064 455.52744 316.71564Q455.6368 316.575 455.6368 316.325L455.6368 312.2L454.16806 312.2L454.16806 311.71564L454.4962 311.71564Q455.1212 311.71564 455.6212 311.48126Q456.1212 311.2469 456.33994 310.98126L456.8243 310.98126Q456.8087 311.35626 456.79306 311.8719Q456.77744 312.3719 456.77744 312.77814L456.77744 316.2469Q456.77744 316.46564 456.8712 316.6219Q456.96494 316.77814 457.1368 316.85626Q457.27744 316.91876 457.6212 316.98126Q457.98056 317.02814 458.1368 317.02814L458.1368 317.45Z" fill-rule="nonzero"/><path fill="#071924" d="M483.8768 319.59064Q483.3143 319.59064 482.86118 319.45Q482.40805 319.3094 482.07993 319.075Q481.7518 318.84064 481.5643 318.52814Q481.39243 318.23126 481.39243 317.91876Q481.39243 317.6219 481.53305 317.40314Q481.67368 317.16876 481.98618 317.16876Q482.32993 317.16876 482.51743 317.34064Q482.70493 317.5125 482.70493 317.73126Q482.70493 317.91876 482.64243 318.2Q482.57993 318.4969 482.54868 318.6219Q482.59555 318.66876 482.6893 318.7469Q482.79868 318.84064 482.97055 318.91876Q483.15805 318.9969 483.36118 319.04376Q483.5643 319.10626 483.9393 319.10626Q484.28305 319.10626 484.61118 318.98126Q484.9393 318.8719 485.1893 318.6219Q485.4393 318.34064 485.57993 317.98126Q485.73618 317.6219 485.73618 317.04376Q485.73618 316.71564 485.65805 316.41876Q485.59555 316.10626 485.40805 315.8719Q485.23618 315.6375 484.92368 315.5125Q484.61118 315.3875 484.1268 315.3875L483.36118 315.3875L483.36118 314.71564L483.86118 314.71564Q484.67368 314.71564 485.03305 314.27814Q485.39243 313.825 485.39243 312.9344Q485.39243 312.2 485.04868 311.825Q484.70493 311.45 484.0643 311.45Q483.76743 311.45 483.5643 311.52814Q483.36118 311.60626 483.2518 311.66876Q483.09555 311.7469 483.0018 311.85626Q482.90805 311.95 482.86118 311.9969Q482.90805 312.1844 482.95493 312.46564Q483.01743 312.73126 483.01743 312.98126Q483.01743 313.2 482.82993 313.3719Q482.65805 313.54376 482.29868 313.54376Q481.98618 313.54376 481.84555 313.325Q481.70493 313.09064 481.70493 312.8094Q481.70493 312.4969 481.86118 312.1844Q482.03305 311.8719 482.3768 311.59064Q482.70493 311.3094 483.1893 311.15314Q483.67368 310.98126 484.29868 310.98126Q485.01743 310.98126 485.48618 311.2Q485.95493 311.40314 486.22055 311.7Q486.48618 312.0125 486.57993 312.34064Q486.6893 312.66876 486.6893 312.90314Q486.6893 313.1844 486.61118 313.48126Q486.53305 313.77814 486.34555 314.02814Q486.1268 314.3094 485.78305 314.54376Q485.45493 314.7625 484.95493 314.90314L484.95493 314.9969Q485.28305 315.02814 485.64243 315.15314Q486.01743 315.2625 486.3143 315.48126Q486.6268 315.73126 486.82993 316.10626Q487.03305 316.48126 487.03305 317.0594Q487.03305 318.1844 486.1268 318.8875Q485.22055 319.59064 483.8768 319.59064ZM492.95493 314.7Q493.34555 315.0125 493.59555 315.4969Q493.86118 315.96564 493.86118 316.6844Q493.86118 317.95 492.98618 318.7625Q492.1268 319.59064 490.8143 319.59064Q489.78305 319.59064 489.0643 319.10626Q488.36118 318.6219 488.36118 317.96564Q488.36118 317.66876 488.5018 317.45Q488.65805 317.23126 488.95493 317.23126Q489.3143 317.23126 489.5018 317.41876Q489.6893 317.59064 489.6893 317.8094Q489.6893 317.9969 489.61118 318.27814Q489.54868 318.5594 489.51743 318.7Q489.5643 318.7469 489.67368 318.8094Q489.78305 318.8875 489.92368 318.95Q490.07993 319.0125 490.29868 319.0594Q490.51743 319.10626 490.8143 319.10626Q491.1893 319.10626 491.51743 318.95Q491.84555 318.8094 492.07993 318.5125Q492.32993 318.1844 492.45493 317.7625Q492.57993 317.34064 492.57993 316.7Q492.57993 315.8719 492.11118 315.325Q491.65805 314.77814 490.90805 314.77814Q490.4393 314.77814 490.03305 314.96564Q489.6268 315.1375 489.3143 315.54376L488.90805 315.3875L489.40805 311.16876L493.61118 311.16876L493.61118 312.2L489.89243 312.2L489.57993 314.6844Q489.84555 314.4969 490.26743 314.325Q490.70493 314.1375 491.22055 314.1375Q491.65805 314.1375 492.11118 314.27814Q492.5643 314.40314 492.95493 314.7Z" fill-rule="nonzero"/><path fill="#071924" d="M518.49176 319.59064Q517.92926 319.59064 517.47614 319.45Q517.023 319.3094 516.6949 319.075Q516.36676 318.84064 516.17926 318.52814Q516.0074 318.23126 516.0074 317.91876Q516.0074 317.6219 516.148 317.40314Q516.28864 317.16876 516.60114 317.16876Q516.9449 317.16876 517.1324 317.34064Q517.3199 317.5125 517.3199 317.73126Q517.3199 317.91876 517.2574 318.2Q517.1949 318.4969 517.16364 318.6219Q517.2105 318.66876 517.30426 318.7469Q517.41364 318.84064 517.5855 318.91876Q517.773 318.9969 517.97614 319.04376Q518.17926 319.10626 518.55426 319.10626Q518.898 319.10626 519.22614 318.98126Q519.55426 318.8719 519.80426 318.6219Q520.05426 318.34064 520.1949 317.98126Q520.35114 317.6219 520.35114 317.04376Q520.35114 316.71564 520.273 316.41876Q520.2105 316.10626 520.023 315.8719Q519.85114 315.6375 519.53864 315.5125Q519.22614 315.3875 518.74176 315.3875L517.97614 315.3875L517.97614 314.71564L518.47614 314.71564Q519.28864 314.71564 519.648 314.27814Q520.0074 313.825 520.0074 312.9344Q520.0074 312.2 519.66364 311.825Q519.3199 311.45 518.67926 311.45Q518.3824 311.45 518.17926 311.52814Q517.97614 311.60626 517.86676 311.66876Q517.7105 311.7469 517.61676 311.85626Q517.523 311.95 517.47614 311.9969Q517.523 312.1844 517.5699 312.46564Q517.6324 312.73126 517.6324 312.98126Q517.6324 313.2 517.4449 313.3719Q517.273 313.54376 516.91364 313.54376Q516.60114 313.54376 516.4605 313.325Q516.3199 313.09064 516.3199 312.8094Q516.3199 312.4969 516.47614 312.1844Q516.648 311.8719 516.99176 311.59064Q517.3199 311.3094 517.80426 311.15314Q518.28864 310.98126 518.91364 310.98126Q519.6324 310.98126 520.10114 311.2Q520.5699 311.40314 520.8355 311.7Q521.10114 312.0125 521.1949 312.34064Q521.30426 312.66876 521.30426 312.90314Q521.30426 313.1844 521.22614 313.48126Q521.148 313.77814 520.9605 314.02814Q520.74176 314.3094 520.398 314.54376Q520.0699 314.7625 519.5699 314.90314L519.5699 314.9969Q519.898 315.02814 520.2574 315.15314Q520.6324 315.2625 520.92926 315.48126Q521.24176 315.73126 521.4449 316.10626Q521.648 316.48126 521.648 317.0594Q521.648 318.1844 520.74176 318.8875Q519.8355 319.59064 518.49176 319.59064ZM529.17926 315.2469Q529.17926 316.23126 528.3199 316.95Q527.47614 317.65314 526.10114 317.65314Q524.80426 317.65314 524.023 316.9969Q523.24176 316.34064 523.24176 315.325Q523.24176 314.5594 523.6949 314.0594Q524.16364 313.5594 525.0699 313.2Q524.3199 312.77814 523.9449 312.29376Q523.5855 311.79376 523.5855 311.16876Q523.5855 310.2 524.398 309.5594Q525.2105 308.91876 526.3355 308.91876Q527.4605 308.91876 528.16364 309.52814Q528.86676 310.1375 528.86676 311.0594Q528.86676 311.65314 528.47614 312.1844Q528.10114 312.71564 527.35114 313.04376Q528.3199 313.46564 528.74176 313.96564Q529.17926 314.46564 529.17926 315.2469ZM527.7574 310.9969Q527.7574 310.27814 527.3355 309.84064Q526.91364 309.3875 526.24176 309.3875Q525.5855 309.3875 525.16364 309.825Q524.74176 310.2469 524.74176 310.8875Q524.74176 311.4969 525.22614 311.9344Q525.7105 312.35626 526.92926 312.84064Q527.36676 312.5594 527.55426 312.10626Q527.7574 311.6375 527.7574 310.9969ZM528.0074 315.52814Q528.0074 315.15314 527.85114 314.8719Q527.6949 314.59064 527.398 314.3719Q527.10114 314.1375 526.5855 313.90314Q526.0855 313.65314 525.47614 313.40314Q524.91364 313.71564 524.648 314.1844Q524.398 314.65314 524.398 315.2625Q524.398 316.1219 524.898 316.65314Q525.398 317.1844 526.24176 317.1844Q527.05426 317.1844 527.523 316.71564Q528.0074 316.2469 528.0074 315.52814Z" fill-rule="nonzero"/><path fill="#071924" d="M556.1849 314.7Q556.5755 315.0125 556.8255 315.4969Q557.0911 315.96564 557.0911 316.6844Q557.0911 317.95 556.2161 318.7625Q555.35675 319.59064 554.04425 319.59064Q553.013 319.59064 552.29425 319.10626Q551.5911 318.6219 551.5911 317.96564Q551.5911 317.66876 551.73175 317.45Q551.888 317.23126 552.1849 317.23126Q552.54425 317.23126 552.73175 317.41876Q552.91925 317.59064 552.91925 317.8094Q552.91925 317.9969 552.8411 318.27814Q552.7786 318.5594 552.7474 318.7Q552.79425 318.7469 552.9036 318.8094Q553.013 318.8875 553.1536 318.95Q553.3099 319.0125 553.5286 319.0594Q553.7474 319.10626 554.04425 319.10626Q554.41925 319.10626 554.7474 318.95Q555.0755 318.8094 555.3099 318.5125Q555.5599 318.1844 555.6849 317.7625Q555.8099 317.34064 555.8099 316.7Q555.8099 315.8719 555.3411 315.325Q554.888 314.77814 554.138 314.77814Q553.66925 314.77814 553.263 314.96564Q552.85675 315.1375 552.54425 315.54376L552.138 315.3875L552.638 311.16876L556.8411 311.16876L556.8411 312.2L553.1224 312.2L552.8099 314.6844Q553.0755 314.4969 553.4974 314.325Q553.9349 314.1375 554.4505 314.1375Q554.888 314.1375 555.3411 314.27814Q555.79425 314.40314 556.1849 314.7ZM563.388 317.45L557.888 317.45L557.888 316.65314Q558.04425 316.46564 558.3255 316.2469Q558.60675 316.0125 558.9974 315.7625Q559.23175 315.59064 559.5599 315.40314Q559.888 315.21564 560.3099 314.9969Q560.763 314.7469 561.013 314.5594Q561.263 314.3719 561.4661 314.10626Q561.60675 313.91876 561.6849 313.65314Q561.7786 313.3719 561.7786 312.8719Q561.7786 312.1375 561.3724 311.79376Q560.98175 311.45 560.3724 311.45Q559.9974 311.45 559.6536 311.60626Q559.3099 311.7469 559.138 312.0125Q559.1849 312.2 559.2474 312.46564Q559.3099 312.71564 559.3099 312.96564Q559.3099 313.1844 559.1224 313.35626Q558.9349 313.52814 558.5755 313.52814Q558.2786 313.52814 558.1224 313.34064Q557.9661 313.1375 557.9661 312.79376Q557.9661 312.48126 558.138 312.16876Q558.3099 311.84064 558.638 311.5594Q558.9661 311.3094 559.4349 311.15314Q559.91925 310.98126 560.4661 310.98126Q561.66925 310.98126 562.3724 311.5125Q563.0755 312.04376 563.0755 312.95Q563.0755 313.3719 562.9505 313.73126Q562.8255 314.075 562.54425 314.34064Q562.23175 314.6375 561.8099 314.85626Q561.4036 315.075 560.54425 315.45Q560.04425 315.6844 559.5911 315.9344Q559.1536 316.1844 558.8724 316.41876L563.388 316.41876L563.388 317.45Z" fill-rule="nonzero"/><path fill="#798389" d="M32.425 37.55L26.659374 37.55L26.659374 36.8625Q27.425 36.8 27.925 36.659374Q28.425 36.51875 28.425 36.3Q28.425 36.20625 28.39375 36.08125Q28.378124 35.95625 28.346874 35.8625L27.190624 32.753124L22.346874 32.753124Q22.065624 33.440624 21.89375 33.95625Q21.721874 34.45625 21.58125 34.878124Q21.45625 35.3 21.409374 35.565624Q21.3625 35.83125 21.3625 36.003124Q21.3625 36.39375 21.971874 36.6125Q22.596874 36.815624 23.3625 36.8625L23.3625 37.55L18.14375 37.55L18.14375 36.8625Q18.409374 36.83125 18.784374 36.7375Q19.159374 36.64375 19.409374 36.4875Q19.8 36.2375 20.01875 35.95625Q20.2375 35.659374 20.440624 35.14375Q21.4875 32.534374 22.7375 29.284374Q24.003124 26.034374 24.9875 23.503124L25.76875 23.503124L30.39375 35.45625Q30.534374 35.83125 30.721874 36.065624Q30.909374 36.3 31.2375 36.51875Q31.45625 36.659374 31.815624 36.753124Q32.190624 36.846874 32.425 36.8625L32.425 37.55ZM26.846874 31.878124L24.7375 26.51875L22.675 31.878124L26.846874 31.878124ZM40.503124 36.55Q40.89375 36.925 41.1125 37.39375Q41.346874 37.8625 41.346874 38.55Q41.346874 39.253124 41.034374 39.8625Q40.7375 40.471874 40.128124 40.925Q39.471874 41.378124 38.565624 41.628124Q37.659374 41.89375 36.315624 41.89375Q34.128124 41.89375 33.034374 41.253124Q31.95625 40.6125 31.95625 39.378124Q31.95625 38.378124 32.7375 37.8Q33.51875 37.221874 34.7375 37.175L34.7375 37.034374Q34.440624 36.95625 34.128124 36.83125Q33.815624 36.690624 33.596874 36.51875Q33.33125 36.315624 33.175 36.034374Q33.01875 35.753124 33.01875 35.346874Q33.01875 34.83125 33.378124 34.39375Q33.753124 33.95625 34.503124 33.64375L34.503124 33.503124Q33.565624 33.05 33.05 32.3625Q32.534374 31.675 32.534374 30.76875Q32.534374 29.409374 33.55 28.534374Q34.565624 27.64375 36.159374 27.64375Q36.596874 27.64375 37.034374 27.7375Q37.471874 27.815624 37.925 27.95625L41.284374 27.95625L41.284374 28.89375L39.01875 28.89375L39.01875 28.95625Q39.378124 29.378124 39.55 29.89375Q39.721874 30.39375 39.721874 30.878124Q39.721874 32.14375 38.690624 33.034374Q37.659374 33.909374 36.3 33.909374L35.1125 33.909374Q34.89375 33.9875 34.64375 34.190624Q34.409374 34.39375 34.409374 34.753124Q34.409374 35.1125 34.6125 35.3Q34.815624 35.4875 35.1125 35.55Q35.39375 35.628124 35.76875 35.659374Q36.14375 35.675 36.534374 35.690624Q36.971874 35.690624 37.721874 35.7375Q38.471874 35.784374 38.784374 35.8Q39.221874 35.815624 39.675 36.01875Q40.128124 36.20625 40.503124 36.55ZM37.8625 30.846874Q37.8625 29.690624 37.39375 29.01875Q36.940624 28.346874 36.096874 28.346874Q35.64375 28.346874 35.315624 28.534374Q34.9875 28.721874 34.784374 29.065624Q34.58125 29.39375 34.503124 29.846874Q34.425 30.3 34.425 30.784374Q34.425 31.8625 34.89375 32.55Q35.3625 33.2375 36.128124 33.2375Q36.95625 33.2375 37.409374 32.565624Q37.8625 31.878124 37.8625 30.846874ZM39.7375 38.925Q39.7375 38.378124 39.4875 38.01875Q39.2375 37.675 38.721874 37.534374Q38.440624 37.503124 37.596874 37.45625Q36.753124 37.409374 35.628124 37.409374Q34.565624 37.6125 34.1125 38.096874Q33.675 38.58125 33.675 39.33125Q33.675 39.675 33.815624 39.9875Q33.971874 40.3 34.33125 40.565624Q34.675 40.815624 35.253124 40.971874Q35.83125 41.14375 36.659374 41.14375Q38.096874 41.14375 38.909374 40.58125Q39.7375 40.034374 39.7375 38.925ZM50.815624 35.284374Q50.20625 36.440624 49.190624 37.128124Q48.175 37.8 46.846874 37.8Q45.690624 37.8 44.815624 37.39375Q43.940624 36.9875 43.378124 36.284374Q42.815624 35.58125 42.534374 34.64375Q42.253124 33.70625 42.253124 32.659374Q42.253124 31.721874 42.55 30.815624Q42.846874 29.909374 43.425 29.190624Q43.9875 28.503124 44.8 28.08125Q45.628124 27.64375 46.659374 27.64375Q47.70625 27.64375 48.45625 27.9875Q49.221874 28.315624 49.690624 28.89375Q50.128124 29.440624 50.346874 30.190624Q50.58125 30.925 50.58125 31.784374L50.58125 32.425L44.190624 32.425Q44.190624 33.378124 44.378124 34.159374Q44.565624 34.925 44.95625 35.503124Q45.33125 36.08125 45.940624 36.409374Q46.565624 36.721874 47.409374 36.721874Q48.284374 36.721874 48.909374 36.33125Q49.534374 35.925 50.128124 34.8625L50.815624 35.284374ZM48.64375 31.6125Q48.64375 31.065624 48.55 30.440624Q48.471874 29.815624 48.253124 29.39375Q48.034374 28.940624 47.64375 28.659374Q47.253124 28.378124 46.64375 28.378124Q45.6125 28.378124 44.925 29.2375Q44.253124 30.08125 44.190624 31.6125L48.64375 31.6125ZM70.78438 30.70625Q70.78438 32.471874 70.1125 33.76875Q69.45625 35.065624 68.39375 35.89375Q67.31563 36.721874 65.97188 37.14375Q64.64375 37.55 63.20625 37.55L57.471874 37.55L57.471874 36.8625Q57.753124 36.8625 58.20625 36.815624Q58.659374 36.753124 58.8 36.675Q59.096874 36.55 59.221874 36.3Q59.3625 36.05 59.3625 35.70625L59.3625 25.70625Q59.3625 25.378124 59.253124 25.1125Q59.14375 24.846874 58.8 24.690624Q58.503124 24.534374 58.14375 24.471874Q57.8 24.409374 57.55 24.378124L57.55 23.690624L63.596874 23.690624Q64.84688 23.690624 66.05 24.08125Q67.26875 24.45625 68.175 25.1125Q69.39375 25.9875 70.08125 27.39375Q70.78438 28.8 70.78438 30.70625ZM68.39375 30.690624Q68.39375 29.3 68.01875 28.175Q67.64375 27.034374 66.925 26.20625Q66.25313 25.39375 65.26875 24.940624Q64.3 24.4875 63.096874 24.4875Q62.690624 24.4875 62.190624 24.503124Q61.690624 24.51875 61.440624 24.51875L61.440624 35.175Q61.440624 36.065624 61.95625 36.409374Q62.471874 36.753124 63.55 36.753124Q64.8 36.753124 65.72188 36.315624Q66.64375 35.8625 67.22188 35.08125Q67.83125 34.26875 68.1125 33.190624Q68.39375 32.1125 68.39375 30.690624ZM76.925 37.55L72.26875 37.55L72.26875 36.909374Q72.50313 36.878124 72.7375 36.8625Q72.97188 36.846874 73.15938 36.784374Q73.425 36.70625 73.55 36.4875Q73.69063 36.253124 73.69063 35.909374L73.69063 29.95625Q73.69063 29.64375 73.55 29.39375Q73.40938 29.128124 73.15938 28.95625Q72.97188 28.83125 72.6125 28.753124Q72.26875 28.675 71.97188 28.659374L71.97188 28.01875L75.3625 27.8L75.50313 27.940624L75.50313 35.784374Q75.50313 36.128124 75.62813 36.3625Q75.76875 36.58125 76.05 36.690624Q76.26875 36.784374 76.47188 36.83125Q76.675 36.878124 76.925 36.909374L76.925 37.55ZM75.70625 24.003124Q75.70625 24.565624 75.33125 24.9875Q74.97188 25.39375 74.425 25.39375Q73.94063 25.39375 73.56563 25.003124Q73.20625 24.596874 73.20625 24.096874Q73.20625 23.55 73.56563 23.159374Q73.94063 22.753124 74.425 22.753124Q74.9875 22.753124 75.34688 23.128124Q75.70625 23.503124 75.70625 24.003124ZM84.6125 32.83125Q85.01875 33.190624 85.22188 33.64375Q85.44063 34.096874 85.44063 34.76875Q85.44063 36.096874 84.44063 36.95625Q83.44063 37.8 81.84688 37.8Q81.00313 37.8 80.3 37.503124Q79.59688 37.190624 79.28438 36.940624L79.09688 37.58125L78.3625 37.58125L78.26875 34.221874L78.94063 34.221874Q79.01875 34.6125 79.26875 35.128124Q79.51875 35.628124 79.87813 36.034374Q80.26875 36.471874 80.8 36.76875Q81.33125 37.05 81.9875 37.05Q82.925 37.05 83.425 36.628124Q83.94063 36.20625 83.94063 35.409374Q83.94063 35.003124 83.78438 34.70625Q83.62813 34.409374 83.31563 34.175Q82.9875 33.95625 82.51875 33.784374Q82.05 33.596874 81.47188 33.425Q81.01875 33.284374 80.45625 33.05Q79.89375 32.8 79.4875 32.4875Q79.06563 32.14375 78.78438 31.64375Q78.51875 31.14375 78.51875 30.471874Q78.51875 29.284374 79.39375 28.471874Q80.26875 27.64375 81.75313 27.64375Q82.31563 27.64375 82.90938 27.8Q83.50313 27.940624 83.8625 28.14375L84.09688 27.64375L84.8 27.64375L84.94063 30.7375L84.26875 30.7375Q84.06563 29.690624 83.37813 29.05Q82.70625 28.39375 81.7375 28.39375Q80.925 28.39375 80.47188 28.8Q80.01875 29.20625 80.01875 29.76875Q80.01875 30.20625 80.15938 30.503124Q80.31563 30.784374 80.6125 31.003124Q80.90938 31.190624 81.34688 31.3625Q81.8 31.534374 82.45625 31.753124Q83.09688 31.95625 83.65938 32.2375Q84.2375 32.503124 84.6125 32.83125ZM93.20625 37.128124Q92.56563 37.39375 92.00313 37.565624Q91.44063 37.753124 90.6125 37.753124Q89.40938 37.753124 88.90938 37.14375Q88.40938 36.534374 88.40938 35.425L88.40938 28.89375L86.675 28.89375L86.675 27.95625L88.45625 27.95625L88.45625 24.95625L90.2375 24.95625L90.2375 27.95625L93.00313 27.95625L93.00313 28.89375L90.25313 28.89375L90.25313 34.284374Q90.25313 34.878124 90.3 35.284374Q90.34688 35.690624 90.50313 36.003124Q90.65938 36.284374 90.97188 36.425Q91.28438 36.565624 91.81563 36.565624Q92.06563 36.565624 92.53438 36.534374Q93.00313 36.4875 93.20625 36.409374L93.20625 37.128124ZM101.62813 29.159374Q101.62813 29.659374 101.37813 30.05Q101.14375 30.425 100.62813 30.425Q100.08125 30.425 99.78438 30.14375Q99.50313 29.8625 99.50313 29.51875Q99.50313 29.3 99.53438 29.128124Q99.58125 28.95625 99.6125 28.784374Q99.14375 28.784374 98.51875 29.159374Q97.90938 29.51875 97.4875 30.20625L97.4875 35.815624Q97.4875 36.159374 97.6125 36.378124Q97.75313 36.58125 98.03438 36.690624Q98.28438 36.784374 98.65938 36.83125Q99.05 36.878124 99.33125 36.909374L99.33125 37.55L94.25313 37.55L94.25313 36.909374Q94.47188 36.878124 94.70625 36.8625Q94.95625 36.846874 95.12813 36.784374Q95.40938 36.70625 95.53438 36.4875Q95.675 36.253124 95.675 35.909374L95.675 29.95625Q95.675 29.659374 95.53438 29.3625Q95.39375 29.065624 95.12813 28.89375Q94.94063 28.784374 94.69063 28.7375Q94.44063 28.675 94.14375 28.659374L94.14375 28.01875L97.34688 27.8L97.4875 27.940624L97.4875 29.3L97.53438 29.3Q98.14375 28.503124 98.87813 28.096874Q99.62813 27.690624 100.2375 27.690624Q100.8625 27.690624 101.2375 28.096874Q101.62813 28.4875 101.62813 29.159374ZM106.925 37.55L102.26875 37.55L102.26875 36.909374Q102.50313 36.878124 102.7375 36.8625Q102.97188 36.846874 103.15938 36.784374Q103.425 36.70625 103.55 36.4875Q103.69063 36.253124 103.69063 35.909374L103.69063 29.95625Q103.69063 29.64375 103.55 29.39375Q103.40938 29.128124 103.15938 28.95625Q102.97188 28.83125 102.6125 28.753124Q102.26875 28.675 101.97188 28.659374L101.97188 28.01875L105.3625 27.8L105.50313 27.940624L105.50313 35.784374Q105.50313 36.128124 105.62813 36.3625Q105.76875 36.58125 106.05 36.690624Q106.26875 36.784374 106.47188 36.83125Q106.675 36.878124 106.925 36.909374L106.925 37.55ZM105.70625 24.003124Q105.70625 24.565624 105.33125 24.9875Q104.97188 25.39375 104.425 25.39375Q103.94063 25.39375 103.56563 25.003124Q103.20625 24.596874 103.20625 24.096874Q103.20625 23.55 103.56563 23.159374Q103.94063 22.753124 104.425 22.753124Q104.9875 22.753124 105.34688 23.128124Q105.70625 23.503124 105.70625 24.003124ZM118.03438 32.721874Q118.03438 34.89375 116.65938 36.378124Q115.3 37.846874 113.4875 37.846874Q112.69063 37.846874 111.925 37.596874Q111.15938 37.346874 110.4875 36.940624L109.76875 38.065624L109.15938 37.925Q109.20625 37.20625 109.22188 36.190624Q109.25313 35.175 109.25313 34.221874L109.25313 24.690624Q109.25313 24.3625 109.09688 24.034374Q108.94063 23.70625 108.70625 23.55Q108.53438 23.425 108.09688 23.3625Q107.65938 23.3 107.39375 23.284374L107.39375 22.659374L110.925 22.425L111.06563 22.58125L111.06563 28.925L111.12813 28.940624Q111.7375 28.3 112.45625 27.9875Q113.175 27.659374 113.8625 27.659374Q115.64375 27.659374 116.83125 29.065624Q118.03438 30.471874 118.03438 32.721874ZM115.9875 32.8Q115.9875 32.065624 115.83125 31.315624Q115.675 30.565624 115.34688 30.003124Q115.01875 29.440624 114.47188 29.096874Q113.94063 28.7375 113.19063 28.7375Q112.50313 28.7375 111.9875 29.01875Q111.47188 29.284374 111.06563 29.7375L111.06563 35.346874Q111.12813 35.58125 111.3 35.89375Q111.47188 36.20625 111.75313 36.4875Q112.05 36.753124 112.425 36.925Q112.8 37.096874 113.33125 37.096874Q114.51875 37.096874 115.25313 35.95625Q115.9875 34.8 115.9875 32.8ZM129.58125 37.378124L126.44063 37.596874L126.3 37.45625L126.3 36.2375L126.2375 36.2375Q126.00313 36.471874 125.70625 36.753124Q125.40938 37.034374 125.03438 37.253124Q124.59688 37.51875 124.175 37.659374Q123.76875 37.8 123.01875 37.8Q121.7375 37.8 121.06563 36.971874Q120.40938 36.128124 120.40938 34.534374L120.40938 29.925Q120.40938 29.565624 120.26875 29.33125Q120.14375 29.096874 119.89375 28.909374Q119.70625 28.8 119.44063 28.753124Q119.19063 28.690624 118.89375 28.675L118.89375 28.034374L122.1125 27.8L122.25313 27.940624L122.25313 34.628124Q122.25313 35.675 122.72188 36.20625Q123.19063 36.721874 123.84688 36.721874Q124.37813 36.721874 124.8 36.565624Q125.22188 36.39375 125.50313 36.175Q125.76875 35.971874 125.97188 35.7375Q126.175 35.503124 126.26875 35.315624L126.26875 29.846874Q126.26875 29.534374 126.12813 29.284374Q126.00313 29.034374 125.75313 28.8625Q125.58125 28.7375 125.2375 28.721874Q124.89375 28.690624 124.45625 28.675L124.45625 28.034374L127.95625 27.8L128.09688 27.940624L128.09688 35.58125Q128.09688 35.925 128.2375 36.159374Q128.37813 36.39375 128.6125 36.55Q128.8 36.659374 129.03438 36.690624Q129.28438 36.721874 129.58125 36.7375L129.58125 37.378124ZM137.20625 37.128124Q136.56563 37.39375 136.00313 37.565624Q135.44063 37.753124 134.6125 37.753124Q133.40938 37.753124 132.90938 37.14375Q132.40938 36.534374 132.40938 35.425L132.40938 28.89375L130.675 28.89375L130.675 27.95625L132.45625 27.95625L132.45625 24.95625L134.2375 24.95625L134.2375 27.95625L137.00313 27.95625L137.00313 28.89375L134.25313 28.89375L134.25313 34.284374Q134.25313 34.878124 134.3 35.284374Q134.34688 35.690624 134.50313 36.003124Q134.65938 36.284374 134.97188 36.425Q135.28438 36.565624 135.81563 36.565624Q136.06563 36.565624 136.53438 36.534374Q137.00313 36.4875 137.20625 36.409374L137.20625 37.128124ZM142.925 37.55L138.26875 37.55L138.26875 36.909374Q138.50313 36.878124 138.7375 36.8625Q138.97188 36.846874 139.15938 36.784374Q139.425 36.70625 139.55 36.4875Q139.69063 36.253124 139.69063 35.909374L139.69063 29.95625Q139.69063 29.64375 139.55 29.39375Q139.40938 29.128124 139.15938 28.95625Q138.97188 28.83125 138.6125 28.753124Q138.26875 28.675 137.97188 28.659374L137.97188 28.01875L141.3625 27.8L141.50313 27.940624L141.50313 35.784374Q141.50313 36.128124 141.62813 36.3625Q141.76875 36.58125 142.05 36.690624Q142.26875 36.784374 142.47188 36.83125Q142.675 36.878124 142.925 36.909374L142.925 37.55ZM141.70625 24.003124Q141.70625 24.565624 141.33125 24.9875Q140.97188 25.39375 140.425 25.39375Q139.94063 25.39375 139.56563 25.003124Q139.20625 24.596874 139.20625 24.096874Q139.20625 23.55 139.56563 23.159374Q139.94063 22.753124 140.425 22.753124Q140.9875 22.753124 141.34688 23.128124Q141.70625 23.503124 141.70625 24.003124ZM153.64375 32.64375Q153.64375 33.659374 153.31563 34.64375Q152.9875 35.6125 152.39375 36.3Q151.72188 37.08125 150.83125 37.471874Q149.94063 37.846874 148.84688 37.846874Q147.925 37.846874 147.09688 37.503124Q146.26875 37.14375 145.62813 36.4875Q144.9875 35.83125 144.6125 34.89375Q144.2375 33.940624 144.2375 32.76875Q144.2375 30.51875 145.55 29.08125Q146.8625 27.64375 148.9875 27.64375Q151.01875 27.64375 152.33125 29.01875Q153.64375 30.378124 153.64375 32.64375ZM151.6125 32.659374Q151.6125 31.925 151.47188 31.1125Q151.33125 30.3 151.03438 29.721874Q150.72188 29.128124 150.20625 28.76875Q149.70625 28.39375 148.97188 28.39375Q148.22188 28.39375 147.69063 28.76875Q147.15938 29.128124 146.81563 29.76875Q146.50313 30.378124 146.37813 31.14375Q146.25313 31.89375 146.25313 32.6125Q146.25313 33.55 146.40938 34.346874Q146.56563 35.14375 146.89375 35.76875Q147.22188 36.39375 147.72188 36.753124Q148.22188 37.096874 148.97188 37.096874Q150.19063 37.096874 150.89375 35.925Q151.6125 34.7375 151.6125 32.659374ZM165.89375 37.55L161.175 37.55L161.175 36.909374Q161.39375 36.878124 161.65938 36.8625Q161.94063 36.846874 162.1125 36.784374Q162.37813 36.70625 162.50313 36.4875Q162.64375 36.253124 162.64375 35.909374L162.64375 30.95625Q162.64375 29.925 162.15938 29.378124Q161.675 28.815624 160.9875 28.815624Q160.47188 28.815624 160.03438 28.9875Q159.6125 29.14375 159.28438 29.378124Q158.95625 29.596874 158.76875 29.8625Q158.58125 30.1125 158.4875 30.26875L158.4875 35.815624Q158.4875 36.14375 158.6125 36.3625Q158.75313 36.565624 159.03438 36.690624Q159.2375 36.784374 159.47188 36.83125Q159.72188 36.878124 159.97188 36.909374L159.97188 37.55L155.25313 37.55L155.25313 36.909374Q155.47188 36.878124 155.70625 36.8625Q155.95625 36.846874 156.12813 36.784374Q156.40938 36.70625 156.53438 36.4875Q156.675 36.253124 156.675 35.909374L156.675 29.95625Q156.675 29.628124 156.53438 29.346874Q156.39375 29.065624 156.12813 28.89375Q155.94063 28.784374 155.69063 28.7375Q155.44063 28.675 155.14375 28.659374L155.14375 28.01875L158.34688 27.8L158.4875 27.940624L158.4875 29.3L158.53438 29.3Q158.76875 29.065624 159.1125 28.7375Q159.47188 28.409374 159.78438 28.20625Q160.14375 27.971874 160.64375 27.815624Q161.14375 27.659374 161.76875 27.659374Q163.15938 27.659374 163.81563 28.51875Q164.4875 29.378124 164.4875 30.815624L164.4875 35.83125Q164.4875 36.175 164.59688 36.39375Q164.72188 36.596874 165.00313 36.70625Q165.2375 36.8 165.40938 36.846874Q165.58125 36.878124 165.89375 36.909374L165.89375 37.55Z" fill-rule="nonzero"/></svg>