<svg version="1.1" viewBox="0.0 0.0 600.0 417.0" fill="none" stroke="none" stroke-linecap="square" stroke-miterlimit="10" width="600" height="417" xmlns:xlink="http://www.w3.org/1999/xlink" xmlns="http://www.w3.org/2000/svg"><path fill="#ffffff" d="M0 0L600.0 0L600.0 417.0L0 417.0L0 0Z" fill-rule="nonzero"/><path fill="#decec1" d="M331.85825 59.81075C338.1296 59.10414 344.43564 58.75 350.74667 58.75L350.74667 185.275C349.1689 185.275 347.5924 185.36354 346.02457 185.54019Z" fill-rule="nonzero"/><path fill="#e3bcb3" d="M313.2074 62.97966C319.36017 61.57533 325.5869 60.51736 331.85825 59.81075L346.02457 185.54019C344.45673 185.71684 342.90005 185.98134 341.36185 186.33241Z" fill-rule="nonzero"/><path fill="#99acb7" d="M295.0286 68.21688C300.98544 66.132484 307.0546 64.383995 313.2074 62.97966L341.36185 186.33241C339.82364 186.6835 338.30637 187.12062 336.81714 187.64172Z" fill-rule="nonzero"/><path fill="#9ad9e2" d="M277.55048 75.45655C283.2365 72.7183 289.07172 70.30128 295.0286 68.21688L336.81714 187.64172C335.32794 188.16283 333.86914 188.76707 332.44763 189.45164Z" fill-rule="nonzero"/><path fill="#f2e5d9" d="M260.99286 84.60763C266.33655 81.24996 271.86444 78.1948 277.55048 75.45655L332.44763 189.45164C331.02612 190.1362 329.64413 190.9 328.30823 191.73941Z" fill-rule="nonzero"/><path fill="#4db3a9" d="M245.56393 95.55503C250.4981 91.62017 255.64915 87.965294 260.99286 84.60763L328.30823 191.73941C326.9723 192.57883 325.6845 193.49254 324.451 194.47626Z" fill-rule="nonzero"/><path fill="#c6a992" d="M231.45775 108.16109C235.92032 103.69852 240.62978 99.48988 245.56393 95.55503L324.451 194.47626C323.21744 195.45998 322.04007 196.51213 320.92444 197.62778Z" fill-rule="nonzero"/><path fill="#cd897a" d="M218.8517 122.26727C222.78656 117.333115 226.9952 112.62365 231.45775 108.16109L320.92444 197.62778C319.8088 198.74341 318.75665 199.92078 317.77292 201.15431Z" fill-rule="nonzero"/><path fill="#4d6d80" d="M207.9043 137.69618C211.26196 132.3525 214.91684 127.20142 218.8517 122.26727L317.77292 201.15431C316.7892 202.38786 315.8755 203.67563 315.03607 205.01155Z" fill-rule="nonzero"/><path fill="#6fc8d6" d="M198.75322 154.25381C201.49147 148.56778 204.54663 143.03989 207.9043 137.69618L315.03607 205.01155C314.19666 206.34747 313.43286 207.72945 312.7483 209.15096Z" fill-rule="nonzero"/><path fill="#eddac9" d="M191.51355 171.73192C193.59795 165.77505 196.01497 159.93985 198.75322 154.25381L312.7483 209.15096C312.06375 210.57246 311.45947 212.03127 310.9384 213.52048Z" fill-rule="nonzero"/><path fill="#009384" d="M186.27632 189.91072C187.68066 183.75793 189.42915 177.68878 191.51355 171.73192L310.9384 213.52048C310.4173 215.0097 309.98016 216.52698 309.6291 218.06519Z" fill-rule="nonzero"/><path fill="#ad8463" d="M183.10742 208.5616C183.81403 202.29025 184.872 196.0635 186.27632 189.91072L309.6291 218.06519C309.27798 219.60338 309.01352 221.16006 308.83685 222.7279Z" fill-rule="nonzero"/><path fill="#b85741" d="M182.04666 227.45C182.04666 221.13898 182.4008 214.83293 183.10742 208.5616L308.83685 222.7279C308.6602 224.29573 308.57166 225.87224 308.57166 227.45Z" fill-rule="nonzero"/><path fill="#002f4a" d="M350.74667 58.75C443.9171 58.75 519.44666 134.27956 519.44666 227.45C519.44666 320.62042 443.9171 396.15 350.74667 396.15C257.57623 396.15 182.04666 320.62042 182.04666 227.45L308.57166 227.45C308.57166 250.74261 327.45407 269.625 350.74667 269.625C374.03928 269.625 392.92166 250.74261 392.92166 227.45C392.92166 204.1574 374.03928 185.275 350.74667 185.275Z" fill-rule="nonzero"/><path fill="#ffffff" d="M400.43048 312.60254L400.43048 310.1963L396.0711 310.1963L396.0711 309.0713L400.64923 302.5869L401.64923 302.5869L401.64923 309.0713L403.0086 309.0713L403.0086 310.1963L401.64923 310.1963L401.64923 312.60254L400.43048 312.60254ZM400.43048 309.0713L400.43048 304.55566L397.28986 309.0713L400.43048 309.0713ZM410.9461 311.41504L410.9461 312.60254L404.3211 312.60254Q404.30548 312.16504 404.46173 311.74316Q404.72736 311.0713 405.27423 310.41504Q405.83673 309.7588 406.8836 308.8994Q408.52423 307.55566 409.08673 306.7744Q409.66486 305.99316 409.66486 305.29004Q409.66486 304.55566 409.1336 304.05566Q408.61798 303.55566 407.78986 303.55566Q406.89923 303.55566 406.35236 304.0869Q405.8211 304.61816 405.8211 305.5713L404.55548 305.43066Q404.68048 304.0244 405.52423 303.29004Q406.3836 302.54004 407.80548 302.54004Q409.2586 302.54004 410.08673 303.3369Q410.93048 304.1338 410.93048 305.3213Q410.93048 305.93066 410.68048 306.5088Q410.4461 307.0869 409.86798 307.72754Q409.30548 308.36816 407.97736 309.49316Q406.86798 310.41504 406.55548 310.7588Q406.24298 311.0869 406.03986 311.41504L410.9461 311.41504ZM419.18048 315.55566Q418.14923 314.2588 417.4461 312.54004Q416.74298 310.8213 416.74298 308.97754Q416.74298 307.35254 417.27423 305.85254Q417.8836 304.11816 419.18048 302.41504L420.05548 302.41504Q419.22736 303.8369 418.96173 304.4463Q418.53986 305.3838 418.30548 306.41504Q418.0086 307.68066 418.0086 308.97754Q418.0086 312.2744 420.05548 315.55566L419.18048 315.55566ZM421.55548 303.8994L421.55548 302.7119L428.05548 302.7119L428.05548 303.66504Q427.08673 304.68066 426.14923 306.36816Q425.21173 308.05566 424.6961 309.85254Q424.33673 311.10254 424.22736 312.60254L422.96173 312.60254Q422.97736 311.41504 423.41486 309.74316Q423.86798 308.0713 424.6961 306.5244Q425.53986 304.9619 426.47736 303.8994L421.55548 303.8994ZM429.47736 309.97754L430.77423 309.86816Q430.91486 310.80566 431.43048 311.29004Q431.96173 311.7588 432.6961 311.7588Q433.58673 311.7588 434.1961 311.0869Q434.8211 310.41504 434.8211 309.3213Q434.8211 308.2588 434.22736 307.6494Q433.6336 307.04004 432.68048 307.04004Q432.08673 307.04004 431.60236 307.3213Q431.1336 307.5869 430.85236 308.0088L429.6961 307.86816L430.66486 302.7119L435.64923 302.7119L435.64923 303.8994L431.64923 303.8994L431.11798 306.5869Q432.02423 305.9619 433.0086 305.9619Q434.3211 305.9619 435.21173 306.86816Q436.11798 307.7744 436.11798 309.2119Q436.11798 310.5713 435.33673 311.55566Q434.36798 312.7744 432.6961 312.7744Q431.33673 312.7744 430.46173 312.0088Q429.60236 311.24316 429.47736 309.97754ZM438.14923 312.60254L438.14923 311.1963L439.53986 311.1963L439.53986 312.60254Q439.53986 313.36816 439.2586 313.8369Q438.99298 314.3213 438.39923 314.5869L438.05548 314.05566Q438.4461 313.8838 438.6336 313.55566Q438.8211 313.22754 438.83673 312.60254L438.14923 312.60254ZM441.47736 307.66504Q441.47736 305.8838 441.83673 304.80566Q442.21173 303.7119 442.93048 303.1338Q443.64923 302.54004 444.74298 302.54004Q445.55548 302.54004 446.16486 302.86816Q446.77423 303.1963 447.16486 303.80566Q447.5711 304.41504 447.78986 305.29004Q448.0086 306.16504 448.0086 307.66504Q448.0086 309.43066 447.64923 310.5088Q447.28986 311.5869 446.5711 312.18066Q445.85236 312.7744 444.74298 312.7744Q443.30548 312.7744 442.47736 311.72754Q441.47736 310.47754 441.47736 307.66504ZM442.74298 307.66504Q442.74298 310.1338 443.3211 310.9463Q443.89923 311.7588 444.74298 311.7588Q445.60236 311.7588 446.18048 310.9463Q446.7586 310.11816 446.7586 307.66504Q446.7586 305.18066 446.18048 304.36816Q445.60236 303.55566 444.72736 303.55566Q443.8836 303.55566 443.3836 304.2744Q442.74298 305.1963 442.74298 307.66504ZM449.71173 304.99316Q449.71173 303.91504 450.24298 303.16504Q450.78986 302.41504 451.8211 302.41504Q452.7586 302.41504 453.36798 303.0869Q453.99298 303.7588 453.99298 305.05566Q453.99298 306.3369 453.36798 307.0244Q452.74298 307.7119 451.83673 307.7119Q450.93048 307.7119 450.3211 307.04004Q449.71173 306.35254 449.71173 304.99316ZM451.85236 303.2588Q451.39923 303.2588 451.08673 303.66504Q450.78986 304.05566 450.78986 305.10254Q450.78986 306.0713 451.08673 306.4619Q451.39923 306.85254 451.85236 306.85254Q452.3211 306.85254 452.61798 306.4619Q452.93048 306.0713 452.93048 305.0088Q452.93048 304.04004 452.61798 303.6494Q452.30548 303.2588 451.85236 303.2588ZM451.85236 312.97754L457.33673 302.41504L458.33673 302.41504L452.8836 312.97754L451.85236 312.97754ZM456.1961 310.24316Q456.1961 309.16504 456.72736 308.43066Q457.27423 307.68066 458.30548 307.68066Q459.24298 307.68066 459.86798 308.35254Q460.49298 309.0244 460.49298 310.3213Q460.49298 311.60254 459.86798 312.29004Q459.24298 312.97754 458.30548 312.97754Q457.39923 312.97754 456.78986 312.30566Q456.1961 311.61816 456.1961 310.24316ZM458.33673 308.5244Q457.86798 308.5244 457.5711 308.93066Q457.27423 309.3213 457.27423 310.36816Q457.27423 311.3369 457.5711 311.72754Q457.8836 312.11816 458.33673 312.11816Q458.80548 312.11816 459.10236 311.72754Q459.41486 311.3369 459.41486 310.2744Q459.41486 309.30566 459.10236 308.91504Q458.80548 308.5244 458.33673 308.5244ZM462.6336 315.55566L461.74298 315.55566Q463.78986 312.2744 463.78986 308.97754Q463.78986 307.6963 463.49298 306.43066Q463.2586 305.3994 462.85236 304.4619Q462.58673 303.85254 461.74298 302.41504L462.6336 302.41504Q463.91486 304.11816 464.52423 305.85254Q465.05548 307.35254 465.05548 308.97754Q465.05548 310.8213 464.33673 312.54004Q463.6336 314.2588 462.6336 315.55566Z" fill-rule="nonzero"/><path stroke="#000000" stroke-width="1.0" stroke-linejoin="round" stroke-linecap="round" d="M308.57166 227.45C308.57166 250.74261 327.45407 269.625 350.74667 269.625C374.03928 269.625 392.92166 250.74261 392.92166 227.45C392.92166 204.1574 374.03928 185.275 350.74667 185.275L350.74667 58.75C443.9171 58.75 519.44666 134.27956 519.44666 227.45C519.44666 320.62042 443.9171 396.15 350.74667 396.15C257.57623 396.15 182.04666 320.62042 182.04666 227.45" fill-rule="nonzero"/><path stroke="#000000" stroke-width="1.0" stroke-linejoin="round" stroke-linecap="round" d="M308.83685 222.7279C308.6602 224.29573 308.57166 225.87224 308.57166 227.45L182.04666 227.45C182.04666 221.13898 182.4008 214.83293 183.10742 208.5616" fill-rule="nonzero"/><path stroke="#000000" stroke-width="1.0" stroke-linejoin="round" stroke-linecap="round" d="M309.6291 218.06519C309.27798 219.60338 309.01352 221.16006 308.83685 222.7279L183.10742 208.5616C183.81403 202.29025 184.872 196.0635 186.27632 189.91072" fill-rule="nonzero"/><path stroke="#000000" stroke-width="1.0" stroke-linejoin="round" stroke-linecap="round" d="M310.9384 213.52048C310.4173 215.0097 309.98016 216.52698 309.6291 218.06519L186.27632 189.91072C187.68066 183.75793 189.42915 177.68878 191.51355 171.73192" fill-rule="nonzero"/><path stroke="#000000" stroke-width="1.0" stroke-linejoin="round" stroke-linecap="round" d="M312.7483 209.15096C312.06375 210.57246 311.45947 212.03127 310.9384 213.52048L191.51355 171.73192C193.59795 165.77505 196.01497 159.93985 198.75322 154.25381" fill-rule="nonzero"/><path stroke="#000000" stroke-width="1.0" stroke-linejoin="round" stroke-linecap="round" d="M315.03607 205.01155C314.19666 206.34747 313.43286 207.72945 312.7483 209.15096L198.75322 154.25381C201.49147 148.56778 204.54663 143.03989 207.9043 137.69618" fill-rule="nonzero"/><path stroke="#000000" stroke-width="1.0" stroke-linejoin="round" stroke-linecap="round" d="M317.77292 201.15431C316.7892 202.38786 315.8755 203.67563 315.03607 205.01155L207.9043 137.69618C211.26196 132.3525 214.91684 127.20142 218.8517 122.26727" fill-rule="nonzero"/><path stroke="#000000" stroke-width="1.0" stroke-linejoin="round" stroke-linecap="round" d="M320.92444 197.62778C319.8088 198.74341 318.75665 199.92078 317.77292 201.15431L218.8517 122.26727C222.78656 117.333115 226.9952 112.62365 231.45775 108.16109" fill-rule="nonzero"/><path stroke="#000000" stroke-width="1.0" stroke-linejoin="round" stroke-linecap="round" d="M324.451 194.47626C323.21744 195.45998 322.04007 196.51213 320.92444 197.62778L231.45775 108.16109C235.92032 103.69852 240.62978 99.48988 245.56393 95.55503" fill-rule="nonzero"/><path stroke="#000000" stroke-width="1.0" stroke-linejoin="round" stroke-linecap="round" d="M328.30823 191.73941C326.9723 192.57883 325.6845 193.49254 324.451 194.47626L245.56393 95.55503C250.4981 91.62017 255.64915 87.965294 260.99286 84.60763" fill-rule="nonzero"/><path stroke="#000000" stroke-width="1.0" stroke-linejoin="round" stroke-linecap="round" d="M332.44763 189.45164C331.02612 190.1362 329.64413 190.9 328.30823 191.73941L260.99286 84.60763C266.33655 81.24996 271.86444 78.1948 277.55048 75.45655" fill-rule="nonzero"/><path stroke="#000000" stroke-width="1.0" stroke-linejoin="round" stroke-linecap="round" d="M336.81714 187.64172C335.32794 188.16283 333.86914 188.76707 332.44763 189.45164L277.55048 75.45655C283.2365 72.7183 289.07172 70.30128 295.0286 68.21688" fill-rule="nonzero"/><path stroke="#000000" stroke-width="1.0" stroke-linejoin="round" stroke-linecap="round" d="M341.36185 186.33241C339.82364 186.6835 338.30637 187.12062 336.81714 187.64172L295.0286 68.21688C300.98544 66.132484 307.0546 64.383995 313.2074 62.97966" fill-rule="nonzero"/><path stroke="#000000" stroke-width="1.0" stroke-linejoin="round" stroke-linecap="round" d="M346.02457 185.54019C344.45673 185.71684 342.90005 185.98134 341.36185 186.33241L313.2074 62.97966C319.36017 61.57533 325.5869 60.51736 331.85825 59.81075" fill-rule="nonzero"/><path stroke="#000000" stroke-width="1.0" stroke-linejoin="round" stroke-linecap="round" d="M350.74667 185.275C349.1689 185.275 347.5924 185.36354 346.02457 185.54019L331.85825 59.81075C338.1296 59.10414 344.43564 58.75 350.74667 58.75" fill-rule="nonzero"/><path fill="#002f4a" d="M32.85 65.25C32.85 68.563705 30.163708 71.25 26.85 71.25C23.536291 71.25 20.85 68.563705 20.85 65.25C20.85 61.93629 23.536291 59.25 26.85 59.25C30.163708 59.25 32.85 61.93629 32.85 65.25Z" fill-rule="nonzero"/><path fill="#20303a" d="M41.69375 68.75L41.69375 60.875L42.75625 60.875L46.896873 67.0625L46.896873 60.875L47.896873 60.875L47.896873 68.75L46.81875 68.75L42.69375 62.5625L42.69375 68.75L41.69375 68.75ZM53.475 66.90625L54.475 67.03125Q54.240623 67.90625 53.6 68.390625Q52.959373 68.875 51.975 68.875Q50.725 68.875 49.990623 68.109375Q49.25625 67.34375 49.25625 65.953125Q49.25625 64.5 49.990623 63.71875Q50.740623 62.921875 51.9125 62.921875Q53.06875 62.921875 53.7875 63.703125Q54.50625 64.46875 54.50625 65.890625Q54.50625 65.96875 54.50625 66.140625L50.25625 66.140625Q50.303123 67.078125 50.771873 67.578125Q51.25625 68.078125 51.975 68.078125Q52.50625 68.078125 52.88125 67.8125Q53.25625 67.53125 53.475 66.90625ZM50.303123 65.34375L53.490623 65.34375Q53.428123 64.625 53.13125 64.265625Q52.6625 63.71875 51.928123 63.71875Q51.25625 63.71875 50.803123 64.171875Q50.35 64.609375 50.303123 65.34375ZM57.69375 67.890625L57.81875 68.734375Q57.4125 68.828125 57.1 68.828125Q56.56875 68.828125 56.271873 68.65625Q55.990623 68.484375 55.865623 68.21875Q55.75625 67.953125 55.75625 67.078125L55.75625 63.796875L55.0375 63.796875L55.0375 63.046875L55.75625 63.046875L55.75625 61.640625L56.709373 61.046875L56.709373 63.046875L57.69375 63.046875L57.69375 63.796875L56.709373 63.796875L56.709373 67.140625Q56.709373 67.546875 56.75625 67.671875Q56.81875 67.78125 56.928123 67.859375Q57.053123 67.921875 57.25625 67.921875Q57.428123 67.921875 57.69375 67.890625ZM58.56875 68.75L58.56875 60.875L59.5375 60.875L59.5375 63.703125Q60.225 62.921875 61.25625 62.921875Q61.88125 62.921875 62.35 63.171875Q62.81875 63.421875 63.021873 63.859375Q63.225 64.296875 63.225 65.140625L63.225 68.75L62.25625 68.75L62.25625 65.140625Q62.25625 64.40625 61.94375 64.078125Q61.63125 63.75 61.053123 63.75Q60.615623 63.75 60.240623 63.96875Q59.865623 64.1875 59.69375 64.578125Q59.5375 64.953125 59.5375 65.625L59.5375 68.75L58.56875 68.75ZM68.475 66.90625L69.475 67.03125Q69.24062 67.90625 68.6 68.390625Q67.95937 68.875 66.975 68.875Q65.725 68.875 64.99062 68.109375Q64.25625 67.34375 64.25625 65.953125Q64.25625 64.5 64.99062 63.71875Q65.74062 62.921875 66.9125 62.921875Q68.06875 62.921875 68.7875 63.703125Q69.50625 64.46875 69.50625 65.890625Q69.50625 65.96875 69.50625 66.140625L65.25625 66.140625Q65.30312 67.078125 65.77187 67.578125Q66.25625 68.078125 66.975 68.078125Q67.50625 68.078125 67.88125 67.8125Q68.25625 67.53125 68.475 66.90625ZM65.30312 65.34375L68.49062 65.34375Q68.42812 64.625 68.13125 64.265625Q67.6625 63.71875 66.92812 63.71875Q66.25625 63.71875 65.80312 64.171875Q65.35 64.609375 65.30312 65.34375ZM70.56875 68.75L70.56875 63.046875L71.42812 63.046875L71.42812 63.90625Q71.77187 63.296875 72.05312 63.109375Q72.33437 62.921875 72.6625 62.921875Q73.1625 62.921875 73.6625 63.234375L73.33437 64.125Q72.975 63.921875 72.61562 63.921875Q72.30312 63.921875 72.05312 64.109375Q71.80312 64.296875 71.69375 64.640625Q71.5375 65.15625 71.5375 65.765625L71.5375 68.75L70.56875 68.75ZM74.55312 68.75L74.55312 60.875L75.52187 60.875L75.52187 68.75L74.55312 68.75ZM80.30312 68.046875Q79.75625 68.5 79.25625 68.6875Q78.77187 68.875 78.19375 68.875Q77.25625 68.875 76.74062 68.421875Q76.24062 67.953125 76.24062 67.25Q76.24062 66.828125 76.42812 66.484375Q76.63125 66.140625 76.92812 65.9375Q77.24062 65.71875 77.63125 65.609375Q77.9125 65.53125 78.49062 65.46875Q79.6625 65.328125 80.20937 65.125Q80.225 64.9375 80.225 64.875Q80.225 64.28125 79.94375 64.046875Q79.58437 63.71875 78.85 63.71875Q78.1625 63.71875 77.83437 63.953125Q77.52187 64.1875 77.36562 64.796875L76.4125 64.671875Q76.5375 64.0625 76.83437 63.6875Q77.13125 63.3125 77.69375 63.125Q78.25625 62.921875 78.99062 62.921875Q79.725 62.921875 80.17812 63.09375Q80.63125 63.265625 80.83437 63.53125Q81.05312 63.78125 81.14687 64.171875Q81.19375 64.421875 81.19375 65.078125L81.19375 66.359375Q81.19375 67.703125 81.25625 68.0625Q81.31875 68.421875 81.50625 68.75L80.49062 68.75Q80.33437 68.453125 80.30312 68.046875ZM80.20937 65.890625Q79.69375 66.109375 78.63125 66.25Q78.0375 66.34375 77.7875 66.453125Q77.55312 66.546875 77.4125 66.765625Q77.27187 66.96875 77.27187 67.21875Q77.27187 67.609375 77.56875 67.875Q77.86562 68.125 78.42812 68.125Q78.99062 68.125 79.4125 67.875Q79.85 67.625 80.06875 67.203125Q80.20937 66.875 80.20937 66.234375L80.20937 65.890625ZM82.56875 68.75L82.56875 63.046875L83.44375 63.046875L83.44375 63.859375Q84.06875 62.921875 85.25625 62.921875Q85.77187 62.921875 86.20937 63.109375Q86.64687 63.28125 86.85 63.59375Q87.06875 63.890625 87.1625 64.296875Q87.20937 64.578125 87.20937 65.25L87.20937 68.75L86.24062 68.75L86.24062 65.28125Q86.24062 64.6875 86.13125 64.40625Q86.02187 64.109375 85.725 63.9375Q85.44375 63.75 85.05312 63.75Q84.44375 63.75 83.99062 64.140625Q83.5375 64.53125 83.5375 65.640625L83.5375 68.75L82.56875 68.75ZM92.27187 68.75L92.27187 68.03125Q91.74062 68.875 90.67812 68.875Q90.00625 68.875 89.42812 68.5Q88.85 68.125 88.5375 67.453125Q88.225 66.78125 88.225 65.90625Q88.225 65.046875 88.50625 64.359375Q88.80312 63.65625 89.36562 63.296875Q89.92812 62.921875 90.63125 62.921875Q91.14687 62.921875 91.55312 63.140625Q91.95937 63.359375 92.20937 63.703125L92.20937 60.875L93.17812 60.875L93.17812 68.75L92.27187 68.75ZM89.225 65.90625Q89.225 67.0 89.67812 67.546875Q90.14687 68.078125 90.77187 68.078125Q91.4125 68.078125 91.85 67.5625Q92.2875 67.046875 92.2875 65.984375Q92.2875 64.8125 91.83437 64.265625Q91.39687 63.71875 90.725 63.71875Q90.08437 63.71875 89.64687 64.25Q89.225 64.765625 89.225 65.90625ZM94.19375 67.046875L95.14687 66.890625Q95.225 67.46875 95.58437 67.78125Q95.95937 68.078125 96.61562 68.078125Q97.2875 68.078125 97.6 67.8125Q97.92812 67.546875 97.92812 67.171875Q97.92812 66.84375 97.64687 66.65625Q97.44375 66.53125 96.6625 66.328125Q95.6 66.0625 95.17812 65.875Q94.77187 65.671875 94.55312 65.328125Q94.35 64.984375 94.35 64.5625Q94.35 64.171875 94.52187 63.859375Q94.69375 63.53125 95.00625 63.3125Q95.225 63.140625 95.61562 63.03125Q96.00625 62.921875 96.44375 62.921875Q97.11562 62.921875 97.61562 63.109375Q98.13125 63.296875 98.36562 63.640625Q98.61562 63.96875 98.70937 64.515625L97.77187 64.640625Q97.69375 64.203125 97.38125 63.96875Q97.08437 63.71875 96.52187 63.71875Q95.85 63.71875 95.56875 63.9375Q95.2875 64.15625 95.2875 64.453125Q95.2875 64.640625 95.39687 64.78125Q95.52187 64.9375 95.77187 65.046875Q95.9125 65.09375 96.63125 65.296875Q97.64687 65.5625 98.05312 65.734375Q98.45937 65.90625 98.69375 66.25Q98.92812 66.578125 98.92812 67.078125Q98.92812 67.5625 98.64687 67.984375Q98.36562 68.40625 97.83437 68.640625Q97.30312 68.875 96.63125 68.875Q95.52187 68.875 94.92812 68.421875Q94.35 67.953125 94.19375 67.046875Z" fill-rule="nonzero"/><path fill="#b85741" d="M32.85 88.25C32.85 91.563705 30.163708 94.25 26.85 94.25C23.536291 94.25 20.85 91.563705 20.85 88.25C20.85 84.936295 23.536291 82.25 26.85 82.25C30.163708 82.25 32.85 84.936295 32.85 88.25Z" fill-rule="nonzero"/><path fill="#20303a" d="M47.31875 88.984375L48.365623 89.25Q48.0375 90.53125 47.178123 91.21875Q46.334373 91.890625 45.1 91.890625Q43.81875 91.890625 43.021873 91.375Q42.225 90.84375 41.803123 89.859375Q41.396873 88.875 41.396873 87.75Q41.396873 86.53125 41.865623 85.609375Q42.334373 84.6875 43.19375 84.21875Q44.06875 83.734375 45.115623 83.734375Q46.303123 83.734375 47.1 84.34375Q47.9125 84.9375 48.225 86.03125L47.19375 86.28125Q46.928123 85.421875 46.396873 85.03125Q45.88125 84.640625 45.1 84.640625Q44.178123 84.640625 43.56875 85.078125Q42.959373 85.5 42.709373 86.234375Q42.475 86.96875 42.475 87.75Q42.475 88.75 42.75625 89.5Q43.053123 90.25 43.6625 90.625Q44.2875 91.0 45.00625 91.0Q45.88125 91.0 46.490623 90.5Q47.1 89.984375 47.31875 88.984375ZM49.5375 93.953125L49.428123 93.046875Q49.740623 93.125 49.975 93.125Q50.303123 93.125 50.490623 93.015625Q50.69375 92.90625 50.803123 92.71875Q50.896873 92.578125 51.1 92.0Q51.13125 91.921875 51.19375 91.765625L49.021873 86.046875L50.06875 86.046875L51.25625 89.34375Q51.490623 89.984375 51.6625 90.671875Q51.834373 90.0 52.06875 89.375L53.2875 86.046875L54.25625 86.046875L52.084373 91.84375Q51.740623 92.78125 51.5375 93.140625Q51.2875 93.625 50.94375 93.84375Q50.615623 94.0625 50.1625 94.0625Q49.88125 94.0625 49.5375 93.953125ZM55.56875 93.9375L55.56875 86.046875L56.459373 86.046875L56.459373 86.78125Q56.771873 86.359375 57.1625 86.140625Q57.553123 85.921875 58.115623 85.921875Q58.834373 85.921875 59.396873 86.296875Q59.959373 86.671875 60.240623 87.359375Q60.521873 88.03125 60.521873 88.859375Q60.521873 89.734375 60.209373 90.4375Q59.896873 91.125 59.2875 91.5Q58.69375 91.875 58.0375 91.875Q57.553123 91.875 57.1625 91.671875Q56.7875 91.46875 56.5375 91.15625L56.5375 93.9375L55.56875 93.9375ZM56.44375 88.9375Q56.44375 90.03125 56.896873 90.5625Q57.35 91.078125 57.975 91.078125Q58.615623 91.078125 59.06875 90.546875Q59.5375 90.0 59.5375 88.84375Q59.5375 87.765625 59.084373 87.21875Q58.646873 86.671875 58.021873 86.671875Q57.396873 86.671875 56.9125 87.25Q56.44375 87.828125 56.44375 88.9375ZM61.56875 91.75L61.56875 86.046875L62.428123 86.046875L62.428123 86.90625Q62.771873 86.296875 63.053123 86.109375Q63.334373 85.921875 63.6625 85.921875Q64.1625 85.921875 64.6625 86.234375L64.33437 87.125Q63.975 86.921875 63.615623 86.921875Q63.303123 86.921875 63.053123 87.109375Q62.803123 87.296875 62.69375 87.640625Q62.5375 88.15625 62.5375 88.765625L62.5375 91.75L61.56875 91.75ZM69.31875 91.75L69.31875 90.90625Q68.64687 91.875 67.50625 91.875Q67.00625 91.875 66.55312 91.6875Q66.11562 91.484375 65.89687 91.203125Q65.69375 90.90625 65.61562 90.484375Q65.55312 90.203125 65.55312 89.578125L65.55312 86.046875L66.52187 86.046875L66.52187 89.203125Q66.52187 89.96875 66.58437 90.234375Q66.67812 90.609375 66.95937 90.828125Q67.25625 91.046875 67.69375 91.046875Q68.13125 91.046875 68.50625 90.828125Q68.89687 90.59375 69.05312 90.21875Q69.20937 89.828125 69.20937 89.109375L69.20937 86.046875L70.17812 86.046875L70.17812 91.75L69.31875 91.75ZM71.19375 90.046875L72.14687 89.890625Q72.225 90.46875 72.58437 90.78125Q72.95937 91.078125 73.61562 91.078125Q74.2875 91.078125 74.6 90.8125Q74.92812 90.546875 74.92812 90.171875Q74.92812 89.84375 74.64687 89.65625Q74.44375 89.53125 73.6625 89.328125Q72.6 89.0625 72.17812 88.875Q71.77187 88.671875 71.55312 88.328125Q71.35 87.984375 71.35 87.5625Q71.35 87.171875 71.52187 86.859375Q71.69375 86.53125 72.00625 86.3125Q72.225 86.140625 72.61562 86.03125Q73.00625 85.921875 73.44375 85.921875Q74.11562 85.921875 74.61562 86.109375Q75.13125 86.296875 75.36562 86.640625Q75.61562 86.96875 75.70937 87.515625L74.77187 87.640625Q74.69375 87.203125 74.38125 86.96875Q74.08437 86.71875 73.52187 86.71875Q72.85 86.71875 72.56875 86.9375Q72.2875 87.15625 72.2875 87.453125Q72.2875 87.640625 72.39687 87.78125Q72.52187 87.9375 72.77187 88.046875Q72.9125 88.09375 73.63125 88.296875Q74.64687 88.5625 75.05312 88.734375Q75.45937 88.90625 75.69375 89.25Q75.92812 89.578125 75.92812 90.078125Q75.92812 90.5625 75.64687 90.984375Q75.36562 91.40625 74.83437 91.640625Q74.30312 91.875 73.63125 91.875Q72.52187 91.875 71.92812 91.421875Q71.35 90.953125 71.19375 90.046875Z" fill-rule="nonzero"/><path fill="#ad8463" d="M32.85 111.25C32.85 114.563705 30.163708 117.25 26.85 117.25C23.536291 117.25 20.85 114.563705 20.85 111.25C20.85 107.936295 23.536291 105.25 26.85 105.25C30.163708 105.25 32.85 107.936295 32.85 111.25Z" fill-rule="nonzero"/><path fill="#20303a" d="M41.88125 114.75L41.88125 106.875L42.9125 106.875L42.9125 114.75L41.88125 114.75ZM44.56875 114.75L44.56875 109.046875L45.428123 109.046875L45.428123 109.90625Q45.771873 109.296875 46.053123 109.109375Q46.334373 108.921875 46.6625 108.921875Q47.1625 108.921875 47.6625 109.234375L47.334373 110.125Q46.975 109.921875 46.615623 109.921875Q46.303123 109.921875 46.053123 110.109375Q45.803123 110.296875 45.69375 110.640625Q45.5375 111.15625 45.5375 111.765625L45.5375 114.75L44.56875 114.75ZM52.303123 114.046875Q51.75625 114.5 51.25625 114.6875Q50.771873 114.875 50.19375 114.875Q49.25625 114.875 48.740623 114.421875Q48.240623 113.953125 48.240623 113.25Q48.240623 112.828125 48.428123 112.484375Q48.63125 112.140625 48.928123 111.9375Q49.240623 111.71875 49.63125 111.609375Q49.9125 111.53125 50.490623 111.46875Q51.6625 111.328125 52.209373 111.125Q52.225 110.9375 52.225 110.875Q52.225 110.28125 51.94375 110.046875Q51.584373 109.71875 50.85 109.71875Q50.1625 109.71875 49.834373 109.953125Q49.521873 110.1875 49.365623 110.796875L48.4125 110.671875Q48.5375 110.0625 48.834373 109.6875Q49.13125 109.3125 49.69375 109.125Q50.25625 108.921875 50.990623 108.921875Q51.725 108.921875 52.178123 109.09375Q52.63125 109.265625 52.834373 109.53125Q53.053123 109.78125 53.146873 110.171875Q53.19375 110.421875 53.19375 111.078125L53.19375 112.359375Q53.19375 113.703125 53.25625 114.0625Q53.31875 114.421875 53.50625 114.75L52.490623 114.75Q52.334373 114.453125 52.303123 114.046875ZM52.209373 111.890625Q51.69375 112.109375 50.63125 112.25Q50.0375 112.34375 49.7875 112.453125Q49.553123 112.546875 49.4125 112.765625Q49.271873 112.96875 49.271873 113.21875Q49.271873 113.609375 49.56875 113.875Q49.865623 114.125 50.428123 114.125Q50.990623 114.125 51.4125 113.875Q51.85 113.625 52.06875 113.203125Q52.209373 112.875 52.209373 112.234375L52.209373 111.890625ZM54.56875 114.75L54.56875 109.046875L55.44375 109.046875L55.44375 109.859375Q56.06875 108.921875 57.25625 108.921875Q57.771873 108.921875 58.209373 109.109375Q58.646873 109.28125 58.85 109.59375Q59.06875 109.890625 59.1625 110.296875Q59.209373 110.578125 59.209373 111.25L59.209373 114.75L58.240623 114.75L58.240623 111.28125Q58.240623 110.6875 58.13125 110.40625Q58.021873 110.109375 57.725 109.9375Q57.44375 109.75 57.053123 109.75Q56.44375 109.75 55.990623 110.140625Q55.5375 110.53125 55.5375 111.640625L55.5375 114.75L54.56875 114.75Z" fill-rule="nonzero"/><path fill="#009384" d="M32.85 134.25C32.85 137.5637 30.163708 140.25 26.85 140.25C23.536291 140.25 20.85 137.5637 20.85 134.25C20.85 130.9363 23.536291 128.25 26.85 128.25C30.163708 128.25 32.85 130.9363 32.85 134.25Z" fill-rule="nonzero"/><path fill="#20303a" d="M43.709373 137.75L43.709373 130.8125L41.115623 130.8125L41.115623 129.875L47.35 129.875L47.35 130.8125L44.740623 130.8125L44.740623 137.75L43.709373 137.75ZM48.56875 137.75L48.56875 129.875L49.5375 129.875L49.5375 132.70312Q50.225 131.92188 51.25625 131.92188Q51.88125 131.92188 52.35 132.17188Q52.81875 132.42188 53.021873 132.85938Q53.225 133.29688 53.225 134.14062L53.225 137.75L52.25625 137.75L52.25625 134.14062Q52.25625 133.40625 51.94375 133.07812Q51.63125 132.75 51.053123 132.75Q50.615623 132.75 50.240623 132.96875Q49.865623 133.1875 49.69375 133.57812Q49.5375 133.95312 49.5375 134.625L49.5375 137.75L48.56875 137.75ZM58.303123 137.04688Q57.75625 137.5 57.25625 137.6875Q56.771873 137.875 56.19375 137.875Q55.25625 137.875 54.740623 137.42188Q54.240623 136.95312 54.240623 136.25Q54.240623 135.82812 54.428123 135.48438Q54.63125 135.14062 54.928123 134.9375Q55.240623 134.71875 55.63125 134.60938Q55.9125 134.53125 56.490623 134.46875Q57.6625 134.32812 58.209373 134.125Q58.225 133.9375 58.225 133.875Q58.225 133.28125 57.94375 133.04688Q57.584373 132.71875 56.85 132.71875Q56.1625 132.71875 55.834373 132.95312Q55.521873 133.1875 55.365623 133.79688L54.4125 133.67188Q54.5375 133.0625 54.834373 132.6875Q55.13125 132.3125 55.69375 132.125Q56.25625 131.92188 56.990623 131.92188Q57.725 131.92188 58.178123 132.09375Q58.63125 132.26562 58.834373 132.53125Q59.053123 132.78125 59.146873 133.17188Q59.19375 133.42188 59.19375 134.07812L59.19375 135.35938Q59.19375 136.70312 59.25625 137.0625Q59.31875 137.42188 59.50625 137.75L58.490623 137.75Q58.334373 137.45312 58.303123 137.04688ZM58.209373 134.89062Q57.69375 135.10938 56.63125 135.25Q56.0375 135.34375 55.7875 135.45312Q55.553123 135.54688 55.4125 135.76562Q55.271873 135.96875 55.271873 136.21875Q55.271873 136.60938 55.56875 136.875Q55.865623 137.125 56.428123 137.125Q56.990623 137.125 57.4125 136.875Q57.85 136.625 58.06875 136.20312Q58.209373 135.875 58.209373 135.23438L58.209373 134.89062ZM60.584373 130.98438L60.584373 129.875L61.553123 129.875L61.553123 130.98438L60.584373 130.98438ZM60.584373 137.75L60.584373 132.04688L61.553123 132.04688L61.553123 137.75L60.584373 137.75ZM62.553123 137.75L62.553123 129.875L63.521873 129.875L63.521873 137.75L62.553123 137.75ZM68.30312 137.04688Q67.75625 137.5 67.25625 137.6875Q66.77187 137.875 66.19375 137.875Q65.25625 137.875 64.74062 137.42188Q64.24062 136.95312 64.24062 136.25Q64.24062 135.82812 64.42812 135.48438Q64.63125 135.14062 64.92812 134.9375Q65.24062 134.71875 65.63125 134.60938Q65.9125 134.53125 66.49062 134.46875Q67.6625 134.32812 68.20937 134.125Q68.225 133.9375 68.225 133.875Q68.225 133.28125 67.94375 133.04688Q67.58437 132.71875 66.85 132.71875Q66.1625 132.71875 65.83437 132.95312Q65.52187 133.1875 65.36562 133.79688L64.4125 133.67188Q64.5375 133.0625 64.83437 132.6875Q65.13125 132.3125 65.69375 132.125Q66.25625 131.92188 66.99062 131.92188Q67.725 131.92188 68.17812 132.09375Q68.63125 132.26562 68.83437 132.53125Q69.05312 132.78125 69.14687 133.17188Q69.19375 133.42188 69.19375 134.07812L69.19375 135.35938Q69.19375 136.70312 69.25625 137.0625Q69.31875 137.42188 69.50625 137.75L68.49062 137.75Q68.33437 137.45312 68.30312 137.04688ZM68.20937 134.89062Q67.69375 135.10938 66.63125 135.25Q66.0375 135.34375 65.7875 135.45312Q65.55312 135.54688 65.4125 135.76562Q65.27187 135.96875 65.27187 136.21875Q65.27187 136.60938 65.56875 136.875Q65.86562 137.125 66.42812 137.125Q66.99062 137.125 67.4125 136.875Q67.85 136.625 68.06875 136.20312Q68.20937 135.875 68.20937 135.23438L68.20937 134.89062ZM70.56875 137.75L70.56875 132.04688L71.44375 132.04688L71.44375 132.85938Q72.06875 131.92188 73.25625 131.92188Q73.77187 131.92188 74.20937 132.10938Q74.64687 132.28125 74.85 132.59375Q75.06875 132.89062 75.1625 133.29688Q75.20937 133.57812 75.20937 134.25L75.20937 137.75L74.24062 137.75L74.24062 134.28125Q74.24062 133.6875 74.13125 133.40625Q74.02187 133.10938 73.725 132.9375Q73.44375 132.75 73.05312 132.75Q72.44375 132.75 71.99062 133.14062Q71.5375 133.53125 71.5375 134.64062L71.5375 137.75L70.56875 137.75ZM80.27187 137.75L80.27187 137.03125Q79.74062 137.875 78.67812 137.875Q78.00625 137.875 77.42812 137.5Q76.85 137.125 76.5375 136.45312Q76.225 135.78125 76.225 134.90625Q76.225 134.04688 76.50625 133.35938Q76.80312 132.65625 77.36562 132.29688Q77.92812 131.92188 78.63125 131.92188Q79.14687 131.92188 79.55312 132.14062Q79.95937 132.35938 80.20937 132.70312L80.20937 129.875L81.17812 129.875L81.17812 137.75L80.27187 137.75ZM77.225 134.90625Q77.225 136.0 77.67812 136.54688Q78.14687 137.07812 78.77187 137.07812Q79.4125 137.07812 79.85 136.5625Q80.2875 136.04688 80.2875 134.98438Q80.2875 133.8125 79.83437 133.26562Q79.39687 132.71875 78.725 132.71875Q78.08437 132.71875 77.64687 133.25Q77.225 133.76562 77.225 134.90625Z" fill-rule="nonzero"/><path fill="#eddac9" d="M32.85 157.25C32.85 160.5637 30.163708 163.25 26.85 163.25C23.536291 163.25 20.85 160.5637 20.85 157.25C20.85 153.9363 23.536291 151.25 26.85 151.25C30.163708 151.25 32.85 153.9363 32.85 157.25Z" fill-rule="nonzero"/><path fill="#20303a" d="M45.38125 157.65625L45.38125 156.73438L48.725 156.73438L48.725 159.65625Q47.94375 160.26562 47.13125 160.57812Q46.31875 160.89062 45.459373 160.89062Q44.303123 160.89062 43.35 160.39062Q42.396873 159.89062 41.9125 158.95312Q41.428123 158.01562 41.428123 156.84375Q41.428123 155.70312 41.9125 154.70312Q42.396873 153.70312 43.303123 153.21875Q44.209373 152.73438 45.38125 152.73438Q46.225 152.73438 46.9125 153.01562Q47.615623 153.29688 48.00625 153.79688Q48.396873 154.28125 48.6 155.07812L47.6625 155.32812Q47.490623 154.73438 47.225 154.39062Q46.959373 154.04688 46.459373 153.84375Q45.975 153.64062 45.38125 153.64062Q44.6625 153.64062 44.146873 153.85938Q43.63125 154.0625 43.303123 154.42188Q42.990623 154.78125 42.803123 155.20312Q42.50625 155.9375 42.50625 156.78125Q42.50625 157.84375 42.865623 158.54688Q43.240623 159.25 43.928123 159.59375Q44.615623 159.9375 45.396873 159.9375Q46.06875 159.9375 46.709373 159.6875Q47.365623 159.42188 47.69375 159.125L47.69375 157.65625L45.38125 157.65625ZM54.475 158.90625L55.475 159.03125Q55.240623 159.90625 54.6 160.39062Q53.959373 160.875 52.975 160.875Q51.725 160.875 50.990623 160.10938Q50.25625 159.34375 50.25625 157.95312Q50.25625 156.5 50.990623 155.71875Q51.740623 154.92188 52.9125 154.92188Q54.06875 154.92188 54.7875 155.70312Q55.50625 156.46875 55.50625 157.89062Q55.50625 157.96875 55.50625 158.14062L51.25625 158.14062Q51.303123 159.07812 51.771873 159.57812Q52.25625 160.07812 52.975 160.07812Q53.50625 160.07812 53.88125 159.8125Q54.25625 159.53125 54.475 158.90625ZM51.303123 157.34375L54.490623 157.34375Q54.428123 156.625 54.13125 156.26562Q53.6625 155.71875 52.928123 155.71875Q52.25625 155.71875 51.803123 156.17188Q51.35 156.60938 51.303123 157.34375ZM56.56875 160.75L56.56875 155.04688L57.428123 155.04688L57.428123 155.90625Q57.771873 155.29688 58.053123 155.10938Q58.334373 154.92188 58.6625 154.92188Q59.1625 154.92188 59.6625 155.23438L59.334373 156.125Q58.975 155.92188 58.615623 155.92188Q58.303123 155.92188 58.053123 156.10938Q57.803123 156.29688 57.69375 156.64062Q57.5375 157.15625 57.5375 157.76562L57.5375 160.75L56.56875 160.75ZM60.56875 160.75L60.56875 155.04688L61.44375 155.04688L61.44375 155.84375Q61.709373 155.42188 62.146873 155.17188Q62.6 154.92188 63.1625 154.92188Q63.803123 154.92188 64.20937 155.1875Q64.61562 155.4375 64.7875 155.92188Q65.45937 154.92188 66.5375 154.92188Q67.39687 154.92188 67.85 155.39062Q68.30312 155.85938 68.30312 156.82812L68.30312 160.75L67.35 160.75L67.35 157.15625Q67.35 156.57812 67.25625 156.32812Q67.1625 156.0625 66.9125 155.90625Q66.6625 155.75 66.33437 155.75Q65.725 155.75 65.31875 156.15625Q64.92812 156.5625 64.92812 157.4375L64.92812 160.75L63.959373 160.75L63.959373 157.04688Q63.959373 156.40625 63.725 156.07812Q63.490623 155.75 62.959373 155.75Q62.553123 155.75 62.19375 155.96875Q61.85 156.1875 61.69375 156.60938Q61.5375 157.01562 61.5375 157.79688L61.5375 160.75L60.56875 160.75ZM73.30312 160.04688Q72.75625 160.5 72.25625 160.6875Q71.77187 160.875 71.19375 160.875Q70.25625 160.875 69.74062 160.42188Q69.24062 159.95312 69.24062 159.25Q69.24062 158.82812 69.42812 158.48438Q69.63125 158.14062 69.92812 157.9375Q70.24062 157.71875 70.63125 157.60938Q70.9125 157.53125 71.49062 157.46875Q72.6625 157.32812 73.20937 157.125Q73.225 156.9375 73.225 156.875Q73.225 156.28125 72.94375 156.04688Q72.58437 155.71875 71.85 155.71875Q71.1625 155.71875 70.83437 155.95312Q70.52187 156.1875 70.36562 156.79688L69.4125 156.67188Q69.5375 156.0625 69.83437 155.6875Q70.13125 155.3125 70.69375 155.125Q71.25625 154.92188 71.99062 154.92188Q72.725 154.92188 73.17812 155.09375Q73.63125 155.26562 73.83437 155.53125Q74.05312 155.78125 74.14687 156.17188Q74.19375 156.42188 74.19375 157.07812L74.19375 158.35938Q74.19375 159.70312 74.25625 160.0625Q74.31875 160.42188 74.50625 160.75L73.49062 160.75Q73.33437 160.45312 73.30312 160.04688ZM73.20937 157.89062Q72.69375 158.10938 71.63125 158.25Q71.0375 158.34375 70.7875 158.45312Q70.55312 158.54688 70.4125 158.76562Q70.27187 158.96875 70.27187 159.21875Q70.27187 159.60938 70.56875 159.875Q70.86562 160.125 71.42812 160.125Q71.99062 160.125 72.4125 159.875Q72.85 159.625 73.06875 159.20312Q73.20937 158.875 73.20937 158.23438L73.20937 157.89062ZM75.56875 160.75L75.56875 155.04688L76.44375 155.04688L76.44375 155.85938Q77.06875 154.92188 78.25625 154.92188Q78.77187 154.92188 79.20937 155.10938Q79.64687 155.28125 79.85 155.59375Q80.06875 155.89062 80.1625 156.29688Q80.20937 156.57812 80.20937 157.25L80.20937 160.75L79.24062 160.75L79.24062 157.28125Q79.24062 156.6875 79.13125 156.40625Q79.02187 156.10938 78.725 155.9375Q78.44375 155.75 78.05312 155.75Q77.44375 155.75 76.99062 156.14062Q76.5375 156.53125 76.5375 157.64062L76.5375 160.75L75.56875 160.75ZM81.5375 162.95312L81.42812 162.04688Q81.74062 162.125 81.975 162.125Q82.30312 162.125 82.49062 162.01562Q82.69375 161.90625 82.80312 161.71875Q82.89687 161.57812 83.1 161.0Q83.13125 160.92188 83.19375 160.76562L81.02187 155.04688L82.06875 155.04688L83.25625 158.34375Q83.49062 158.98438 83.6625 159.67188Q83.83437 159.0 84.06875 158.375L85.2875 155.04688L86.25625 155.04688L84.08437 160.84375Q83.74062 161.78125 83.5375 162.14062Q83.2875 162.625 82.94375 162.84375Q82.61562 163.0625 82.1625 163.0625Q81.88125 163.0625 81.5375 162.95312Z" fill-rule="nonzero"/><path fill="#6fc8d6" d="M32.85 180.25C32.85 183.5637 30.163708 186.25 26.85 186.25C23.536291 186.25 20.85 183.5637 20.85 180.25C20.85 176.9363 23.536291 174.25 26.85 174.25C30.163708 174.25 32.85 176.9363 32.85 180.25Z" fill-rule="nonzero"/><path fill="#20303a" d="M41.6625 183.75L41.6625 175.875L44.615623 175.875Q45.50625 175.875 46.053123 176.125Q46.6 176.35938 46.9125 176.85938Q47.225 177.34375 47.225 177.89062Q47.225 178.39062 46.94375 178.84375Q46.678123 179.28125 46.115623 179.5625Q46.834373 179.76562 47.209373 180.28125Q47.6 180.78125 47.6 181.46875Q47.6 182.01562 47.365623 182.5Q47.13125 182.96875 46.7875 183.23438Q46.44375 183.48438 45.928123 183.625Q45.4125 183.75 44.6625 183.75L41.6625 183.75ZM42.69375 179.1875L44.396873 179.1875Q45.1 179.1875 45.396873 179.09375Q45.7875 178.96875 45.990623 178.70312Q46.19375 178.42188 46.19375 178.01562Q46.19375 177.625 46.00625 177.32812Q45.81875 177.03125 45.459373 176.92188Q45.115623 176.8125 44.271873 176.8125L42.69375 176.8125L42.69375 179.1875ZM42.69375 182.82812L44.6625 182.82812Q45.1625 182.82812 45.365623 182.78125Q45.725 182.71875 45.959373 182.57812Q46.209373 182.42188 46.365623 182.14062Q46.521873 181.84375 46.521873 181.46875Q46.521873 181.03125 46.2875 180.70312Q46.06875 180.375 45.6625 180.25Q45.271873 180.10938 44.521873 180.10938L42.69375 180.10938L42.69375 182.82812ZM52.475 181.90625L53.475 182.03125Q53.240623 182.90625 52.6 183.39062Q51.959373 183.875 50.975 183.875Q49.725 183.875 48.990623 183.10938Q48.25625 182.34375 48.25625 180.95312Q48.25625 179.5 48.990623 178.71875Q49.740623 177.92188 50.9125 177.92188Q52.06875 177.92188 52.7875 178.70312Q53.50625 179.46875 53.50625 180.89062Q53.50625 180.96875 53.50625 181.14062L49.25625 181.14062Q49.303123 182.07812 49.771873 182.57812Q50.25625 183.07812 50.975 183.07812Q51.50625 183.07812 51.88125 182.8125Q52.25625 182.53125 52.475 181.90625ZM49.303123 180.34375L52.490623 180.34375Q52.428123 179.625 52.13125 179.26562Q51.6625 178.71875 50.928123 178.71875Q50.25625 178.71875 49.803123 179.17188Q49.35 179.60938 49.303123 180.34375ZM54.553123 183.75L54.553123 175.875L55.521873 175.875L55.521873 183.75L54.553123 183.75ZM56.396873 184.21875L57.334373 184.35938Q57.396873 184.79688 57.6625 185.0Q58.021873 185.26562 58.646873 185.26562Q59.31875 185.26562 59.678123 185.0Q60.053123 184.73438 60.178123 184.25Q60.25625 183.95312 60.25625 183.0Q59.615623 183.75 58.6625 183.75Q57.490623 183.75 56.85 182.90625Q56.209373 182.04688 56.209373 180.85938Q56.209373 180.04688 56.50625 179.35938Q56.803123 178.67188 57.35 178.29688Q57.9125 177.92188 58.678123 177.92188Q59.678123 177.92188 60.334373 178.73438L60.334373 178.04688L61.225 178.04688L61.225 182.96875Q61.225 184.3125 60.959373 184.85938Q60.69375 185.42188 60.1 185.73438Q59.50625 186.0625 58.646873 186.0625Q57.63125 186.0625 57.00625 185.59375Q56.38125 185.14062 56.396873 184.21875ZM57.19375 180.79688Q57.19375 181.92188 57.63125 182.4375Q58.084373 182.95312 58.75625 182.95312Q59.428123 182.95312 59.88125 182.4375Q60.334373 181.92188 60.334373 180.82812Q60.334373 179.78125 59.865623 179.25Q59.396873 178.71875 58.740623 178.71875Q58.1 178.71875 57.646873 179.25Q57.19375 179.76562 57.19375 180.79688ZM62.584373 176.98438L62.584373 175.875L63.553123 175.875L63.553123 176.98438L62.584373 176.98438ZM62.584373 183.75L62.584373 178.04688L63.553123 178.04688L63.553123 183.75L62.584373 183.75ZM68.31875 183.75L68.31875 182.90625Q67.64687 183.875 66.50625 183.875Q66.00625 183.875 65.55312 183.6875Q65.11562 183.48438 64.89687 183.20312Q64.69375 182.90625 64.61562 182.48438Q64.55312 182.20312 64.55312 181.57812L64.55312 178.04688L65.52187 178.04688L65.52187 181.20312Q65.52187 181.96875 65.58437 182.23438Q65.67812 182.60938 65.95937 182.82812Q66.25625 183.04688 66.69375 183.04688Q67.13125 183.04688 67.50625 182.82812Q67.89687 182.59375 68.05312 182.21875Q68.20937 181.82812 68.20937 181.10938L68.20937 178.04688L69.17812 178.04688L69.17812 183.75L68.31875 183.75ZM70.56875 183.75L70.56875 178.04688L71.44375 178.04688L71.44375 178.84375Q71.70937 178.42188 72.14687 178.17188Q72.6 177.92188 73.1625 177.92188Q73.80312 177.92188 74.20937 178.1875Q74.61562 178.4375 74.7875 178.92188Q75.45937 177.92188 76.5375 177.92188Q77.39687 177.92188 77.85 178.39062Q78.30312 178.85938 78.30312 179.82812L78.30312 183.75L77.35 183.75L77.35 180.15625Q77.35 179.57812 77.25625 179.32812Q77.1625 179.0625 76.9125 178.90625Q76.6625 178.75 76.33437 178.75Q75.725 178.75 75.31875 179.15625Q74.92812 179.5625 74.92812 180.4375L74.92812 183.75L73.95937 183.75L73.95937 180.04688Q73.95937 179.40625 73.725 179.07812Q73.49062 178.75 72.95937 178.75Q72.55312 178.75 72.19375 178.96875Q71.85 179.1875 71.69375 179.60938Q71.5375 180.01562 71.5375 180.79688L71.5375 183.75L70.56875 183.75Z" fill-rule="nonzero"/><path fill="#4d6d80" d="M32.85 203.25C32.85 206.5637 30.163708 209.25 26.85 209.25C23.536291 209.25 20.85 206.5637 20.85 203.25C20.85 199.9363 23.536291 197.25 26.85 197.25C30.163708 197.25 32.85 199.9363 32.85 203.25Z" fill-rule="nonzero"/><path fill="#20303a" d="M47.31875 203.98438L48.365623 204.25Q48.0375 205.53125 47.178123 206.21875Q46.334373 206.89062 45.1 206.89062Q43.81875 206.89062 43.021873 206.375Q42.225 205.84375 41.803123 204.85938Q41.396873 203.875 41.396873 202.75Q41.396873 201.53125 41.865623 200.60938Q42.334373 199.6875 43.19375 199.21875Q44.06875 198.73438 45.115623 198.73438Q46.303123 198.73438 47.1 199.34375Q47.9125 199.9375 48.225 201.03125L47.19375 201.28125Q46.928123 200.42188 46.396873 200.03125Q45.88125 199.64062 45.1 199.64062Q44.178123 199.64062 43.56875 200.07812Q42.959373 200.5 42.709373 201.23438Q42.475 201.96875 42.475 202.75Q42.475 203.75 42.75625 204.5Q43.053123 205.25 43.6625 205.625Q44.2875 206.0 45.00625 206.0Q45.88125 206.0 46.490623 205.5Q47.1 204.98438 47.31875 203.98438ZM49.56875 206.75L49.56875 198.875L50.5375 198.875L50.5375 201.70312Q51.225 200.92188 52.25625 200.92188Q52.88125 200.92188 53.35 201.17188Q53.81875 201.42188 54.021873 201.85938Q54.225 202.29688 54.225 203.14062L54.225 206.75L53.25625 206.75L53.25625 203.14062Q53.25625 202.40625 52.94375 202.07812Q52.63125 201.75 52.053123 201.75Q51.615623 201.75 51.240623 201.96875Q50.865623 202.1875 50.69375 202.57812Q50.5375 202.95312 50.5375 203.625L50.5375 206.75L49.56875 206.75ZM55.584373 199.98438L55.584373 198.875L56.553123 198.875L56.553123 199.98438L55.584373 199.98438ZM55.584373 206.75L55.584373 201.04688L56.553123 201.04688L56.553123 206.75L55.584373 206.75ZM57.56875 206.75L57.56875 201.04688L58.44375 201.04688L58.44375 201.85938Q59.06875 200.92188 60.25625 200.92188Q60.771873 200.92188 61.209373 201.10938Q61.646873 201.28125 61.85 201.59375Q62.06875 201.89062 62.1625 202.29688Q62.209373 202.57812 62.209373 203.25L62.209373 206.75L61.240623 206.75L61.240623 203.28125Q61.240623 202.6875 61.13125 202.40625Q61.021873 202.10938 60.725 201.9375Q60.44375 201.75 60.053123 201.75Q59.44375 201.75 58.990623 202.14062Q58.5375 202.53125 58.5375 203.64062L58.5375 206.75L57.56875 206.75ZM67.30312 206.04688Q66.75625 206.5 66.25625 206.6875Q65.77187 206.875 65.19375 206.875Q64.25625 206.875 63.740623 206.42188Q63.240623 205.95312 63.240623 205.25Q63.240623 204.82812 63.428123 204.48438Q63.63125 204.14062 63.928123 203.9375Q64.24062 203.71875 64.63125 203.60938Q64.9125 203.53125 65.49062 203.46875Q66.6625 203.32812 67.20937 203.125Q67.225 202.9375 67.225 202.875Q67.225 202.28125 66.94375 202.04688Q66.58437 201.71875 65.85 201.71875Q65.1625 201.71875 64.83437 201.95312Q64.52187 202.1875 64.36562 202.79688L63.4125 202.67188Q63.5375 202.0625 63.834373 201.6875Q64.13125 201.3125 64.69375 201.125Q65.25625 200.92188 65.99062 200.92188Q66.725 200.92188 67.17812 201.09375Q67.63125 201.26562 67.83437 201.53125Q68.05312 201.78125 68.14687 202.17188Q68.19375 202.42188 68.19375 203.07812L68.19375 204.35938Q68.19375 205.70312 68.25625 206.0625Q68.31875 206.42188 68.50625 206.75L67.49062 206.75Q67.33437 206.45312 67.30312 206.04688ZM67.20937 203.89062Q66.69375 204.10938 65.63125 204.25Q65.0375 204.34375 64.7875 204.45312Q64.55312 204.54688 64.4125 204.76562Q64.27187 204.96875 64.27187 205.21875Q64.27187 205.60938 64.56875 205.875Q64.86562 206.125 65.42812 206.125Q65.99062 206.125 66.4125 205.875Q66.85 205.625 67.06875 205.20312Q67.20937 204.875 67.20937 204.23438L67.20937 203.89062Z" fill-rule="nonzero"/><path fill="#cd897a" d="M32.85 226.25C32.85 229.5637 30.163708 232.25 26.85 232.25C23.536291 232.25 20.85 229.5637 20.85 226.25C20.85 222.9363 23.536291 220.25 26.85 220.25C30.163708 220.25 32.85 222.9363 32.85 226.25Z" fill-rule="nonzero"/><path fill="#20303a" d="M41.88125 229.75L41.88125 221.875L42.9125 221.875L42.9125 229.75L41.88125 229.75ZM44.56875 229.75L44.56875 224.04688L45.44375 224.04688L45.44375 224.85938Q46.06875 223.92188 47.25625 223.92188Q47.771873 223.92188 48.209373 224.10938Q48.646873 224.28125 48.85 224.59375Q49.06875 224.89062 49.1625 225.29688Q49.209373 225.57812 49.209373 226.25L49.209373 229.75L48.240623 229.75L48.240623 226.28125Q48.240623 225.6875 48.13125 225.40625Q48.021873 225.10938 47.725 224.9375Q47.44375 224.75 47.053123 224.75Q46.44375 224.75 45.990623 225.14062Q45.5375 225.53125 45.5375 226.64062L45.5375 229.75L44.56875 229.75ZM54.271873 229.75L54.271873 229.03125Q53.740623 229.875 52.678123 229.875Q52.00625 229.875 51.428123 229.5Q50.85 229.125 50.5375 228.45312Q50.225 227.78125 50.225 226.90625Q50.225 226.04688 50.50625 225.35938Q50.803123 224.65625 51.365623 224.29688Q51.928123 223.92188 52.63125 223.92188Q53.146873 223.92188 53.553123 224.14062Q53.959373 224.35938 54.209373 224.70312L54.209373 221.875L55.178123 221.875L55.178123 229.75L54.271873 229.75ZM51.225 226.90625Q51.225 228.0 51.678123 228.54688Q52.146873 229.07812 52.771873 229.07812Q53.4125 229.07812 53.85 228.5625Q54.2875 228.04688 54.2875 226.98438Q54.2875 225.8125 53.834373 225.26562Q53.396873 224.71875 52.725 224.71875Q52.084373 224.71875 51.646873 225.25Q51.225 225.76562 51.225 226.90625ZM56.584373 222.98438L56.584373 221.875L57.553123 221.875L57.553123 222.98438L56.584373 222.98438ZM56.584373 229.75L56.584373 224.04688L57.553123 224.04688L57.553123 229.75L56.584373 229.75ZM62.303123 229.04688Q61.75625 229.5 61.25625 229.6875Q60.771873 229.875 60.19375 229.875Q59.25625 229.875 58.740623 229.42188Q58.240623 228.95312 58.240623 228.25Q58.240623 227.82812 58.428123 227.48438Q58.63125 227.14062 58.928123 226.9375Q59.240623 226.71875 59.63125 226.60938Q59.9125 226.53125 60.490623 226.46875Q61.6625 226.32812 62.209373 226.125Q62.225 225.9375 62.225 225.875Q62.225 225.28125 61.94375 225.04688Q61.584373 224.71875 60.85 224.71875Q60.1625 224.71875 59.834373 224.95312Q59.521873 225.1875 59.365623 225.79688L58.4125 225.67188Q58.5375 225.0625 58.834373 224.6875Q59.13125 224.3125 59.69375 224.125Q60.25625 223.92188 60.990623 223.92188Q61.725 223.92188 62.178123 224.09375Q62.63125 224.26562 62.834373 224.53125Q63.053123 224.78125 63.146873 225.17188Q63.19375 225.42188 63.19375 226.07812L63.19375 227.35938Q63.19375 228.70312 63.25625 229.0625Q63.31875 229.42188 63.50625 229.75L62.490623 229.75Q62.334373 229.45312 62.303123 229.04688ZM62.209373 226.89062Q61.69375 227.10938 60.63125 227.25Q60.0375 227.34375 59.7875 227.45312Q59.553123 227.54688 59.4125 227.76562Q59.271873 227.96875 59.271873 228.21875Q59.271873 228.60938 59.56875 228.875Q59.865623 229.125 60.428123 229.125Q60.990623 229.125 61.4125 228.875Q61.85 228.625 62.06875 228.20312Q62.209373 227.875 62.209373 227.23438L62.209373 226.89062Z" fill-rule="nonzero"/><path fill="#c6a992" d="M32.85 249.25C32.85 252.5637 30.163708 255.25 26.85 255.25C23.536291 255.25 20.85 252.5637 20.85 249.25C20.85 245.9363 23.536291 243.25 26.85 243.25C30.163708 243.25 32.85 245.9363 32.85 249.25Z" fill-rule="nonzero"/><path fill="#20303a" d="M41.88125 252.75L41.88125 244.875L42.9125 244.875L42.9125 252.75L41.88125 252.75ZM44.56875 252.75L44.56875 247.04688L45.428123 247.04688L45.428123 247.90625Q45.771873 247.29688 46.053123 247.10938Q46.334373 246.92188 46.6625 246.92188Q47.1625 246.92188 47.6625 247.23438L47.334373 248.125Q46.975 247.92188 46.615623 247.92188Q46.303123 247.92188 46.053123 248.10938Q45.803123 248.29688 45.69375 248.64062Q45.5375 249.15625 45.5375 249.76562L45.5375 252.75L44.56875 252.75ZM52.475 250.90625L53.475 251.03125Q53.240623 251.90625 52.6 252.39062Q51.959373 252.875 50.975 252.875Q49.725 252.875 48.990623 252.10938Q48.25625 251.34375 48.25625 249.95312Q48.25625 248.5 48.990623 247.71875Q49.740623 246.92188 50.9125 246.92188Q52.06875 246.92188 52.7875 247.70312Q53.50625 248.46875 53.50625 249.89062Q53.50625 249.96875 53.50625 250.14062L49.25625 250.14062Q49.303123 251.07812 49.771873 251.57812Q50.25625 252.07812 50.975 252.07812Q51.50625 252.07812 51.88125 251.8125Q52.25625 251.53125 52.475 250.90625ZM49.303123 249.34375L52.490623 249.34375Q52.428123 248.625 52.13125 248.26562Q51.6625 247.71875 50.928123 247.71875Q50.25625 247.71875 49.803123 248.17188Q49.35 248.60938 49.303123 249.34375ZM54.553123 252.75L54.553123 244.875L55.521873 244.875L55.521873 252.75L54.553123 252.75ZM60.303123 252.04688Q59.75625 252.5 59.25625 252.6875Q58.771873 252.875 58.19375 252.875Q57.25625 252.875 56.740623 252.42188Q56.240623 251.95312 56.240623 251.25Q56.240623 250.82812 56.428123 250.48438Q56.63125 250.14062 56.928123 249.9375Q57.240623 249.71875 57.63125 249.60938Q57.9125 249.53125 58.490623 249.46875Q59.6625 249.32812 60.209373 249.125Q60.225 248.9375 60.225 248.875Q60.225 248.28125 59.94375 248.04688Q59.584373 247.71875 58.85 247.71875Q58.1625 247.71875 57.834373 247.95312Q57.521873 248.1875 57.365623 248.79688L56.4125 248.67188Q56.5375 248.0625 56.834373 247.6875Q57.13125 247.3125 57.69375 247.125Q58.25625 246.92188 58.990623 246.92188Q59.725 246.92188 60.178123 247.09375Q60.63125 247.26562 60.834373 247.53125Q61.053123 247.78125 61.146873 248.17188Q61.19375 248.42188 61.19375 249.07812L61.19375 250.35938Q61.19375 251.70312 61.25625 252.0625Q61.31875 252.42188 61.50625 252.75L60.490623 252.75Q60.334373 252.45312 60.303123 252.04688ZM60.209373 249.89062Q59.69375 250.10938 58.63125 250.25Q58.0375 250.34375 57.7875 250.45312Q57.553123 250.54688 57.4125 250.76562Q57.271873 250.96875 57.271873 251.21875Q57.271873 251.60938 57.56875 251.875Q57.865623 252.125 58.428123 252.125Q58.990623 252.125 59.4125 251.875Q59.85 251.625 60.06875 251.20312Q60.209373 250.875 60.209373 250.23438L60.209373 249.89062ZM62.56875 252.75L62.56875 247.04688L63.44375 247.04688L63.44375 247.85938Q64.06875 246.92188 65.25625 246.92188Q65.77187 246.92188 66.20937 247.10938Q66.64687 247.28125 66.85 247.59375Q67.06875 247.89062 67.1625 248.29688Q67.20937 248.57812 67.20937 249.25L67.20937 252.75L66.24062 252.75L66.24062 249.28125Q66.24062 248.6875 66.13125 248.40625Q66.02187 248.10938 65.725 247.9375Q65.44375 247.75 65.05312 247.75Q64.44375 247.75 63.990623 248.14062Q63.5375 248.53125 63.5375 249.64062L63.5375 252.75L62.56875 252.75ZM72.27187 252.75L72.27187 252.03125Q71.74062 252.875 70.67812 252.875Q70.00625 252.875 69.42812 252.5Q68.85 252.125 68.5375 251.45312Q68.225 250.78125 68.225 249.90625Q68.225 249.04688 68.50625 248.35938Q68.80312 247.65625 69.36562 247.29688Q69.92812 246.92188 70.63125 246.92188Q71.14687 246.92188 71.55312 247.14062Q71.95937 247.35938 72.20937 247.70312L72.20937 244.875L73.17812 244.875L73.17812 252.75L72.27187 252.75ZM69.225 249.90625Q69.225 251.0 69.67812 251.54688Q70.14687 252.07812 70.77187 252.07812Q71.4125 252.07812 71.85 251.5625Q72.2875 251.04688 72.2875 249.98438Q72.2875 248.8125 71.83437 248.26562Q71.39687 247.71875 70.725 247.71875Q70.08437 247.71875 69.64687 248.25Q69.225 248.76562 69.225 249.90625Z" fill-rule="nonzero"/><path fill="#4db3a9" d="M32.85 272.25C32.85 275.56372 30.163708 278.25 26.85 278.25C23.536291 278.25 20.85 275.56372 20.85 272.25C20.85 268.93628 23.536291 266.25 26.85 266.25C30.163708 266.25 32.85 268.93628 32.85 272.25Z" fill-rule="nonzero"/><path fill="#20303a" d="M46.865623 267.875L47.9125 267.875L47.9125 272.42188Q47.9125 273.60938 47.63125 274.3125Q47.365623 275.01562 46.6625 275.45312Q45.975 275.89062 44.834373 275.89062Q43.725 275.89062 43.021873 275.51562Q42.31875 275.125 42.00625 274.40625Q41.709373 273.67188 41.709373 272.42188L41.709373 267.875L42.75625 267.875L42.75625 272.42188Q42.75625 273.45312 42.94375 273.9375Q43.13125 274.42188 43.6 274.6875Q44.06875 274.9375 44.740623 274.9375Q45.88125 274.9375 46.365623 274.42188Q46.865623 273.90625 46.865623 272.42188L46.865623 267.875ZM49.35 273.21875L50.334373 273.14062Q50.396873 273.71875 50.646873 274.10938Q50.9125 274.48438 51.44375 274.71875Q51.975 274.95312 52.646873 274.95312Q53.25625 274.95312 53.709373 274.78125Q54.1625 274.59375 54.38125 274.29688Q54.615623 273.98438 54.615623 273.60938Q54.615623 273.23438 54.396873 272.96875Q54.178123 272.6875 53.678123 272.5Q53.365623 272.375 52.271873 272.125Q51.19375 271.85938 50.75625 271.625Q50.19375 271.32812 49.9125 270.89062Q49.646873 270.45312 49.646873 269.90625Q49.646873 269.3125 49.975 268.79688Q50.31875 268.28125 50.959373 268.01562Q51.615623 267.73438 52.4125 267.73438Q53.2875 267.73438 53.959373 268.03125Q54.63125 268.3125 54.990623 268.85938Q55.35 269.40625 55.38125 270.09375L54.38125 270.17188Q54.303123 269.42188 53.834373 269.04688Q53.365623 268.65625 52.459373 268.65625Q51.521873 268.65625 51.084373 269.01562Q50.646873 269.35938 50.646873 269.84375Q50.646873 270.26562 50.959373 270.54688Q51.25625 270.8125 52.521873 271.10938Q53.803123 271.39062 54.271873 271.60938Q54.959373 271.92188 55.2875 272.40625Q55.615623 272.89062 55.615623 273.53125Q55.615623 274.15625 55.25625 274.71875Q54.896873 275.26562 54.209373 275.57812Q53.5375 275.89062 52.69375 275.89062Q51.63125 275.89062 50.9125 275.57812Q50.19375 275.26562 49.771873 274.64062Q49.365623 274.01562 49.35 273.21875Z" fill-rule="nonzero"/><path fill="#f2e5d9" d="M32.85 295.25C32.85 298.56372 30.163708 301.25 26.85 301.25C23.536291 301.25 20.85 298.56372 20.85 295.25C20.85 291.93628 23.536291 289.25 26.85 289.25C30.163708 289.25 32.85 291.93628 32.85 295.25Z" fill-rule="nonzero"/><path fill="#20303a" d="M41.6625 298.75L41.6625 290.875L44.615623 290.875Q45.50625 290.875 46.053123 291.125Q46.6 291.35938 46.9125 291.85938Q47.225 292.34375 47.225 292.89062Q47.225 293.39062 46.94375 293.84375Q46.678123 294.28125 46.115623 294.5625Q46.834373 294.76562 47.209373 295.28125Q47.6 295.78125 47.6 296.46875Q47.6 297.01562 47.365623 297.5Q47.13125 297.96875 46.7875 298.23438Q46.44375 298.48438 45.928123 298.625Q45.4125 298.75 44.6625 298.75L41.6625 298.75ZM42.69375 294.1875L44.396873 294.1875Q45.1 294.1875 45.396873 294.09375Q45.7875 293.96875 45.990623 293.70312Q46.19375 293.42188 46.19375 293.01562Q46.19375 292.625 46.00625 292.32812Q45.81875 292.03125 45.459373 291.92188Q45.115623 291.8125 44.271873 291.8125L42.69375 291.8125L42.69375 294.1875ZM42.69375 297.82812L44.6625 297.82812Q45.1625 297.82812 45.365623 297.78125Q45.725 297.71875 45.959373 297.57812Q46.209373 297.42188 46.365623 297.14062Q46.521873 296.84375 46.521873 296.46875Q46.521873 296.03125 46.2875 295.70312Q46.06875 295.375 45.6625 295.25Q45.271873 295.10938 44.521873 295.10938L42.69375 295.10938L42.69375 297.82812ZM48.56875 298.75L48.56875 293.04688L49.428123 293.04688L49.428123 293.90625Q49.771873 293.29688 50.053123 293.10938Q50.334373 292.92188 50.6625 292.92188Q51.1625 292.92188 51.6625 293.23438L51.334373 294.125Q50.975 293.92188 50.615623 293.92188Q50.303123 293.92188 50.053123 294.10938Q49.803123 294.29688 49.69375 294.64062Q49.5375 295.15625 49.5375 295.76562L49.5375 298.75L48.56875 298.75ZM56.303123 298.04688Q55.75625 298.5 55.25625 298.6875Q54.771873 298.875 54.19375 298.875Q53.25625 298.875 52.740623 298.42188Q52.240623 297.95312 52.240623 297.25Q52.240623 296.82812 52.428123 296.48438Q52.63125 296.14062 52.928123 295.9375Q53.240623 295.71875 53.63125 295.60938Q53.9125 295.53125 54.490623 295.46875Q55.6625 295.32812 56.209373 295.125Q56.225 294.9375 56.225 294.875Q56.225 294.28125 55.94375 294.04688Q55.584373 293.71875 54.85 293.71875Q54.1625 293.71875 53.834373 293.95312Q53.521873 294.1875 53.365623 294.79688L52.4125 294.67188Q52.5375 294.0625 52.834373 293.6875Q53.13125 293.3125 53.69375 293.125Q54.25625 292.92188 54.990623 292.92188Q55.725 292.92188 56.178123 293.09375Q56.63125 293.26562 56.834373 293.53125Q57.053123 293.78125 57.146873 294.17188Q57.19375 294.42188 57.19375 295.07812L57.19375 296.35938Q57.19375 297.70312 57.25625 298.0625Q57.31875 298.42188 57.50625 298.75L56.490623 298.75Q56.334373 298.45312 56.303123 298.04688ZM56.209373 295.89062Q55.69375 296.10938 54.63125 296.25Q54.0375 296.34375 53.7875 296.45312Q53.553123 296.54688 53.4125 296.76562Q53.271873 296.96875 53.271873 297.21875Q53.271873 297.60938 53.56875 297.875Q53.865623 298.125 54.428123 298.125Q54.990623 298.125 55.4125 297.875Q55.85 297.625 56.06875 297.20312Q56.209373 296.875 56.209373 296.23438L56.209373 295.89062ZM58.06875 298.75L58.06875 297.96875L61.69375 293.79688Q61.084373 293.82812 60.6 293.82812L58.2875 293.82812L58.2875 293.04688L62.94375 293.04688L62.94375 293.6875L59.85 297.3125L59.25625 297.96875Q59.9125 297.92188 60.475 297.92188L63.115623 297.92188L63.115623 298.75L58.06875 298.75ZM64.58437 291.98438L64.58437 290.875L65.55312 290.875L65.55312 291.98438L64.58437 291.98438ZM64.58437 298.75L64.58437 293.04688L65.55312 293.04688L65.55312 298.75L64.58437 298.75ZM66.55312 298.75L66.55312 290.875L67.52187 290.875L67.52187 298.75L66.55312 298.75Z" fill-rule="nonzero"/><path fill="#9ad9e2" d="M32.85 318.25C32.85 321.56372 30.163708 324.25 26.85 324.25C23.536291 324.25 20.85 321.56372 20.85 318.25C20.85 314.93628 23.536291 312.25 26.85 312.25C30.163708 312.25 32.85 314.93628 32.85 318.25Z" fill-rule="nonzero"/><path fill="#20303a" d="M43.709373 321.75L43.709373 314.8125L41.115623 314.8125L41.115623 313.875L47.35 313.875L47.35 314.8125L44.740623 314.8125L44.740623 321.75L43.709373 321.75ZM52.303123 321.04688Q51.75625 321.5 51.25625 321.6875Q50.771873 321.875 50.19375 321.875Q49.25625 321.875 48.740623 321.42188Q48.240623 320.95312 48.240623 320.25Q48.240623 319.82812 48.428123 319.48438Q48.63125 319.14062 48.928123 318.9375Q49.240623 318.71875 49.63125 318.60938Q49.9125 318.53125 50.490623 318.46875Q51.6625 318.32812 52.209373 318.125Q52.225 317.9375 52.225 317.875Q52.225 317.28125 51.94375 317.04688Q51.584373 316.71875 50.85 316.71875Q50.1625 316.71875 49.834373 316.95312Q49.521873 317.1875 49.365623 317.79688L48.4125 317.67188Q48.5375 317.0625 48.834373 316.6875Q49.13125 316.3125 49.69375 316.125Q50.25625 315.92188 50.990623 315.92188Q51.725 315.92188 52.178123 316.09375Q52.63125 316.26562 52.834373 316.53125Q53.053123 316.78125 53.146873 317.17188Q53.19375 317.42188 53.19375 318.07812L53.19375 319.35938Q53.19375 320.70312 53.25625 321.0625Q53.31875 321.42188 53.50625 321.75L52.490623 321.75Q52.334373 321.45312 52.303123 321.04688ZM52.209373 318.89062Q51.69375 319.10938 50.63125 319.25Q50.0375 319.34375 49.7875 319.45312Q49.553123 319.54688 49.4125 319.76562Q49.271873 319.96875 49.271873 320.21875Q49.271873 320.60938 49.56875 320.875Q49.865623 321.125 50.428123 321.125Q50.990623 321.125 51.4125 320.875Q51.85 320.625 52.06875 320.20312Q52.209373 319.875 52.209373 319.23438L52.209373 318.89062ZM54.584373 314.98438L54.584373 313.875L55.553123 313.875L55.553123 314.98438L54.584373 314.98438ZM54.584373 321.75L54.584373 316.04688L55.553123 316.04688L55.553123 321.75L54.584373 321.75ZM57.63125 321.75L55.88125 316.04688L56.88125 316.04688L57.7875 319.34375L58.13125 320.5625Q58.146873 320.46875 58.428123 319.39062L59.334373 316.04688L60.31875 316.04688L61.178123 319.35938L61.459373 320.4375L61.7875 319.34375L62.771873 316.04688L63.709373 316.04688L61.928123 321.75L60.928123 321.75L60.00625 318.32812L59.7875 317.35938L58.63125 321.75L57.63125 321.75ZM68.30312 321.04688Q67.75625 321.5 67.25625 321.6875Q66.77187 321.875 66.19375 321.875Q65.25625 321.875 64.74062 321.42188Q64.24062 320.95312 64.24062 320.25Q64.24062 319.82812 64.42812 319.48438Q64.63125 319.14062 64.92812 318.9375Q65.24062 318.71875 65.63125 318.60938Q65.9125 318.53125 66.49062 318.46875Q67.6625 318.32812 68.20937 318.125Q68.225 317.9375 68.225 317.875Q68.225 317.28125 67.94375 317.04688Q67.58437 316.71875 66.85 316.71875Q66.1625 316.71875 65.83437 316.95312Q65.52187 317.1875 65.36562 317.79688L64.4125 317.67188Q64.5375 317.0625 64.83437 316.6875Q65.13125 316.3125 65.69375 316.125Q66.25625 315.92188 66.99062 315.92188Q67.725 315.92188 68.17812 316.09375Q68.63125 316.26562 68.83437 316.53125Q69.05312 316.78125 69.14687 317.17188Q69.19375 317.42188 69.19375 318.07812L69.19375 319.35938Q69.19375 320.70312 69.25625 321.0625Q69.31875 321.42188 69.50625 321.75L68.49062 321.75Q68.33437 321.45312 68.30312 321.04688ZM68.20937 318.89062Q67.69375 319.10938 66.63125 319.25Q66.0375 319.34375 65.7875 319.45312Q65.55312 319.54688 65.4125 319.76562Q65.27187 319.96875 65.27187 320.21875Q65.27187 320.60938 65.56875 320.875Q65.86562 321.125 66.42812 321.125Q66.99062 321.125 67.4125 320.875Q67.85 320.625 68.06875 320.20312Q68.20937 319.875 68.20937 319.23438L68.20937 318.89062ZM70.56875 321.75L70.56875 316.04688L71.44375 316.04688L71.44375 316.85938Q72.06875 315.92188 73.25625 315.92188Q73.77187 315.92188 74.20937 316.10938Q74.64687 316.28125 74.85 316.59375Q75.06875 316.89062 75.1625 317.29688Q75.20937 317.57812 75.20937 318.25L75.20937 321.75L74.24062 321.75L74.24062 318.28125Q74.24062 317.6875 74.13125 317.40625Q74.02187 317.10938 73.725 316.9375Q73.44375 316.75 73.05312 316.75Q72.44375 316.75 71.99062 317.14062Q71.5375 317.53125 71.5375 318.64062L71.5375 321.75L70.56875 321.75Z" fill-rule="nonzero"/><path fill="#99acb7" d="M32.85 341.25C32.85 344.56372 30.163708 347.25 26.85 347.25C23.536291 347.25 20.85 344.56372 20.85 341.25C20.85 337.93628 23.536291 335.25 26.85 335.25C30.163708 335.25 32.85 337.93628 32.85 341.25Z" fill-rule="nonzero"/><path fill="#20303a" d="M41.35 342.21875L42.334373 342.14062Q42.396873 342.71875 42.646873 343.10938Q42.9125 343.48438 43.44375 343.71875Q43.975 343.95312 44.646873 343.95312Q45.25625 343.95312 45.709373 343.78125Q46.1625 343.59375 46.38125 343.29688Q46.615623 342.98438 46.615623 342.60938Q46.615623 342.23438 46.396873 341.96875Q46.178123 341.6875 45.678123 341.5Q45.365623 341.375 44.271873 341.125Q43.19375 340.85938 42.75625 340.625Q42.19375 340.32812 41.9125 339.89062Q41.646873 339.45312 41.646873 338.90625Q41.646873 338.3125 41.975 337.79688Q42.31875 337.28125 42.959373 337.01562Q43.615623 336.73438 44.4125 336.73438Q45.2875 336.73438 45.959373 337.03125Q46.63125 337.3125 46.990623 337.85938Q47.35 338.40625 47.38125 339.09375L46.38125 339.17188Q46.303123 338.42188 45.834373 338.04688Q45.365623 337.65625 44.459373 337.65625Q43.521873 337.65625 43.084373 338.01562Q42.646873 338.35938 42.646873 338.84375Q42.646873 339.26562 42.959373 339.54688Q43.25625 339.8125 44.521873 340.10938Q45.803123 340.39062 46.271873 340.60938Q46.959373 340.92188 47.2875 341.40625Q47.615623 341.89062 47.615623 342.53125Q47.615623 343.15625 47.25625 343.71875Q46.896873 344.26562 46.209373 344.57812Q45.5375 344.89062 44.69375 344.89062Q43.63125 344.89062 42.9125 344.57812Q42.19375 344.26562 41.771873 343.64062Q41.365623 343.01562 41.35 342.21875ZM48.56875 346.9375L48.56875 339.04688L49.459373 339.04688L49.459373 339.78125Q49.771873 339.35938 50.1625 339.14062Q50.553123 338.92188 51.115623 338.92188Q51.834373 338.92188 52.396873 339.29688Q52.959373 339.67188 53.240623 340.35938Q53.521873 341.03125 53.521873 341.85938Q53.521873 342.73438 53.209373 343.4375Q52.896873 344.125 52.2875 344.5Q51.69375 344.875 51.0375 344.875Q50.553123 344.875 50.1625 344.67188Q49.7875 344.46875 49.5375 344.15625L49.5375 346.9375L48.56875 346.9375ZM49.44375 341.9375Q49.44375 343.03125 49.896873 343.5625Q50.35 344.07812 50.975 344.07812Q51.615623 344.07812 52.06875 343.54688Q52.5375 343.0 52.5375 341.84375Q52.5375 340.76562 52.084373 340.21875Q51.646873 339.67188 51.021873 339.67188Q50.396873 339.67188 49.9125 340.25Q49.44375 340.82812 49.44375 341.9375ZM58.303123 344.04688Q57.75625 344.5 57.25625 344.6875Q56.771873 344.875 56.19375 344.875Q55.25625 344.875 54.740623 344.42188Q54.240623 343.95312 54.240623 343.25Q54.240623 342.82812 54.428123 342.48438Q54.63125 342.14062 54.928123 341.9375Q55.240623 341.71875 55.63125 341.60938Q55.9125 341.53125 56.490623 341.46875Q57.6625 341.32812 58.209373 341.125Q58.225 340.9375 58.225 340.875Q58.225 340.28125 57.94375 340.04688Q57.584373 339.71875 56.85 339.71875Q56.1625 339.71875 55.834373 339.95312Q55.521873 340.1875 55.365623 340.79688L54.4125 340.67188Q54.5375 340.0625 54.834373 339.6875Q55.13125 339.3125 55.69375 339.125Q56.25625 338.92188 56.990623 338.92188Q57.725 338.92188 58.178123 339.09375Q58.63125 339.26562 58.834373 339.53125Q59.053123 339.78125 59.146873 340.17188Q59.19375 340.42188 59.19375 341.07812L59.19375 342.35938Q59.19375 343.70312 59.25625 344.0625Q59.31875 344.42188 59.50625 344.75L58.490623 344.75Q58.334373 344.45312 58.303123 344.04688ZM58.209373 341.89062Q57.69375 342.10938 56.63125 342.25Q56.0375 342.34375 55.7875 342.45312Q55.553123 342.54688 55.4125 342.76562Q55.271873 342.96875 55.271873 343.21875Q55.271873 343.60938 55.56875 343.875Q55.865623 344.125 56.428123 344.125Q56.990623 344.125 57.4125 343.875Q57.85 343.625 58.06875 343.20312Q58.209373 342.875 58.209373 342.23438L58.209373 341.89062ZM60.584373 337.98438L60.584373 336.875L61.553123 336.875L61.553123 337.98438L60.584373 337.98438ZM60.584373 344.75L60.584373 339.04688L61.553123 339.04688L61.553123 344.75L60.584373 344.75ZM62.56875 344.75L62.56875 339.04688L63.44375 339.04688L63.44375 339.85938Q64.06875 338.92188 65.25625 338.92188Q65.77187 338.92188 66.20937 339.10938Q66.64687 339.28125 66.85 339.59375Q67.06875 339.89062 67.1625 340.29688Q67.20937 340.57812 67.20937 341.25L67.20937 344.75L66.24062 344.75L66.24062 341.28125Q66.24062 340.6875 66.13125 340.40625Q66.02187 340.10938 65.725 339.9375Q65.44375 339.75 65.05312 339.75Q64.44375 339.75 63.990623 340.14062Q63.5375 340.53125 63.5375 341.64062L63.5375 344.75L62.56875 344.75Z" fill-rule="nonzero"/><path fill="#e3bcb3" d="M32.85 364.25C32.85 367.56372 30.163708 370.25 26.85 370.25C23.536291 370.25 20.85 367.56372 20.85 364.25C20.85 360.93628 23.536291 358.25 26.85 358.25C30.163708 358.25 32.85 360.93628 32.85 364.25Z" fill-rule="nonzero"/><path fill="#20303a" d="M43.709373 367.75L43.709373 360.8125L41.115623 360.8125L41.115623 359.875L47.35 359.875L47.35 360.8125L44.740623 360.8125L44.740623 367.75L43.709373 367.75ZM52.31875 367.75L52.31875 366.90625Q51.646873 367.875 50.50625 367.875Q50.00625 367.875 49.553123 367.6875Q49.115623 367.48438 48.896873 367.20312Q48.69375 366.90625 48.615623 366.48438Q48.553123 366.20312 48.553123 365.57812L48.553123 362.04688L49.521873 362.04688L49.521873 365.20312Q49.521873 365.96875 49.584373 366.23438Q49.678123 366.60938 49.959373 366.82812Q50.25625 367.04688 50.69375 367.04688Q51.13125 367.04688 51.50625 366.82812Q51.896873 366.59375 52.053123 366.21875Q52.209373 365.82812 52.209373 365.10938L52.209373 362.04688L53.178123 362.04688L53.178123 367.75L52.31875 367.75ZM54.56875 367.75L54.56875 362.04688L55.428123 362.04688L55.428123 362.90625Q55.771873 362.29688 56.053123 362.10938Q56.334373 361.92188 56.6625 361.92188Q57.1625 361.92188 57.6625 362.23438L57.334373 363.125Q56.975 362.92188 56.615623 362.92188Q56.303123 362.92188 56.053123 363.10938Q55.803123 363.29688 55.69375 363.64062Q55.5375 364.15625 55.5375 364.76562L55.5375 367.75L54.56875 367.75ZM58.584373 367.75L58.584373 359.875L59.553123 359.875L59.553123 364.35938L61.834373 362.04688L63.084373 362.04688L60.9125 364.15625L63.303123 367.75L62.115623 367.75L60.225 364.82812L59.553123 365.48438L59.553123 367.75L58.584373 367.75ZM68.475 365.90625L69.475 366.03125Q69.24062 366.90625 68.6 367.39062Q67.95937 367.875 66.975 367.875Q65.725 367.875 64.99062 367.10938Q64.25625 366.34375 64.25625 364.95312Q64.25625 363.5 64.99062 362.71875Q65.74062 361.92188 66.9125 361.92188Q68.06875 361.92188 68.7875 362.70312Q69.50625 363.46875 69.50625 364.89062Q69.50625 364.96875 69.50625 365.14062L65.25625 365.14062Q65.30312 366.07812 65.77187 366.57812Q66.25625 367.07812 66.975 367.07812Q67.50625 367.07812 67.88125 366.8125Q68.25625 366.53125 68.475 365.90625ZM65.30312 364.34375L68.49062 364.34375Q68.42812 363.625 68.13125 363.26562Q67.6625 362.71875 66.92812 362.71875Q66.25625 362.71875 65.80312 363.17188Q65.35 363.60938 65.30312 364.34375ZM70.5375 369.95312L70.42812 369.04688Q70.74062 369.125 70.975 369.125Q71.30312 369.125 71.49062 369.01562Q71.69375 368.90625 71.80312 368.71875Q71.89687 368.57812 72.1 368.0Q72.13125 367.92188 72.19375 367.76562L70.02187 362.04688L71.06875 362.04688L72.25625 365.34375Q72.49062 365.98438 72.6625 366.67188Q72.83437 366.0 73.06875 365.375L74.2875 362.04688L75.25625 362.04688L73.08437 367.84375Q72.74062 368.78125 72.5375 369.14062Q72.2875 369.625 71.94375 369.84375Q71.61562 370.0625 71.1625 370.0625Q70.88125 370.0625 70.5375 369.95312Z" fill-rule="nonzero"/><path fill="#decec1" d="M32.85 387.25C32.85 390.56372 30.163708 393.25 26.85 393.25C23.536291 393.25 20.85 390.56372 20.85 387.25C20.85 383.93628 23.536291 381.25 26.85 381.25C30.163708 381.25 32.85 383.93628 32.85 387.25Z" fill-rule="nonzero"/><path fill="#20303a" d="M43.94375 390.75L40.896873 382.875L42.021873 382.875L44.06875 388.59375Q44.31875 389.28125 44.490623 389.89062Q44.6625 389.23438 44.9125 388.59375L47.0375 382.875L48.1 382.875L45.021873 390.75L43.94375 390.75ZM52.475 388.90625L53.475 389.03125Q53.240623 389.90625 52.6 390.39062Q51.959373 390.875 50.975 390.875Q49.725 390.875 48.990623 390.10938Q48.25625 389.34375 48.25625 387.95312Q48.25625 386.5 48.990623 385.71875Q49.740623 384.92188 50.9125 384.92188Q52.06875 384.92188 52.7875 385.70312Q53.50625 386.46875 53.50625 387.89062Q53.50625 387.96875 53.50625 388.14062L49.25625 388.14062Q49.303123 389.07812 49.771873 389.57812Q50.25625 390.07812 50.975 390.07812Q51.50625 390.07812 51.88125 389.8125Q52.25625 389.53125 52.475 388.90625ZM49.303123 387.34375L52.490623 387.34375Q52.428123 386.625 52.13125 386.26562Q51.6625 385.71875 50.928123 385.71875Q50.25625 385.71875 49.803123 386.17188Q49.35 386.60938 49.303123 387.34375ZM54.56875 390.75L54.56875 385.04688L55.44375 385.04688L55.44375 385.85938Q56.06875 384.92188 57.25625 384.92188Q57.771873 384.92188 58.209373 385.10938Q58.646873 385.28125 58.85 385.59375Q59.06875 385.89062 59.1625 386.29688Q59.209373 386.57812 59.209373 387.25L59.209373 390.75L58.240623 390.75L58.240623 387.28125Q58.240623 386.6875 58.13125 386.40625Q58.021873 386.10938 57.725 385.9375Q57.44375 385.75 57.053123 385.75Q56.44375 385.75 55.990623 386.14062Q55.5375 386.53125 55.5375 387.64062L55.5375 390.75L54.56875 390.75ZM64.475 388.90625L65.475 389.03125Q65.24062 389.90625 64.6 390.39062Q63.959373 390.875 62.975 390.875Q61.725 390.875 60.990623 390.10938Q60.25625 389.34375 60.25625 387.95312Q60.25625 386.5 60.990623 385.71875Q61.740623 384.92188 62.9125 384.92188Q64.06875 384.92188 64.7875 385.70312Q65.50625 386.46875 65.50625 387.89062Q65.50625 387.96875 65.50625 388.14062L61.25625 388.14062Q61.303123 389.07812 61.771873 389.57812Q62.25625 390.07812 62.975 390.07812Q63.50625 390.07812 63.88125 389.8125Q64.25625 389.53125 64.475 388.90625ZM61.303123 387.34375L64.49062 387.34375Q64.42812 386.625 64.13125 386.26562Q63.6625 385.71875 62.928123 385.71875Q62.25625 385.71875 61.803123 386.17188Q61.35 386.60938 61.303123 387.34375ZM66.06875 390.75L66.06875 389.96875L69.69375 385.79688Q69.08437 385.82812 68.6 385.82812L66.2875 385.82812L66.2875 385.04688L70.94375 385.04688L70.94375 385.6875L67.85 389.3125L67.25625 389.96875Q67.9125 389.92188 68.475 389.92188L71.11562 389.92188L71.11562 390.75L66.06875 390.75ZM76.31875 390.75L76.31875 389.90625Q75.64687 390.875 74.50625 390.875Q74.00625 390.875 73.55312 390.6875Q73.11562 390.48438 72.89687 390.20312Q72.69375 389.90625 72.61562 389.48438Q72.55312 389.20312 72.55312 388.57812L72.55312 385.04688L73.52187 385.04688L73.52187 388.20312Q73.52187 388.96875 73.58437 389.23438Q73.67812 389.60938 73.95937 389.82812Q74.25625 390.04688 74.69375 390.04688Q75.13125 390.04688 75.50625 389.82812Q75.89687 389.59375 76.05312 389.21875Q76.20937 388.82812 76.20937 388.10938L76.20937 385.04688L77.17812 385.04688L77.17812 390.75L76.31875 390.75ZM82.475 388.90625L83.475 389.03125Q83.24062 389.90625 82.6 390.39062Q81.95937 390.875 80.975 390.875Q79.725 390.875 78.99062 390.10938Q78.25625 389.34375 78.25625 387.95312Q78.25625 386.5 78.99062 385.71875Q79.74062 384.92188 80.9125 384.92188Q82.06875 384.92188 82.7875 385.70312Q83.50625 386.46875 83.50625 387.89062Q83.50625 387.96875 83.50625 388.14062L79.25625 388.14062Q79.30312 389.07812 79.77187 389.57812Q80.25625 390.07812 80.975 390.07812Q81.50625 390.07812 81.88125 389.8125Q82.25625 389.53125 82.475 388.90625ZM79.30312 387.34375L82.49062 387.34375Q82.42812 386.625 82.13125 386.26562Q81.6625 385.71875 80.92812 385.71875Q80.25625 385.71875 79.80312 386.17188Q79.35 386.60938 79.30312 387.34375ZM84.55312 390.75L84.55312 382.875L85.52187 382.875L85.52187 390.75L84.55312 390.75ZM90.30312 390.04688Q89.75625 390.5 89.25625 390.6875Q88.77187 390.875 88.19375 390.875Q87.25625 390.875 86.74062 390.42188Q86.24062 389.95312 86.24062 389.25Q86.24062 388.82812 86.42812 388.48438Q86.63125 388.14062 86.92812 387.9375Q87.24062 387.71875 87.63125 387.60938Q87.9125 387.53125 88.49062 387.46875Q89.6625 387.32812 90.20937 387.125Q90.225 386.9375 90.225 386.875Q90.225 386.28125 89.94375 386.04688Q89.58437 385.71875 88.85 385.71875Q88.1625 385.71875 87.83437 385.95312Q87.52187 386.1875 87.36562 386.79688L86.4125 386.67188Q86.5375 386.0625 86.83437 385.6875Q87.13125 385.3125 87.69375 385.125Q88.25625 384.92188 88.99062 384.92188Q89.725 384.92188 90.17812 385.09375Q90.63125 385.26562 90.83437 385.53125Q91.05312 385.78125 91.14687 386.17188Q91.19375 386.42188 91.19375 387.07812L91.19375 388.35938Q91.19375 389.70312 91.25625 390.0625Q91.31875 390.42188 91.50625 390.75L90.49062 390.75Q90.33437 390.45312 90.30312 390.04688ZM90.20937 387.89062Q89.69375 388.10938 88.63125 388.25Q88.0375 388.34375 87.7875 388.45312Q87.55312 388.54688 87.4125 388.76562Q87.27187 388.96875 87.27187 389.21875Q87.27187 389.60938 87.56875 389.875Q87.86562 390.125 88.42812 390.125Q88.99062 390.125 89.4125 389.875Q89.85 389.625 90.06875 389.20312Q90.20937 388.875 90.20937 388.23438L90.20937 387.89062Z" fill-rule="nonzero"/><path fill="#798389" d="M32.615623 34.834373L34.50625 35.303123Q33.9125 37.646873 32.365623 38.88125Q30.81875 40.1 28.56875 40.1Q26.25625 40.1 24.803125 39.1625Q23.365625 38.209373 22.6 36.428123Q21.85 34.63125 21.85 32.584373Q21.85 30.349998 22.69375 28.693748Q23.553125 27.021873 25.13125 26.162498Q26.709375 25.287498 28.6 25.287498Q30.75625 25.287498 32.209373 26.381248Q33.678123 27.474998 34.25625 29.459373L32.396873 29.896873Q31.896875 28.334373 30.94375 27.631248Q30.00625 26.912498 28.56875 26.912498Q26.9125 26.912498 25.803125 27.709373Q24.69375 28.490623 24.240625 29.834373Q23.803125 31.162498 23.803125 32.56875Q23.803125 34.396873 24.334375 35.771873Q24.865625 37.13125 25.990625 37.803123Q27.115625 38.475 28.4125 38.475Q30.00625 38.475 31.115625 37.553123Q32.225 36.63125 32.615623 34.834373ZM35.521873 34.6625Q35.521873 31.787498 37.115623 30.396873Q38.459373 29.240623 40.38125 29.240623Q42.521873 29.240623 43.865623 30.646873Q45.225 32.053123 45.225 34.521873Q45.225 36.521873 44.63125 37.678123Q44.0375 38.81875 42.88125 39.459373Q41.740623 40.084373 40.38125 40.084373Q38.19375 40.084373 36.85 38.69375Q35.521873 37.2875 35.521873 34.6625ZM37.31875 34.6625Q37.31875 36.6625 38.178123 37.646873Q39.053123 38.63125 40.38125 38.63125Q41.69375 38.63125 42.553123 37.646873Q43.428123 36.646873 43.428123 34.6Q43.428123 32.678123 42.553123 31.693748Q41.678123 30.693748 40.38125 30.693748Q39.053123 30.693748 38.178123 31.693748Q37.31875 32.678123 37.31875 34.6625ZM53.959373 39.85L53.959373 38.31875Q52.75625 40.084373 50.678123 40.084373Q49.75625 40.084373 48.959373 39.740623Q48.1625 39.38125 47.771873 38.85Q47.396873 38.31875 47.240623 37.5375Q47.13125 37.021873 47.13125 35.896873L47.13125 29.474998L48.88125 29.474998L48.88125 35.225Q48.88125 36.6 48.990623 37.084373Q49.1625 37.771873 49.69375 38.178123Q50.240623 38.56875 51.021873 38.56875Q51.81875 38.56875 52.50625 38.1625Q53.209373 37.75625 53.490623 37.06875Q53.7875 36.365623 53.7875 35.0375L53.7875 29.474998L55.5375 29.474998L55.5375 39.85L53.959373 39.85ZM58.1625 39.85L58.1625 29.474998L59.75625 29.474998L59.75625 30.959373Q60.896873 29.240623 63.053123 29.240623Q63.990623 29.240623 64.77187 29.584373Q65.56875 29.912498 65.95937 30.459373Q66.35 31.006248 66.50625 31.756248Q66.6 32.25625 66.6 33.475L66.6 39.85L64.83437 39.85L64.83437 33.5375Q64.83437 32.459373 64.63125 31.928123Q64.42812 31.396873 63.896873 31.084373Q63.38125 30.771873 62.678123 30.771873Q61.553123 30.771873 60.740623 31.490623Q59.928123 32.19375 59.928123 34.178123L59.928123 39.85L58.1625 39.85ZM73.00625 38.271873L73.25625 39.834373Q72.52187 39.990623 71.92812 39.990623Q70.975 39.990623 70.44375 39.69375Q69.92812 39.38125 69.70937 38.896873Q69.49062 38.396873 69.49062 36.81875L69.49062 30.849998L68.20937 30.849998L68.20937 29.474998L69.49062 29.474998L69.49062 26.912498L71.24062 25.849998L71.24062 29.474998L73.00625 29.474998L73.00625 30.849998L71.24062 30.849998L71.24062 36.9125Q71.24062 37.6625 71.33437 37.88125Q71.42812 38.084373 71.63125 38.225Q71.85 38.35 72.24062 38.35Q72.52187 38.35 73.00625 38.271873ZM75.14687 39.85L75.14687 29.474998L76.725 29.474998L76.725 31.053123Q77.33437 29.943748 77.85 29.599998Q78.36562 29.240623 78.975 29.240623Q79.86562 29.240623 80.7875 29.803123L80.17812 31.443748Q79.5375 31.053123 78.89687 31.053123Q78.31875 31.053123 77.85 31.412498Q77.39687 31.756248 77.19375 32.365623Q76.9125 33.303123 76.9125 34.4125L76.9125 39.85L75.14687 39.85ZM82.08437 43.85L81.89687 42.19375Q82.475 42.35 82.89687 42.35Q83.49062 42.35 83.83437 42.146873Q84.19375 41.959373 84.4125 41.615623Q84.58437 41.35 84.95937 40.303123Q85.00625 40.146873 85.11562 39.865623L81.17812 29.474998L83.06875 29.474998L85.225 35.490623Q85.64687 36.63125 85.975 37.88125Q86.2875 36.678123 86.69375 35.521873L88.9125 29.474998L90.67812 29.474998L86.725 40.021873Q86.1 41.740623 85.74062 42.38125Q85.27187 43.25625 84.6625 43.646873Q84.06875 44.053123 83.225 44.053123Q82.70937 44.053123 82.08437 43.85ZM97.52187 34.6625Q97.52187 31.787498 99.11562 30.396873Q100.45937 29.240623 102.38125 29.240623Q104.52187 29.240623 105.86562 30.646873Q107.225 32.053123 107.225 34.521873Q107.225 36.521873 106.63125 37.678123Q106.0375 38.81875 104.88125 39.459373Q103.74062 40.084373 102.38125 40.084373Q100.19375 40.084373 98.85 38.69375Q97.52187 37.2875 97.52187 34.6625ZM99.31875 34.6625Q99.31875 36.6625 100.17812 37.646873Q101.05312 38.63125 102.38125 38.63125Q103.69375 38.63125 104.55312 37.646873Q105.42812 36.646873 105.42812 34.6Q105.42812 32.678123 104.55312 31.693748Q103.67812 30.693748 102.38125 30.693748Q101.05312 30.693748 100.17812 31.693748Q99.31875 32.678123 99.31875 34.6625ZM109.58437 39.85L109.58437 30.849998L108.0375 30.849998L108.0375 29.474998L109.58437 29.474998L109.58437 28.381248Q109.58437 27.334373 109.77187 26.818748Q110.02187 26.131248 110.6625 25.709373Q111.30312 25.287498 112.45937 25.287498Q113.20937 25.287498 114.1 25.459373L113.83437 26.990623Q113.2875 26.896873 112.80312 26.896873Q112.00625 26.896873 111.6625 27.240623Q111.33437 27.584373 111.33437 28.521873L111.33437 29.474998L113.36562 29.474998L113.36562 30.849998L111.33437 30.849998L111.33437 39.85L109.58437 39.85ZM120.81875 32.88125Q120.81875 29.318748 122.725 27.303123Q124.64687 25.271873 127.67812 25.271873Q129.6625 25.271873 131.24063 26.224998Q132.83438 27.178123 133.6625 28.881248Q134.50626 30.568748 134.50626 32.709373Q134.50626 34.88125 133.63126 36.6Q132.75626 38.31875 131.13126 39.209373Q129.52188 40.1 127.6625 40.1Q125.64687 40.1 124.05312 39.13125Q122.45937 38.146873 121.63125 36.459373Q120.81875 34.75625 120.81875 32.88125ZM122.77187 32.9125Q122.77187 35.490623 124.1625 36.990623Q125.55312 38.475 127.64687 38.475Q129.7875 38.475 131.1625 36.975Q132.55313 35.459373 132.55313 32.69375Q132.55313 30.959373 131.95938 29.662498Q131.38126 28.349998 130.24063 27.631248Q129.1 26.912498 127.67812 26.912498Q125.67812 26.912498 124.225 28.303123Q122.77187 29.678123 122.77187 32.9125ZM137.14688 39.85L137.14688 29.474998L138.725 29.474998L138.725 31.053123Q139.33438 29.943748 139.85 29.599998Q140.36563 29.240623 140.975 29.240623Q141.86563 29.240623 142.7875 29.803123L142.17813 31.443748Q141.5375 31.053123 140.89688 31.053123Q140.31876 31.053123 139.85 31.412498Q139.39688 31.756248 139.19376 32.365623Q138.9125 33.303123 138.9125 34.4125L138.9125 39.85L137.14688 39.85ZM144.17813 27.553123L144.17813 25.537498L145.94376 25.537498L145.94376 27.553123L144.17813 27.553123ZM144.17813 39.85L144.17813 29.474998L145.94376 29.474998L145.94376 39.85L144.17813 39.85ZM147.85 40.709373L149.55313 40.959373Q149.6625 41.75625 150.14688 42.115623Q150.80313 42.6 151.94376 42.6Q153.1625 42.6 153.81876 42.115623Q154.49063 41.63125 154.725 40.75625Q154.86563 40.209373 154.85 38.490623Q153.69376 39.85 151.975 39.85Q149.83438 39.85 148.6625 38.303123Q147.49063 36.75625 147.49063 34.6Q147.49063 33.115623 148.02188 31.865623Q148.56876 30.615623 149.58438 29.928123Q150.61563 29.240623 151.99063 29.240623Q153.81876 29.240623 155.02188 30.724998L155.02188 29.474998L156.63126 29.474998L156.63126 38.44375Q156.63126 40.865623 156.13126 41.865623Q155.64688 42.88125 154.56876 43.459373Q153.50626 44.053123 151.94376 44.053123Q150.1 44.053123 148.94376 43.225Q147.80313 42.396873 147.85 40.709373ZM149.30313 34.475Q149.30313 36.521873 150.11563 37.459373Q150.92813 38.396873 152.14688 38.396873Q153.35 38.396873 154.1625 37.459373Q154.99063 36.521873 154.99063 34.5375Q154.99063 32.63125 154.14688 31.662498Q153.30313 30.693748 152.11563 30.693748Q150.94376 30.693748 150.11563 31.646873Q149.30313 32.6 149.30313 34.475ZM159.17813 27.553123L159.17813 25.537498L160.94376 25.537498L160.94376 27.553123L159.17813 27.553123ZM159.17813 39.85L159.17813 29.474998L160.94376 29.474998L160.94376 39.85L159.17813 39.85ZM163.1625 39.85L163.1625 29.474998L164.75626 29.474998L164.75626 30.959373Q165.89688 29.240623 168.05313 29.240623Q168.99063 29.240623 169.77188 29.584373Q170.56876 29.912498 170.95938 30.459373Q171.35 31.006248 171.50626 31.756248Q171.6 32.25625 171.6 33.475L171.6 39.85L169.83438 39.85L169.83438 33.5375Q169.83438 32.459373 169.63126 31.928123Q169.42813 31.396873 168.89688 31.084373Q168.38126 30.771873 167.67813 30.771873Q166.55313 30.771873 165.74063 31.490623Q164.92813 32.19375 164.92813 34.178123L164.92813 39.85L163.1625 39.85Z" fill-rule="nonzero"/></svg>