<svg version="1.1" viewBox="0.0 0.0 600.0 400.0" fill="none" stroke="none" stroke-linecap="square" stroke-miterlimit="10" width="600" height="400" xmlns:xlink="http://www.w3.org/1999/xlink" xmlns="http://www.w3.org/2000/svg"><path fill="#ffffff" d="M0 0L600.0 0L600.0 400.0L0 400.0L0 0Z" fill-rule="nonzero"/><path fill="#decec1" d="M330.36493 58.384945C336.47012 57.684444 342.61032 57.333332 348.75555 57.333332L348.75555 178.33333C347.21924 178.33333 345.6842 178.42111 344.1579 178.59624Z" fill-rule="nonzero"/><path fill="#e3bcb3" d="M312.21408 61.526077C318.19962 60.1342 324.25977 59.08545 330.36493 58.384945L344.1579 178.59624C342.63162 178.77136 341.11658 179.03355 339.62018 179.38152Z" fill-rule="nonzero"/><path fill="#99acb7" d="M294.53958 66.715775C300.32742 64.65067 306.22855 62.917953 312.21408 61.526077L339.62018 179.38152C338.1238 179.72949 336.64853 180.16267 335.20157 180.67894Z" fill-rule="nonzero"/><path fill="#9ad9e2" d="M277.5719 73.88638C283.0866 71.17498 288.75174 68.780876 294.53958 66.715775L335.20157 180.67894C333.7546 181.19522 332.33832 181.79375 330.95963 182.4716Z" fill-rule="nonzero"/><path fill="#f2e5d9" d="M261.53217 82.94443C266.70187 79.62207 272.05716 76.59779 277.5719 73.88638L330.95963 182.4716C329.58096 183.14944 328.24213 183.90552 326.9497 184.73611Z" fill-rule="nonzero"/><path fill="#4db3a9" d="M246.62955 93.77182C251.38683 89.88181 256.3625 86.26679 261.53217 82.94443L326.9497 184.73611C325.6573 185.5667 324.41336 186.47046 323.22406 187.44296Z" fill-rule="nonzero"/><path fill="#c6a992" d="M233.05829 106.22741C237.34113 101.820465 241.87227 97.66183 246.62955 93.77182L323.22406 187.44296C322.03473 188.41545 320.90195 189.45512 319.83124 190.55685Z" fill-rule="nonzero"/><path fill="#cd897a" d="M220.99533 120.14881C224.7479 115.28239 228.77545 110.634346 233.05829 106.22741L319.83124 190.55685C318.76053 191.65858 317.75363 192.8206 316.8155 194.0372Z" fill-rule="nonzero"/><path fill="#4d6d80" d="M210.59792 135.35454C213.77129 130.09209 217.24275 125.01523 220.99533 120.14881L316.8155 194.0372C315.87735 195.25381 315.0095 196.52303 314.21616 197.83864Z" fill-rule="nonzero"/><path fill="#6fc8d6" d="M202.00159 151.64638C204.55441 146.05647 207.42453 140.617 210.59792 135.35454L314.21616 197.83864C313.4228 199.15425 312.70526 200.51411 312.06708 201.91159Z" fill-rule="nonzero"/><path fill="#eddac9" d="M195.31844 168.81192C197.21742 162.96747 199.44878 157.23628 202.00159 151.64638L312.06708 201.91159C311.42886 203.30907 310.87103 204.74187 310.39627 206.20299Z" fill-rule="nonzero"/><path fill="#009384" d="M190.63557 186.62741C191.85596 180.60457 193.41946 174.65639 195.31844 168.81192L310.39627 206.20299C309.92154 207.6641 309.53067 209.15114 309.22556 210.65685Z" fill-rule="nonzero"/><path fill="#ad8463" d="M188.01404 204.86057C188.53992 198.73788 189.41519 192.65024 190.63557 186.62741L309.22556 210.65685C308.92047 212.16255 308.70166 213.68446 308.5702 215.21515Z" fill-rule="nonzero"/><path fill="#b85741" d="M187.48802 223.27371C187.31253 217.13098 187.48816 210.98325 188.01404 204.86057L308.5702 215.21515C308.43872 216.74582 308.3948 218.28275 308.43866 219.81842Z" fill-rule="nonzero"/><path fill="#002f4a" d="M348.75555 57.333332C437.25827 57.333332 509.23904 128.63208 510.08157 217.1308C510.9241 305.62952 440.31384 378.28577 351.82715 379.97076C263.34045 381.65573 190.0153 311.74036 187.48802 223.27371L308.43866 219.81842C309.0705 241.93509 327.4018 259.41394 349.52347 258.99268C371.6451 258.57144 389.2977 240.40738 389.08707 218.2827C388.87643 196.15802 370.88123 178.33333 348.75555 178.33333Z" fill-rule="nonzero"/><path fill="#ffffff" d="M394.8764 298.09952L394.8764 295.69327L390.51703 295.69327L390.51703 294.56827L395.09515 288.0839L396.09515 288.0839L396.09515 294.56827L397.45453 294.56827L397.45453 295.69327L396.09515 295.69327L396.09515 298.09952L394.8764 298.09952ZM394.8764 294.56827L394.8764 290.05264L391.73578 294.56827L394.8764 294.56827ZM403.5639 298.09952L402.32953 298.09952L402.32953 290.25577Q401.89203 290.67764 401.15765 291.11514Q400.4389 291.53702 399.8764 291.74014L399.8764 290.55264Q400.90765 290.06827 401.67328 289.38077Q402.45453 288.69327 402.76703 288.03702L403.5639 288.03702L403.5639 298.09952ZM413.6264 301.05264Q412.59515 299.75577 411.89203 298.03702Q411.1889 296.31827 411.1889 294.47452Q411.1889 292.84952 411.72015 291.34952Q412.32953 289.61514 413.6264 287.91202L414.5014 287.91202Q413.67328 289.3339 413.40765 289.94327Q412.98578 290.88077 412.7514 291.91202Q412.45453 293.17764 412.45453 294.47452Q412.45453 297.7714 414.5014 301.05264L413.6264 301.05264ZM416.0014 289.3964L416.0014 288.2089L422.5014 288.2089L422.5014 289.16202Q421.53265 290.17764 420.59515 291.86514Q419.65765 293.55264 419.14203 295.34952Q418.78265 296.59952 418.67328 298.09952L417.40765 298.09952Q417.42328 296.91202 417.86078 295.24014Q418.3139 293.56827 419.14203 292.0214Q419.98578 290.4589 420.92328 289.3964L416.0014 289.3964ZM427.8764 298.09952L427.8764 295.69327L423.51703 295.69327L423.51703 294.56827L428.09515 288.0839L429.09515 288.0839L429.09515 294.56827L430.45453 294.56827L430.45453 295.69327L429.09515 295.69327L429.09515 298.09952L427.8764 298.09952ZM427.8764 294.56827L427.8764 290.05264L424.73578 294.56827L427.8764 294.56827ZM432.59515 298.09952L432.59515 296.69327L433.98578 296.69327L433.98578 298.09952Q433.98578 298.86514 433.70453 299.3339Q433.4389 299.81827 432.84515 300.0839L432.5014 299.55264Q432.89203 299.38077 433.07953 299.05264Q433.26703 298.72452 433.28265 298.09952L432.59515 298.09952ZM435.92328 295.47452L437.22015 295.36514Q437.36078 296.30264 437.8764 296.78702Q438.40765 297.25577 439.14203 297.25577Q440.03265 297.25577 440.64203 296.5839Q441.26703 295.91202 441.26703 294.81827Q441.26703 293.75577 440.67328 293.1464Q440.07953 292.53702 439.1264 292.53702Q438.53265 292.53702 438.04828 292.81827Q437.57953 293.0839 437.29828 293.50577L436.14203 293.36514L437.11078 288.2089L442.09515 288.2089L442.09515 289.3964L438.09515 289.3964L437.5639 292.0839Q438.47015 291.4589 439.45453 291.4589Q440.76703 291.4589 441.65765 292.36514Q442.5639 293.2714 442.5639 294.7089Q442.5639 296.06827 441.78265 297.05264Q440.8139 298.2714 439.14203 298.2714Q437.78265 298.2714 436.90765 297.50577Q436.04828 296.74014 435.92328 295.47452ZM444.15765 290.49014Q444.15765 289.41202 444.6889 288.66202Q445.23578 287.91202 446.26703 287.91202Q447.20453 287.91202 447.8139 288.5839Q448.4389 289.25577 448.4389 290.55264Q448.4389 291.8339 447.8139 292.5214Q447.1889 293.2089 446.28265 293.2089Q445.3764 293.2089 444.76703 292.53702Q444.15765 291.84952 444.15765 290.49014ZM446.29828 288.75577Q445.84515 288.75577 445.53265 289.16202Q445.23578 289.55264 445.23578 290.59952Q445.23578 291.56827 445.53265 291.9589Q445.84515 292.34952 446.29828 292.34952Q446.76703 292.34952 447.0639 291.9589Q447.3764 291.56827 447.3764 290.50577Q447.3764 289.53702 447.0639 289.1464Q446.7514 288.75577 446.29828 288.75577ZM446.29828 298.47452L451.78265 287.91202L452.78265 287.91202L447.32953 298.47452L446.29828 298.47452ZM450.64203 295.74014Q450.64203 294.66202 451.17328 293.92764Q451.72015 293.17764 452.7514 293.17764Q453.6889 293.17764 454.3139 293.84952Q454.9389 294.5214 454.9389 295.81827Q454.9389 297.09952 454.3139 297.78702Q453.6889 298.47452 452.7514 298.47452Q451.84515 298.47452 451.23578 297.80264Q450.64203 297.11514 450.64203 295.74014ZM452.78265 294.0214Q452.3139 294.0214 452.01703 294.42764Q451.72015 294.81827 451.72015 295.86514Q451.72015 296.8339 452.01703 297.22452Q452.32953 297.61514 452.78265 297.61514Q453.2514 297.61514 453.54828 297.22452Q453.86078 296.8339 453.86078 295.7714Q453.86078 294.80264 453.54828 294.41202Q453.2514 294.0214 452.78265 294.0214ZM457.07953 301.05264L456.1889 301.05264Q458.23578 297.7714 458.23578 294.47452Q458.23578 293.19327 457.9389 291.92764Q457.70453 290.8964 457.29828 289.9589Q457.03265 289.34952 456.1889 287.91202L457.07953 287.91202Q458.36078 289.61514 458.97015 291.34952Q459.5014 292.84952 459.5014 294.47452Q459.5014 296.31827 458.78265 298.03702Q458.07953 299.75577 457.07953 301.05264Z" fill-rule="nonzero"/><path stroke="#000000" stroke-width="1.0" stroke-linejoin="round" stroke-linecap="round" d="M308.43866 219.81842C309.0705 241.93509 327.4018 259.41394 349.52347 258.99268C371.6451 258.57144 389.2977 240.40738 389.08707 218.2827C388.87643 196.15802 370.88123 178.33333 348.75555 178.33333L348.75555 57.333332C437.25827 57.333332 509.23904 128.63208 510.08157 217.1308C510.9241 305.62952 440.31384 378.28577 351.82715 379.97076C263.34045 381.65573 190.0153 311.74036 187.48802 223.27371" fill-rule="nonzero"/><path stroke="#000000" stroke-width="1.0" stroke-linejoin="round" stroke-linecap="round" d="M308.5702 215.21515C308.43872 216.74582 308.3948 218.28275 308.43866 219.81842L187.48802 223.27371C187.31253 217.13098 187.48816 210.98325 188.01404 204.86057" fill-rule="nonzero"/><path stroke="#000000" stroke-width="1.0" stroke-linejoin="round" stroke-linecap="round" d="M309.22556 210.65685C308.92047 212.16255 308.70166 213.68446 308.5702 215.21515L188.01404 204.86057C188.53992 198.73788 189.41519 192.65024 190.63557 186.62741" fill-rule="nonzero"/><path stroke="#000000" stroke-width="1.0" stroke-linejoin="round" stroke-linecap="round" d="M310.39627 206.20299C309.92154 207.6641 309.53067 209.15114 309.22556 210.65685L190.63557 186.62741C191.85596 180.60457 193.41946 174.65639 195.31844 168.81192" fill-rule="nonzero"/><path stroke="#000000" stroke-width="1.0" stroke-linejoin="round" stroke-linecap="round" d="M312.06708 201.91159C311.42886 203.30907 310.87103 204.74187 310.39627 206.20299L195.31844 168.81192C197.21742 162.96747 199.44878 157.23628 202.00159 151.64638" fill-rule="nonzero"/><path stroke="#000000" stroke-width="1.0" stroke-linejoin="round" stroke-linecap="round" d="M314.21616 197.83864C313.4228 199.15425 312.70526 200.51411 312.06708 201.91159L202.00159 151.64638C204.55441 146.05647 207.42453 140.617 210.59792 135.35454" fill-rule="nonzero"/><path stroke="#000000" stroke-width="1.0" stroke-linejoin="round" stroke-linecap="round" d="M316.8155 194.0372C315.87735 195.25381 315.0095 196.52303 314.21616 197.83864L210.59792 135.35454C213.77129 130.09209 217.24275 125.01523 220.99533 120.14881" fill-rule="nonzero"/><path stroke="#000000" stroke-width="1.0" stroke-linejoin="round" stroke-linecap="round" d="M319.83124 190.55685C318.76053 191.65858 317.75363 192.8206 316.8155 194.0372L220.99533 120.14881C224.7479 115.28239 228.77545 110.634346 233.05829 106.22741" fill-rule="nonzero"/><path stroke="#000000" stroke-width="1.0" stroke-linejoin="round" stroke-linecap="round" d="M323.22406 187.44296C322.03473 188.41545 320.90195 189.45512 319.83124 190.55685L233.05829 106.22741C237.34113 101.820465 241.87227 97.66183 246.62955 93.77182" fill-rule="nonzero"/><path stroke="#000000" stroke-width="1.0" stroke-linejoin="round" stroke-linecap="round" d="M326.9497 184.73611C325.6573 185.5667 324.41336 186.47046 323.22406 187.44296L246.62955 93.77182C251.38683 89.88181 256.3625 86.26679 261.53217 82.94443" fill-rule="nonzero"/><path stroke="#000000" stroke-width="1.0" stroke-linejoin="round" stroke-linecap="round" d="M330.95963 182.4716C329.58096 183.14944 328.24213 183.90552 326.9497 184.73611L261.53217 82.94443C266.70187 79.62207 272.05716 76.59779 277.5719 73.88638" fill-rule="nonzero"/><path stroke="#000000" stroke-width="1.0" stroke-linejoin="round" stroke-linecap="round" d="M335.20157 180.67894C333.7546 181.19522 332.33832 181.79375 330.95963 182.4716L277.5719 73.88638C283.0866 71.17498 288.75174 68.780876 294.53958 66.715775" fill-rule="nonzero"/><path stroke="#000000" stroke-width="1.0" stroke-linejoin="round" stroke-linecap="round" d="M339.62018 179.38152C338.1238 179.72949 336.64853 180.16267 335.20157 180.67894L294.53958 66.715775C300.32742 64.65067 306.22855 62.917953 312.21408 61.526077" fill-rule="nonzero"/><path stroke="#000000" stroke-width="1.0" stroke-linejoin="round" stroke-linecap="round" d="M344.1579 178.59624C342.63162 178.77136 341.11658 179.03355 339.62018 179.38152L312.21408 61.526077C318.19962 60.1342 324.25977 59.08545 330.36493 58.384945" fill-rule="nonzero"/><path stroke="#000000" stroke-width="1.0" stroke-linejoin="round" stroke-linecap="round" d="M348.75555 178.33333C347.21924 178.33333 345.6842 178.42111 344.1579 178.59624L330.36493 58.384945C336.47012 57.684444 342.61032 57.333332 348.75555 57.333332" fill-rule="nonzero"/><path fill="#002f4a" d="M32.0 63.833332C32.0 67.14704 29.31371 69.833336 26.0 69.833336C22.68629 69.833336 20.0 67.14704 20.0 63.833332C20.0 60.519627 22.68629 57.833332 26.0 57.833332C29.31371 57.833332 32.0 60.519627 32.0 63.833332Z" fill-rule="nonzero"/><path fill="#20303a" d="M40.765625 67.333336L40.765625 60.177086L41.734375 60.177086L45.5 65.802086L45.5 60.177086L46.40625 60.177086L46.40625 67.333336L45.4375 67.333336L41.671875 61.708336L41.671875 67.333336L40.765625 67.333336ZM51.203125 65.66146L52.125 65.770836Q51.90625 66.56771 51.3125 67.020836Q50.734375 67.458336 49.84375 67.458336Q48.703125 67.458336 48.03125 66.75521Q47.359375 66.052086 47.359375 64.78646Q47.359375 63.47396 48.03125 62.75521Q48.71875 62.03646 49.78125 62.03646Q50.828125 62.03646 51.484375 62.739586Q52.140625 63.44271 52.140625 64.72396Q52.140625 64.802086 52.140625 64.958336L48.28125 64.958336Q48.328125 65.81771 48.75 66.270836Q49.1875 66.72396 49.84375 66.72396Q50.328125 66.72396 50.671875 66.47396Q51.015625 66.22396 51.203125 65.66146ZM48.328125 64.239586L51.21875 64.239586Q51.15625 63.583336 50.890625 63.25521Q50.46875 62.75521 49.796875 62.75521Q49.1875 62.75521 48.78125 63.16146Q48.375 63.56771 48.328125 64.239586ZM55.578125 66.552086L55.703125 67.31771Q55.328125 67.395836 55.046875 67.395836Q54.5625 67.395836 54.296875 67.25521Q54.03125 67.09896 53.921875 66.84896Q53.828125 66.59896 53.828125 65.81771L53.828125 62.833336L53.171875 62.833336L53.171875 62.145836L53.828125 62.145836L53.828125 60.864586L54.6875 60.333336L54.6875 62.145836L55.578125 62.145836L55.578125 62.833336L54.6875 62.833336L54.6875 65.864586Q54.6875 66.239586 54.734375 66.34896Q54.78125 66.458336 54.890625 66.520836Q55.0 66.583336 55.1875 66.583336Q55.34375 66.583336 55.578125 66.552086ZM56.65625 67.333336L56.65625 60.177086L57.53125 60.177086L57.53125 62.739586Q58.15625 62.03646 59.09375 62.03646Q59.671875 62.03646 60.09375 62.270836Q60.515625 62.489586 60.703125 62.895836Q60.890625 63.28646 60.890625 64.052086L60.890625 67.333336L60.0 67.333336L60.0 64.052086Q60.0 63.38021 59.71875 63.083336Q59.4375 62.78646 58.90625 62.78646Q58.515625 62.78646 58.171875 62.989586Q57.828125 63.19271 57.671875 63.53646Q57.53125 63.88021 57.53125 64.489586L57.53125 67.333336L56.65625 67.333336ZM66.203125 65.66146L67.125 65.770836Q66.90625 66.56771 66.3125 67.020836Q65.734375 67.458336 64.84375 67.458336Q63.703125 67.458336 63.03125 66.75521Q62.359375 66.052086 62.359375 64.78646Q62.359375 63.47396 63.03125 62.75521Q63.71875 62.03646 64.78125 62.03646Q65.828125 62.03646 66.484375 62.739586Q67.140625 63.44271 67.140625 64.72396Q67.140625 64.802086 67.140625 64.958336L63.28125 64.958336Q63.328125 65.81771 63.75 66.270836Q64.1875 66.72396 64.84375 66.72396Q65.328125 66.72396 65.671875 66.47396Q66.015625 66.22396 66.203125 65.66146ZM63.328125 64.239586L66.21875 64.239586Q66.15625 63.583336 65.890625 63.25521Q65.46875 62.75521 64.796875 62.75521Q64.1875 62.75521 63.78125 63.16146Q63.375 63.56771 63.328125 64.239586ZM68.65625 67.333336L68.65625 62.145836L69.4375 62.145836L69.4375 62.927086Q69.75 62.38021 70.0 62.208336Q70.25 62.03646 70.5625 62.03646Q71.015625 62.03646 71.46875 62.31771L71.171875 63.13021Q70.84375 62.94271 70.515625 62.94271Q70.234375 62.94271 70.0 63.114586Q69.765625 63.28646 69.671875 63.59896Q69.53125 64.06771 69.53125 64.614586L69.53125 67.333336L68.65625 67.333336ZM71.640625 67.333336L71.640625 60.177086L72.515625 60.177086L72.515625 67.333336L71.640625 67.333336ZM77.046875 66.69271Q76.5625 67.114586 76.109375 67.28646Q75.65625 67.458336 75.140625 67.458336Q74.28125 67.458336 73.8125 67.03646Q73.359375 66.614586 73.359375 65.958336Q73.359375 65.583336 73.53125 65.270836Q73.703125 64.958336 73.984375 64.770836Q74.265625 64.56771 74.625 64.47396Q74.875 64.41146 75.40625 64.34896Q76.46875 64.22396 76.96875 64.03646Q76.96875 63.864586 76.96875 63.81771Q76.96875 63.270836 76.71875 63.052086Q76.390625 62.75521 75.71875 62.75521Q75.109375 62.75521 74.8125 62.97396Q74.515625 63.19271 74.375 63.739586L73.515625 63.63021Q73.625 63.06771 73.890625 62.739586Q74.171875 62.395836 74.671875 62.22396Q75.1875 62.03646 75.859375 62.03646Q76.515625 62.03646 76.921875 62.19271Q77.34375 62.34896 77.53125 62.583336Q77.734375 62.81771 77.8125 63.177086Q77.859375 63.395836 77.859375 63.989586L77.859375 65.16146Q77.859375 66.38021 77.90625 66.708336Q77.96875 67.03646 78.140625 67.333336L77.21875 67.333336Q77.078125 67.052086 77.046875 66.69271ZM76.96875 64.72396Q76.484375 64.927086 75.53125 65.06771Q75.0 65.145836 74.765625 65.239586Q74.546875 65.333336 74.421875 65.520836Q74.296875 65.708336 74.296875 65.94271Q74.296875 66.28646 74.5625 66.520836Q74.828125 66.75521 75.34375 66.75521Q75.859375 66.75521 76.25 66.53646Q76.640625 66.31771 76.828125 65.927086Q76.96875 65.63021 76.96875 65.052086L76.96875 64.72396ZM79.65625 67.333336L79.65625 62.145836L80.453125 62.145836L80.453125 62.88021Q81.015625 62.03646 82.09375 62.03646Q82.5625 62.03646 82.953125 62.208336Q83.359375 62.364586 83.546875 62.645836Q83.75 62.91146 83.828125 63.28646Q83.875 63.53646 83.875 64.145836L83.875 67.333336L83.0 67.333336L83.0 64.177086Q83.0 63.645836 82.890625 63.38021Q82.796875 63.114586 82.53125 62.958336Q82.265625 62.78646 81.921875 62.78646Q81.359375 62.78646 80.9375 63.145836Q80.53125 63.50521 80.53125 64.50521L80.53125 67.333336L79.65625 67.333336ZM89.03125 67.333336L89.03125 66.677086Q88.53125 67.458336 87.578125 67.458336Q86.953125 67.458336 86.421875 67.114586Q85.90625 66.770836 85.625 66.16146Q85.34375 65.53646 85.34375 64.739586Q85.34375 63.97396 85.59375 63.34896Q85.859375 62.708336 86.375 62.38021Q86.890625 62.03646 87.53125 62.03646Q88.0 62.03646 88.359375 62.239586Q88.734375 62.427086 88.96875 62.739586L88.96875 60.177086L89.84375 60.177086L89.84375 67.333336L89.03125 67.333336ZM86.25 64.739586Q86.25 65.739586 86.65625 66.239586Q87.078125 66.72396 87.65625 66.72396Q88.234375 66.72396 88.625 66.25521Q89.03125 65.78646 89.03125 64.81771Q89.03125 63.75521 88.625 63.25521Q88.21875 62.75521 87.625 62.75521Q87.03125 62.75521 86.640625 63.239586Q86.25 63.708336 86.25 64.739586ZM91.3125 65.78646L92.171875 65.645836Q92.25 66.177086 92.578125 66.458336Q92.921875 66.72396 93.515625 66.72396Q94.125 66.72396 94.421875 66.489586Q94.71875 66.239586 94.71875 65.895836Q94.71875 65.59896 94.453125 65.427086Q94.265625 65.31771 93.546875 65.13021Q92.59375 64.895836 92.21875 64.72396Q91.84375 64.53646 91.640625 64.22396Q91.453125 63.91146 91.453125 63.520836Q91.453125 63.177086 91.609375 62.88021Q91.765625 62.583336 92.046875 62.395836Q92.25 62.239586 92.59375 62.145836Q92.953125 62.03646 93.359375 62.03646Q93.96875 62.03646 94.421875 62.208336Q94.890625 62.38021 95.109375 62.69271Q95.34375 62.989586 95.421875 63.489586L94.5625 63.59896Q94.5 63.208336 94.21875 62.989586Q93.9375 62.75521 93.421875 62.75521Q92.828125 62.75521 92.5625 62.958336Q92.296875 63.145836 92.296875 63.427086Q92.296875 63.59896 92.40625 63.72396Q92.515625 63.864586 92.75 63.958336Q92.875 64.00521 93.53125 64.19271Q94.453125 64.44271 94.8125 64.59896Q95.1875 64.75521 95.390625 65.06771Q95.609375 65.364586 95.609375 65.802086Q95.609375 66.25521 95.359375 66.645836Q95.109375 67.020836 94.625 67.239586Q94.140625 67.458336 93.53125 67.458336Q92.515625 67.458336 91.984375 67.03646Q91.453125 66.614586 91.3125 65.78646Z" fill-rule="nonzero"/><path fill="#b85741" d="M32.0 86.833336C32.0 90.14704 29.31371 92.833336 26.0 92.833336C22.68629 92.833336 20.0 90.14704 20.0 86.833336C20.0 83.51962 22.68629 80.833336 26.0 80.833336C29.31371 80.833336 32.0 83.51962 32.0 86.833336Z" fill-rule="nonzero"/><path fill="#20303a" d="M45.875 87.81771L46.828125 88.06771Q46.53125 89.22396 45.75 89.84896Q44.984375 90.458336 43.859375 90.458336Q42.703125 90.458336 41.96875 89.989586Q41.25 89.50521 40.875 88.614586Q40.5 87.72396 40.5 86.69271Q40.5 85.583336 40.921875 84.75521Q41.359375 83.91146 42.140625 83.489586Q42.9375 83.052086 43.875 83.052086Q44.953125 83.052086 45.6875 83.59896Q46.421875 84.145836 46.703125 85.13021L45.765625 85.364586Q45.515625 84.583336 45.046875 84.22396Q44.578125 83.864586 43.859375 83.864586Q43.03125 83.864586 42.46875 84.270836Q41.921875 84.66146 41.6875 85.333336Q41.46875 85.989586 41.46875 86.69271Q41.46875 87.614586 41.734375 88.302086Q42.0 88.97396 42.5625 89.31771Q43.125 89.645836 43.78125 89.645836Q44.578125 89.645836 45.125 89.19271Q45.6875 88.72396 45.875 87.81771ZM47.625 92.333336L47.515625 91.50521Q47.8125 91.583336 48.03125 91.583336Q48.3125 91.583336 48.484375 91.489586Q48.671875 91.395836 48.78125 91.208336Q48.859375 91.083336 49.046875 90.552086Q49.078125 90.489586 49.125 90.34896L47.15625 85.145836L48.109375 85.145836L49.1875 88.145836Q49.390625 88.72396 49.5625 89.34896Q49.71875 88.739586 49.921875 88.177086L51.03125 85.145836L51.90625 85.145836L49.9375 90.427086Q49.625 91.270836 49.453125 91.59896Q49.21875 92.03646 48.90625 92.239586Q48.609375 92.44271 48.1875 92.44271Q47.9375 92.44271 47.625 92.333336ZM52.65625 92.31771L52.65625 85.145836L53.453125 85.145836L53.453125 85.81771Q53.75 85.427086 54.09375 85.239586Q54.453125 85.03646 54.96875 85.03646Q55.625 85.03646 56.125 85.38021Q56.640625 85.708336 56.890625 86.333336Q57.15625 86.958336 57.15625 87.708336Q57.15625 88.489586 56.875 89.13021Q56.59375 89.770836 56.046875 90.114586Q55.5 90.458336 54.90625 90.458336Q54.46875 90.458336 54.109375 90.270836Q53.765625 90.083336 53.53125 89.802086L53.53125 92.31771L52.65625 92.31771ZM53.453125 87.770836Q53.453125 88.770836 53.859375 89.25521Q54.265625 89.72396 54.84375 89.72396Q55.421875 89.72396 55.84375 89.239586Q56.265625 88.739586 56.265625 87.69271Q56.265625 86.708336 55.859375 86.22396Q55.453125 85.72396 54.875 85.72396Q54.3125 85.72396 53.875 86.25521Q53.453125 86.770836 53.453125 87.770836ZM58.65625 90.333336L58.65625 85.145836L59.4375 85.145836L59.4375 85.927086Q59.75 85.38021 60.0 85.208336Q60.25 85.03646 60.5625 85.03646Q61.015625 85.03646 61.46875 85.31771L61.171875 86.13021Q60.84375 85.94271 60.515625 85.94271Q60.234375 85.94271 60.0 86.114586Q59.765625 86.28646 59.671875 86.59896Q59.53125 87.06771 59.53125 87.614586L59.53125 90.333336L58.65625 90.333336ZM65.0625 90.333336L65.0625 89.56771Q64.453125 90.458336 63.40625 90.458336Q62.953125 90.458336 62.546875 90.28646Q62.15625 90.09896 61.953125 89.833336Q61.765625 89.56771 61.6875 89.177086Q61.640625 88.927086 61.640625 88.364586L61.640625 85.145836L62.515625 85.145836L62.515625 88.020836Q62.515625 88.708336 62.578125 88.958336Q62.65625 89.302086 62.921875 89.50521Q63.1875 89.69271 63.59375 89.69271Q63.984375 89.69271 64.328125 89.489586Q64.671875 89.28646 64.8125 88.94271Q64.96875 88.583336 64.96875 87.927086L64.96875 85.145836L65.84375 85.145836L65.84375 90.333336L65.0625 90.333336ZM67.3125 88.78646L68.171875 88.645836Q68.25 89.177086 68.578125 89.458336Q68.921875 89.72396 69.515625 89.72396Q70.125 89.72396 70.421875 89.489586Q70.71875 89.239586 70.71875 88.895836Q70.71875 88.59896 70.453125 88.427086Q70.265625 88.31771 69.546875 88.13021Q68.59375 87.895836 68.21875 87.72396Q67.84375 87.53646 67.640625 87.22396Q67.453125 86.91146 67.453125 86.520836Q67.453125 86.177086 67.609375 85.88021Q67.765625 85.583336 68.046875 85.395836Q68.25 85.239586 68.59375 85.145836Q68.953125 85.03646 69.359375 85.03646Q69.96875 85.03646 70.421875 85.208336Q70.890625 85.38021 71.109375 85.69271Q71.34375 85.989586 71.421875 86.489586L70.5625 86.59896Q70.5 86.208336 70.21875 85.989586Q69.9375 85.75521 69.421875 85.75521Q68.828125 85.75521 68.5625 85.958336Q68.296875 86.145836 68.296875 86.427086Q68.296875 86.59896 68.40625 86.72396Q68.515625 86.864586 68.75 86.958336Q68.875 87.00521 69.53125 87.19271Q70.453125 87.44271 70.8125 87.59896Q71.1875 87.75521 71.390625 88.06771Q71.609375 88.364586 71.609375 88.802086Q71.609375 89.25521 71.359375 89.645836Q71.109375 90.020836 70.625 90.239586Q70.140625 90.458336 69.53125 90.458336Q68.515625 90.458336 67.984375 90.03646Q67.453125 89.614586 67.3125 88.78646Z" fill-rule="nonzero"/><path fill="#ad8463" d="M32.0 109.833336C32.0 113.14704 29.31371 115.833336 26.0 115.833336C22.68629 115.833336 20.0 113.14704 20.0 109.833336C20.0 106.51962 22.68629 103.833336 26.0 103.833336C29.31371 103.833336 32.0 106.51962 32.0 109.833336Z" fill-rule="nonzero"/><path fill="#20303a" d="M40.9375 113.333336L40.9375 106.177086L41.875 106.177086L41.875 113.333336L40.9375 113.333336ZM43.65625 113.333336L43.65625 108.145836L44.4375 108.145836L44.4375 108.927086Q44.75 108.38021 45.0 108.208336Q45.25 108.03646 45.5625 108.03646Q46.015625 108.03646 46.46875 108.31771L46.171875 109.13021Q45.84375 108.94271 45.515625 108.94271Q45.234375 108.94271 45.0 109.114586Q44.765625 109.28646 44.671875 109.59896Q44.53125 110.06771 44.53125 110.614586L44.53125 113.333336L43.65625 113.333336ZM50.046875 112.69271Q49.5625 113.114586 49.109375 113.28646Q48.65625 113.458336 48.140625 113.458336Q47.28125 113.458336 46.8125 113.03646Q46.359375 112.614586 46.359375 111.958336Q46.359375 111.583336 46.53125 111.270836Q46.703125 110.958336 46.984375 110.770836Q47.265625 110.56771 47.625 110.47396Q47.875 110.41146 48.40625 110.34896Q49.46875 110.22396 49.96875 110.03646Q49.96875 109.864586 49.96875 109.81771Q49.96875 109.270836 49.71875 109.052086Q49.390625 108.75521 48.71875 108.75521Q48.109375 108.75521 47.8125 108.97396Q47.515625 109.19271 47.375 109.739586L46.515625 109.63021Q46.625 109.06771 46.890625 108.739586Q47.171875 108.395836 47.671875 108.22396Q48.1875 108.03646 48.859375 108.03646Q49.515625 108.03646 49.921875 108.19271Q50.34375 108.34896 50.53125 108.583336Q50.734375 108.81771 50.8125 109.177086Q50.859375 109.395836 50.859375 109.989586L50.859375 111.16146Q50.859375 112.38021 50.90625 112.708336Q50.96875 113.03646 51.140625 113.333336L50.21875 113.333336Q50.078125 113.052086 50.046875 112.69271ZM49.96875 110.72396Q49.484375 110.927086 48.53125 111.06771Q48.0 111.145836 47.765625 111.239586Q47.546875 111.333336 47.421875 111.520836Q47.296875 111.708336 47.296875 111.94271Q47.296875 112.28646 47.5625 112.520836Q47.828125 112.75521 48.34375 112.75521Q48.859375 112.75521 49.25 112.53646Q49.640625 112.31771 49.828125 111.927086Q49.96875 111.63021 49.96875 111.052086L49.96875 110.72396ZM52.65625 113.333336L52.65625 108.145836L53.453125 108.145836L53.453125 108.88021Q54.015625 108.03646 55.09375 108.03646Q55.5625 108.03646 55.953125 108.208336Q56.359375 108.364586 56.546875 108.645836Q56.75 108.91146 56.828125 109.28646Q56.875 109.53646 56.875 110.145836L56.875 113.333336L56.0 113.333336L56.0 110.177086Q56.0 109.645836 55.890625 109.38021Q55.796875 109.114586 55.53125 108.958336Q55.265625 108.78646 54.921875 108.78646Q54.359375 108.78646 53.9375 109.145836Q53.53125 109.50521 53.53125 110.50521L53.53125 113.333336L52.65625 113.333336Z" fill-rule="nonzero"/><path fill="#009384" d="M32.0 132.83333C32.0 136.14705 29.31371 138.83333 26.0 138.83333C22.68629 138.83333 20.0 136.14705 20.0 132.83333C20.0 129.51962 22.68629 126.833336 26.0 126.833336C29.31371 126.833336 32.0 129.51962 32.0 132.83333Z" fill-rule="nonzero"/><path fill="#20303a" d="M42.59375 136.33333L42.59375 130.02083L40.234375 130.02083L40.234375 129.17708L45.90625 129.17708L45.90625 130.02083L43.546875 130.02083L43.546875 136.33333L42.59375 136.33333ZM46.65625 136.33333L46.65625 129.17708L47.53125 129.17708L47.53125 131.73958Q48.15625 131.03645 49.09375 131.03645Q49.671875 131.03645 50.09375 131.27083Q50.515625 131.48958 50.703125 131.89583Q50.890625 132.28645 50.890625 133.05208L50.890625 136.33333L50.0 136.33333L50.0 133.05208Q50.0 132.3802 49.71875 132.08333Q49.4375 131.78645 48.90625 131.78645Q48.515625 131.78645 48.171875 131.98958Q47.828125 132.1927 47.671875 132.53645Q47.53125 132.8802 47.53125 133.48958L47.53125 136.33333L46.65625 136.33333ZM56.046875 135.6927Q55.5625 136.11458 55.109375 136.28645Q54.65625 136.45833 54.140625 136.45833Q53.28125 136.45833 52.8125 136.03645Q52.359375 135.61458 52.359375 134.95833Q52.359375 134.58333 52.53125 134.27083Q52.703125 133.95833 52.984375 133.77083Q53.265625 133.5677 53.625 133.47395Q53.875 133.41145 54.40625 133.34895Q55.46875 133.22395 55.96875 133.03645Q55.96875 132.86458 55.96875 132.8177Q55.96875 132.27083 55.71875 132.05208Q55.390625 131.7552 54.71875 131.7552Q54.109375 131.7552 53.8125 131.97395Q53.515625 132.1927 53.375 132.73958L52.515625 132.6302Q52.625 132.0677 52.890625 131.73958Q53.171875 131.39583 53.671875 131.22395Q54.1875 131.03645 54.859375 131.03645Q55.515625 131.03645 55.921875 131.1927Q56.34375 131.34895 56.53125 131.58333Q56.734375 131.8177 56.8125 132.17708Q56.859375 132.39583 56.859375 132.98958L56.859375 134.16145Q56.859375 135.3802 56.90625 135.70833Q56.96875 136.03645 57.140625 136.33333L56.21875 136.33333Q56.078125 136.05208 56.046875 135.6927ZM55.96875 133.72395Q55.484375 133.92708 54.53125 134.0677Q54.0 134.14583 53.765625 134.23958Q53.546875 134.33333 53.421875 134.52083Q53.296875 134.70833 53.296875 134.9427Q53.296875 135.28645 53.5625 135.52083Q53.828125 135.7552 54.34375 135.7552Q54.859375 135.7552 55.25 135.53645Q55.640625 135.3177 55.828125 134.92708Q55.96875 134.6302 55.96875 134.05208L55.96875 133.72395ZM58.671875 130.1927L58.671875 129.17708L59.546875 129.17708L59.546875 130.1927L58.671875 130.1927ZM58.671875 136.33333L58.671875 131.14583L59.546875 131.14583L59.546875 136.33333L58.671875 136.33333ZM60.640625 136.33333L60.640625 129.17708L61.515625 129.17708L61.515625 136.33333L60.640625 136.33333ZM66.046875 135.6927Q65.5625 136.11458 65.109375 136.28645Q64.65625 136.45833 64.140625 136.45833Q63.28125 136.45833 62.8125 136.03645Q62.359375 135.61458 62.359375 134.95833Q62.359375 134.58333 62.53125 134.27083Q62.703125 133.95833 62.984375 133.77083Q63.265625 133.5677 63.625 133.47395Q63.875 133.41145 64.40625 133.34895Q65.46875 133.22395 65.96875 133.03645Q65.96875 132.86458 65.96875 132.8177Q65.96875 132.27083 65.71875 132.05208Q65.390625 131.7552 64.71875 131.7552Q64.109375 131.7552 63.8125 131.97395Q63.515625 132.1927 63.375 132.73958L62.515625 132.6302Q62.625 132.0677 62.890625 131.73958Q63.171875 131.39583 63.671875 131.22395Q64.1875 131.03645 64.859375 131.03645Q65.515625 131.03645 65.921875 131.1927Q66.34375 131.34895 66.53125 131.58333Q66.734375 131.8177 66.8125 132.17708Q66.859375 132.39583 66.859375 132.98958L66.859375 134.16145Q66.859375 135.3802 66.90625 135.70833Q66.96875 136.03645 67.140625 136.33333L66.21875 136.33333Q66.078125 136.05208 66.046875 135.6927ZM65.96875 133.72395Q65.484375 133.92708 64.53125 134.0677Q64.0 134.14583 63.765625 134.23958Q63.546875 134.33333 63.421875 134.52083Q63.296875 134.70833 63.296875 134.9427Q63.296875 135.28645 63.5625 135.52083Q63.828125 135.7552 64.34375 135.7552Q64.859375 135.7552 65.25 135.53645Q65.640625 135.3177 65.828125 134.92708Q65.96875 134.6302 65.96875 134.05208L65.96875 133.72395ZM68.65625 136.33333L68.65625 131.14583L69.453125 131.14583L69.453125 131.8802Q70.015625 131.03645 71.09375 131.03645Q71.5625 131.03645 71.953125 131.20833Q72.359375 131.36458 72.546875 131.64583Q72.75 131.91145 72.828125 132.28645Q72.875 132.53645 72.875 133.14583L72.875 136.33333L72.0 136.33333L72.0 133.17708Q72.0 132.64583 71.890625 132.3802Q71.796875 132.11458 71.53125 131.95833Q71.265625 131.78645 70.921875 131.78645Q70.359375 131.78645 69.9375 132.14583Q69.53125 132.5052 69.53125 133.5052L69.53125 136.33333L68.65625 136.33333ZM78.03125 136.33333L78.03125 135.67708Q77.53125 136.45833 76.578125 136.45833Q75.953125 136.45833 75.421875 136.11458Q74.90625 135.77083 74.625 135.16145Q74.34375 134.53645 74.34375 133.73958Q74.34375 132.97395 74.59375 132.34895Q74.859375 131.70833 75.375 131.3802Q75.890625 131.03645 76.53125 131.03645Q77.0 131.03645 77.359375 131.23958Q77.734375 131.42708 77.96875 131.73958L77.96875 129.17708L78.84375 129.17708L78.84375 136.33333L78.03125 136.33333ZM75.25 133.73958Q75.25 134.73958 75.65625 135.23958Q76.078125 135.72395 76.65625 135.72395Q77.234375 135.72395 77.625 135.2552Q78.03125 134.78645 78.03125 133.8177Q78.03125 132.7552 77.625 132.2552Q77.21875 131.7552 76.625 131.7552Q76.03125 131.7552 75.640625 132.23958Q75.25 132.70833 75.25 133.73958Z" fill-rule="nonzero"/><path fill="#eddac9" d="M32.0 155.83333C32.0 159.14705 29.31371 161.83333 26.0 161.83333C22.68629 161.83333 20.0 159.14705 20.0 155.83333C20.0 152.51962 22.68629 149.83333 26.0 149.83333C29.31371 149.83333 32.0 152.51962 32.0 155.83333Z" fill-rule="nonzero"/><path fill="#20303a" d="M44.125 156.52083L44.125 155.6927L47.15625 155.67708L47.15625 158.33333Q46.453125 158.89583 45.703125 159.17708Q44.96875 159.45833 44.1875 159.45833Q43.140625 159.45833 42.265625 159.0052Q41.40625 158.55208 40.96875 157.70833Q40.53125 156.84895 40.53125 155.78645Q40.53125 154.73958 40.96875 153.83333Q41.40625 152.92708 42.21875 152.48958Q43.046875 152.05208 44.109375 152.05208Q44.890625 152.05208 45.515625 152.30208Q46.140625 152.55208 46.5 153.0052Q46.859375 153.45833 47.046875 154.17708L46.1875 154.41145Q46.03125 153.86458 45.78125 153.55208Q45.546875 153.23958 45.09375 153.05208Q44.65625 152.86458 44.125 152.86458Q43.46875 152.86458 43.0 153.0677Q42.53125 153.2552 42.234375 153.58333Q41.9375 153.89583 41.78125 154.28645Q41.515625 154.95833 41.515625 155.72395Q41.515625 156.6927 41.84375 157.33333Q42.171875 157.97395 42.796875 158.28645Q43.421875 158.59895 44.140625 158.59895Q44.75 158.59895 45.328125 158.36458Q45.921875 158.1302 46.21875 157.86458L46.21875 156.52083L44.125 156.52083ZM52.203125 157.66145L53.125 157.77083Q52.90625 158.5677 52.3125 159.02083Q51.734375 159.45833 50.84375 159.45833Q49.703125 159.45833 49.03125 158.7552Q48.359375 158.05208 48.359375 156.78645Q48.359375 155.47395 49.03125 154.7552Q49.71875 154.03645 50.78125 154.03645Q51.828125 154.03645 52.484375 154.73958Q53.140625 155.4427 53.140625 156.72395Q53.140625 156.80208 53.140625 156.95833L49.28125 156.95833Q49.328125 157.8177 49.75 158.27083Q50.1875 158.72395 50.84375 158.72395Q51.328125 158.72395 51.671875 158.47395Q52.015625 158.22395 52.203125 157.66145ZM49.328125 156.23958L52.21875 156.23958Q52.15625 155.58333 51.890625 155.2552Q51.46875 154.7552 50.796875 154.7552Q50.1875 154.7552 49.78125 155.16145Q49.375 155.5677 49.328125 156.23958ZM54.65625 159.33333L54.65625 154.14583L55.4375 154.14583L55.4375 154.92708Q55.75 154.3802 56.0 154.20833Q56.25 154.03645 56.5625 154.03645Q57.015625 154.03645 57.46875 154.3177L57.171875 155.1302Q56.84375 154.9427 56.515625 154.9427Q56.234375 154.9427 56.0 155.11458Q55.765625 155.28645 55.671875 155.59895Q55.53125 156.0677 55.53125 156.61458L55.53125 159.33333L54.65625 159.33333ZM57.65625 159.33333L57.65625 154.14583L58.453125 154.14583L58.453125 154.8802Q58.6875 154.48958 59.09375 154.27083Q59.5 154.03645 60.015625 154.03645Q60.59375 154.03645 60.953125 154.27083Q61.328125 154.5052 61.484375 154.9427Q62.09375 154.03645 63.078125 154.03645Q63.859375 154.03645 64.265625 154.45833Q64.6875 154.8802 64.6875 155.77083L64.6875 159.33333L63.8125 159.33333L63.8125 156.0677Q63.8125 155.53645 63.71875 155.30208Q63.640625 155.0677 63.40625 154.92708Q63.1875 154.78645 62.890625 154.78645Q62.34375 154.78645 61.984375 155.16145Q61.625 155.52083 61.625 156.3177L61.625 159.33333L60.734375 159.33333L60.734375 155.95833Q60.734375 155.3802 60.515625 155.08333Q60.3125 154.78645 59.828125 154.78645Q59.453125 154.78645 59.140625 154.98958Q58.828125 155.17708 58.671875 155.55208Q58.53125 155.92708 58.53125 156.64583L58.53125 159.33333L57.65625 159.33333ZM69.046875 158.6927Q68.5625 159.11458 68.109375 159.28645Q67.65625 159.45833 67.140625 159.45833Q66.28125 159.45833 65.8125 159.03645Q65.359375 158.61458 65.359375 157.95833Q65.359375 157.58333 65.53125 157.27083Q65.703125 156.95833 65.984375 156.77083Q66.265625 156.5677 66.625 156.47395Q66.875 156.41145 67.40625 156.34895Q68.46875 156.22395 68.96875 156.03645Q68.96875 155.86458 68.96875 155.8177Q68.96875 155.27083 68.71875 155.05208Q68.390625 154.7552 67.71875 154.7552Q67.109375 154.7552 66.8125 154.97395Q66.515625 155.1927 66.375 155.73958L65.515625 155.6302Q65.625 155.0677 65.890625 154.73958Q66.171875 154.39583 66.671875 154.22395Q67.1875 154.03645 67.859375 154.03645Q68.515625 154.03645 68.921875 154.1927Q69.34375 154.34895 69.53125 154.58333Q69.734375 154.8177 69.8125 155.17708Q69.859375 155.39583 69.859375 155.98958L69.859375 157.16145Q69.859375 158.3802 69.90625 158.70833Q69.96875 159.03645 70.140625 159.33333L69.21875 159.33333Q69.078125 159.05208 69.046875 158.6927ZM68.96875 156.72395Q68.484375 156.92708 67.53125 157.0677Q67.0 157.14583 66.765625 157.23958Q66.546875 157.33333 66.421875 157.52083Q66.296875 157.70833 66.296875 157.9427Q66.296875 158.28645 66.5625 158.52083Q66.828125 158.7552 67.34375 158.7552Q67.859375 158.7552 68.25 158.53645Q68.640625 158.3177 68.828125 157.92708Q68.96875 157.6302 68.96875 157.05208L68.96875 156.72395ZM71.65625 159.33333L71.65625 154.14583L72.453125 154.14583L72.453125 154.8802Q73.015625 154.03645 74.09375 154.03645Q74.5625 154.03645 74.953125 154.20833Q75.359375 154.36458 75.546875 154.64583Q75.75 154.91145 75.828125 155.28645Q75.875 155.53645 75.875 156.14583L75.875 159.33333L75.0 159.33333L75.0 156.17708Q75.0 155.64583 74.890625 155.3802Q74.796875 155.11458 74.53125 154.95833Q74.265625 154.78645 73.921875 154.78645Q73.359375 154.78645 72.9375 155.14583Q72.53125 155.5052 72.53125 156.5052L72.53125 159.33333L71.65625 159.33333ZM77.625 161.33333L77.515625 160.5052Q77.8125 160.58333 78.03125 160.58333Q78.3125 160.58333 78.484375 160.48958Q78.671875 160.39583 78.78125 160.20833Q78.859375 160.08333 79.046875 159.55208Q79.078125 159.48958 79.125 159.34895L77.15625 154.14583L78.109375 154.14583L79.1875 157.14583Q79.390625 157.72395 79.5625 158.34895Q79.71875 157.73958 79.921875 157.17708L81.03125 154.14583L81.90625 154.14583L79.9375 159.42708Q79.625 160.27083 79.453125 160.59895Q79.21875 161.03645 78.90625 161.23958Q78.609375 161.4427 78.1875 161.4427Q77.9375 161.4427 77.625 161.33333Z" fill-rule="nonzero"/><path fill="#6fc8d6" d="M32.0 178.83333C32.0 182.14705 29.31371 184.83333 26.0 184.83333C22.68629 184.83333 20.0 182.14705 20.0 178.83333C20.0 175.51962 22.68629 172.83333 26.0 172.83333C29.31371 172.83333 32.0 175.51962 32.0 178.83333Z" fill-rule="nonzero"/><path fill="#20303a" d="M40.734375 182.33333L40.734375 175.17708L43.421875 175.17708Q44.234375 175.17708 44.734375 175.39583Q45.234375 175.61458 45.515625 176.0677Q45.796875 176.5052 45.796875 177.0052Q45.796875 177.45833 45.546875 177.86458Q45.296875 178.27083 44.796875 178.52083Q45.4375 178.70833 45.78125 179.17708Q46.140625 179.6302 46.140625 180.2552Q46.140625 180.7552 45.921875 181.1927Q45.71875 181.6302 45.40625 181.86458Q45.09375 182.09895 44.609375 182.22395Q44.140625 182.33333 43.46875 182.33333L40.734375 182.33333ZM41.6875 178.17708L43.234375 178.17708Q43.859375 178.17708 44.125 178.09895Q44.5 177.98958 44.671875 177.73958Q44.859375 177.48958 44.859375 177.11458Q44.859375 176.7552 44.6875 176.48958Q44.515625 176.22395 44.1875 176.1302Q43.875 176.02083 43.109375 176.02083L41.6875 176.02083L41.6875 178.17708ZM41.6875 181.48958L43.46875 181.48958Q43.921875 181.48958 44.109375 181.45833Q44.4375 181.39583 44.65625 181.2552Q44.875 181.11458 45.015625 180.86458Q45.15625 180.59895 45.15625 180.2552Q45.15625 179.86458 44.953125 179.5677Q44.75 179.27083 44.375 179.14583Q44.015625 179.02083 43.328125 179.02083L41.6875 179.02083L41.6875 181.48958ZM51.203125 180.66145L52.125 180.77083Q51.90625 181.5677 51.3125 182.02083Q50.734375 182.45833 49.84375 182.45833Q48.703125 182.45833 48.03125 181.7552Q47.359375 181.05208 47.359375 179.78645Q47.359375 178.47395 48.03125 177.7552Q48.71875 177.03645 49.78125 177.03645Q50.828125 177.03645 51.484375 177.73958Q52.140625 178.4427 52.140625 179.72395Q52.140625 179.80208 52.140625 179.95833L48.28125 179.95833Q48.328125 180.8177 48.75 181.27083Q49.1875 181.72395 49.84375 181.72395Q50.328125 181.72395 50.671875 181.47395Q51.015625 181.22395 51.203125 180.66145ZM48.328125 179.23958L51.21875 179.23958Q51.15625 178.58333 50.890625 178.2552Q50.46875 177.7552 49.796875 177.7552Q49.1875 177.7552 48.78125 178.16145Q48.375 178.5677 48.328125 179.23958ZM53.640625 182.33333L53.640625 175.17708L54.515625 175.17708L54.515625 182.33333L53.640625 182.33333ZM55.5 182.77083L56.359375 182.89583Q56.40625 183.28645 56.65625 183.47395Q56.984375 183.70833 57.546875 183.70833Q58.15625 183.70833 58.484375 183.45833Q58.8125 183.22395 58.9375 182.78645Q59.0 182.52083 59.0 181.66145Q58.421875 182.33333 57.5625 182.33333Q56.5 182.33333 55.90625 181.5677Q55.328125 180.78645 55.328125 179.70833Q55.328125 178.97395 55.59375 178.34895Q55.859375 177.70833 56.359375 177.3802Q56.875 177.03645 57.5625 177.03645Q58.484375 177.03645 59.078125 177.77083L59.078125 177.14583L59.890625 177.14583L59.890625 181.6302Q59.890625 182.84895 59.640625 183.34895Q59.40625 183.84895 58.859375 184.14583Q58.328125 184.4427 57.546875 184.4427Q56.625 184.4427 56.046875 184.02083Q55.484375 183.59895 55.5 182.77083ZM56.21875 179.64583Q56.21875 180.66145 56.625 181.1302Q57.03125 181.59895 57.640625 181.59895Q58.25 181.59895 58.65625 181.14583Q59.078125 180.67708 59.078125 179.67708Q59.078125 178.72395 58.65625 178.23958Q58.234375 177.7552 57.625 177.7552Q57.046875 177.7552 56.625 178.23958Q56.21875 178.70833 56.21875 179.64583ZM61.671875 176.1927L61.671875 175.17708L62.546875 175.17708L62.546875 176.1927L61.671875 176.1927ZM61.671875 182.33333L61.671875 177.14583L62.546875 177.14583L62.546875 182.33333L61.671875 182.33333ZM67.0625 182.33333L67.0625 181.5677Q66.453125 182.45833 65.40625 182.45833Q64.953125 182.45833 64.546875 182.28645Q64.15625 182.09895 63.953125 181.83333Q63.765625 181.5677 63.6875 181.17708Q63.640625 180.92708 63.640625 180.36458L63.640625 177.14583L64.515625 177.14583L64.515625 180.02083Q64.515625 180.70833 64.578125 180.95833Q64.65625 181.30208 64.921875 181.5052Q65.1875 181.6927 65.59375 181.6927Q65.984375 181.6927 66.328125 181.48958Q66.671875 181.28645 66.8125 180.9427Q66.96875 180.58333 66.96875 179.92708L66.96875 177.14583L67.84375 177.14583L67.84375 182.33333L67.0625 182.33333ZM69.65625 182.33333L69.65625 177.14583L70.453125 177.14583L70.453125 177.8802Q70.6875 177.48958 71.09375 177.27083Q71.5 177.03645 72.015625 177.03645Q72.59375 177.03645 72.953125 177.27083Q73.328125 177.5052 73.484375 177.9427Q74.09375 177.03645 75.078125 177.03645Q75.859375 177.03645 76.265625 177.45833Q76.6875 177.8802 76.6875 178.77083L76.6875 182.33333L75.8125 182.33333L75.8125 179.0677Q75.8125 178.53645 75.71875 178.30208Q75.640625 178.0677 75.40625 177.92708Q75.1875 177.78645 74.890625 177.78645Q74.34375 177.78645 73.984375 178.16145Q73.625 178.52083 73.625 179.3177L73.625 182.33333L72.734375 182.33333L72.734375 178.95833Q72.734375 178.3802 72.515625 178.08333Q72.3125 177.78645 71.828125 177.78645Q71.453125 177.78645 71.140625 177.98958Q70.828125 178.17708 70.671875 178.55208Q70.53125 178.92708 70.53125 179.64583L70.53125 182.33333L69.65625 182.33333Z" fill-rule="nonzero"/><path fill="#4d6d80" d="M32.0 201.83333C32.0 205.14705 29.31371 207.83333 26.0 207.83333C22.68629 207.83333 20.0 205.14705 20.0 201.83333C20.0 198.51962 22.68629 195.83333 26.0 195.83333C29.31371 195.83333 32.0 198.51962 32.0 201.83333Z" fill-rule="nonzero"/><path fill="#20303a" d="M45.875 202.8177L46.828125 203.0677Q46.53125 204.22395 45.75 204.84895Q44.984375 205.45833 43.859375 205.45833Q42.703125 205.45833 41.96875 204.98958Q41.25 204.5052 40.875 203.61458Q40.5 202.72395 40.5 201.6927Q40.5 200.58333 40.921875 199.7552Q41.359375 198.91145 42.140625 198.48958Q42.9375 198.05208 43.875 198.05208Q44.953125 198.05208 45.6875 198.59895Q46.421875 199.14583 46.703125 200.1302L45.765625 200.36458Q45.515625 199.58333 45.046875 199.22395Q44.578125 198.86458 43.859375 198.86458Q43.03125 198.86458 42.46875 199.27083Q41.921875 199.66145 41.6875 200.33333Q41.46875 200.98958 41.46875 201.6927Q41.46875 202.61458 41.734375 203.30208Q42.0 203.97395 42.5625 204.3177Q43.125 204.64583 43.78125 204.64583Q44.578125 204.64583 45.125 204.1927Q45.6875 203.72395 45.875 202.8177ZM47.65625 205.33333L47.65625 198.17708L48.53125 198.17708L48.53125 200.73958Q49.15625 200.03645 50.09375 200.03645Q50.671875 200.03645 51.09375 200.27083Q51.515625 200.48958 51.703125 200.89583Q51.890625 201.28645 51.890625 202.05208L51.890625 205.33333L51.0 205.33333L51.0 202.05208Q51.0 201.3802 50.71875 201.08333Q50.4375 200.78645 49.90625 200.78645Q49.515625 200.78645 49.171875 200.98958Q48.828125 201.1927 48.671875 201.53645Q48.53125 201.8802 48.53125 202.48958L48.53125 205.33333L47.65625 205.33333ZM53.671875 199.1927L53.671875 198.17708L54.546875 198.17708L54.546875 199.1927L53.671875 199.1927ZM53.671875 205.33333L53.671875 200.14583L54.546875 200.14583L54.546875 205.33333L53.671875 205.33333ZM55.65625 205.33333L55.65625 200.14583L56.453125 200.14583L56.453125 200.8802Q57.015625 200.03645 58.09375 200.03645Q58.5625 200.03645 58.953125 200.20833Q59.359375 200.36458 59.546875 200.64583Q59.75 200.91145 59.828125 201.28645Q59.875 201.53645 59.875 202.14583L59.875 205.33333L59.0 205.33333L59.0 202.17708Q59.0 201.64583 58.890625 201.3802Q58.796875 201.11458 58.53125 200.95833Q58.265625 200.78645 57.921875 200.78645Q57.359375 200.78645 56.9375 201.14583Q56.53125 201.5052 56.53125 202.5052L56.53125 205.33333L55.65625 205.33333ZM65.046875 204.6927Q64.5625 205.11458 64.109375 205.28645Q63.65625 205.45833 63.140625 205.45833Q62.28125 205.45833 61.8125 205.03645Q61.359375 204.61458 61.359375 203.95833Q61.359375 203.58333 61.53125 203.27083Q61.703125 202.95833 61.984375 202.77083Q62.265625 202.5677 62.625 202.47395Q62.875 202.41145 63.40625 202.34895Q64.46875 202.22395 64.96875 202.03645Q64.96875 201.86458 64.96875 201.8177Q64.96875 201.27083 64.71875 201.05208Q64.390625 200.7552 63.71875 200.7552Q63.109375 200.7552 62.8125 200.97395Q62.515625 201.1927 62.375 201.73958L61.515625 201.6302Q61.625 201.0677 61.890625 200.73958Q62.171875 200.39583 62.671875 200.22395Q63.1875 200.03645 63.859375 200.03645Q64.515625 200.03645 64.921875 200.1927Q65.34375 200.34895 65.53125 200.58333Q65.734375 200.8177 65.8125 201.17708Q65.859375 201.39583 65.859375 201.98958L65.859375 203.16145Q65.859375 204.3802 65.90625 204.70833Q65.96875 205.03645 66.140625 205.33333L65.21875 205.33333Q65.078125 205.05208 65.046875 204.6927ZM64.96875 202.72395Q64.484375 202.92708 63.53125 203.0677Q63.0 203.14583 62.765625 203.23958Q62.546875 203.33333 62.421875 203.52083Q62.296875 203.70833 62.296875 203.9427Q62.296875 204.28645 62.5625 204.52083Q62.828125 204.7552 63.34375 204.7552Q63.859375 204.7552 64.25 204.53645Q64.640625 204.3177 64.828125 203.92708Q64.96875 203.6302 64.96875 203.05208L64.96875 202.72395Z" fill-rule="nonzero"/><path fill="#cd897a" d="M32.0 224.83333C32.0 228.14705 29.31371 230.83333 26.0 230.83333C22.68629 230.83333 20.0 228.14705 20.0 224.83333C20.0 221.51962 22.68629 218.83333 26.0 218.83333C29.31371 218.83333 32.0 221.51962 32.0 224.83333Z" fill-rule="nonzero"/><path fill="#20303a" d="M40.9375 228.33333L40.9375 221.17708L41.875 221.17708L41.875 228.33333L40.9375 228.33333ZM43.65625 228.33333L43.65625 223.14583L44.453125 223.14583L44.453125 223.8802Q45.015625 223.03645 46.09375 223.03645Q46.5625 223.03645 46.953125 223.20833Q47.359375 223.36458 47.546875 223.64583Q47.75 223.91145 47.828125 224.28645Q47.875 224.53645 47.875 225.14583L47.875 228.33333L47.0 228.33333L47.0 225.17708Q47.0 224.64583 46.890625 224.3802Q46.796875 224.11458 46.53125 223.95833Q46.265625 223.78645 45.921875 223.78645Q45.359375 223.78645 44.9375 224.14583Q44.53125 224.5052 44.53125 225.5052L44.53125 228.33333L43.65625 228.33333ZM53.03125 228.33333L53.03125 227.67708Q52.53125 228.45833 51.578125 228.45833Q50.953125 228.45833 50.421875 228.11458Q49.90625 227.77083 49.625 227.16145Q49.34375 226.53645 49.34375 225.73958Q49.34375 224.97395 49.59375 224.34895Q49.859375 223.70833 50.375 223.3802Q50.890625 223.03645 51.53125 223.03645Q52.0 223.03645 52.359375 223.23958Q52.734375 223.42708 52.96875 223.73958L52.96875 221.17708L53.84375 221.17708L53.84375 228.33333L53.03125 228.33333ZM50.25 225.73958Q50.25 226.73958 50.65625 227.23958Q51.078125 227.72395 51.65625 227.72395Q52.234375 227.72395 52.625 227.2552Q53.03125 226.78645 53.03125 225.8177Q53.03125 224.7552 52.625 224.2552Q52.21875 223.7552 51.625 223.7552Q51.03125 223.7552 50.640625 224.23958Q50.25 224.70833 50.25 225.73958ZM55.671875 222.1927L55.671875 221.17708L56.546875 221.17708L56.546875 222.1927L55.671875 222.1927ZM55.671875 228.33333L55.671875 223.14583L56.546875 223.14583L56.546875 228.33333L55.671875 228.33333ZM61.046875 227.6927Q60.5625 228.11458 60.109375 228.28645Q59.65625 228.45833 59.140625 228.45833Q58.28125 228.45833 57.8125 228.03645Q57.359375 227.61458 57.359375 226.95833Q57.359375 226.58333 57.53125 226.27083Q57.703125 225.95833 57.984375 225.77083Q58.265625 225.5677 58.625 225.47395Q58.875 225.41145 59.40625 225.34895Q60.46875 225.22395 60.96875 225.03645Q60.96875 224.86458 60.96875 224.8177Q60.96875 224.27083 60.71875 224.05208Q60.390625 223.7552 59.71875 223.7552Q59.109375 223.7552 58.8125 223.97395Q58.515625 224.1927 58.375 224.73958L57.515625 224.6302Q57.625 224.0677 57.890625 223.73958Q58.171875 223.39583 58.671875 223.22395Q59.1875 223.03645 59.859375 223.03645Q60.515625 223.03645 60.921875 223.1927Q61.34375 223.34895 61.53125 223.58333Q61.734375 223.8177 61.8125 224.17708Q61.859375 224.39583 61.859375 224.98958L61.859375 226.16145Q61.859375 227.3802 61.90625 227.70833Q61.96875 228.03645 62.140625 228.33333L61.21875 228.33333Q61.078125 228.05208 61.046875 227.6927ZM60.96875 225.72395Q60.484375 225.92708 59.53125 226.0677Q59.0 226.14583 58.765625 226.23958Q58.546875 226.33333 58.421875 226.52083Q58.296875 226.70833 58.296875 226.9427Q58.296875 227.28645 58.5625 227.52083Q58.828125 227.7552 59.34375 227.7552Q59.859375 227.7552 60.25 227.53645Q60.640625 227.3177 60.828125 226.92708Q60.96875 226.6302 60.96875 226.05208L60.96875 225.72395Z" fill-rule="nonzero"/><path fill="#c6a992" d="M32.0 247.83333C32.0 251.14705 29.31371 253.83333 26.0 253.83333C22.68629 253.83333 20.0 251.14705 20.0 247.83333C20.0 244.51962 22.68629 241.83333 26.0 241.83333C29.31371 241.83333 32.0 244.51962 32.0 247.83333Z" fill-rule="nonzero"/><path fill="#20303a" d="M40.9375 251.33333L40.9375 244.17708L41.875 244.17708L41.875 251.33333L40.9375 251.33333ZM43.65625 251.33333L43.65625 246.14583L44.4375 246.14583L44.4375 246.92708Q44.75 246.3802 45.0 246.20833Q45.25 246.03645 45.5625 246.03645Q46.015625 246.03645 46.46875 246.3177L46.171875 247.1302Q45.84375 246.9427 45.515625 246.9427Q45.234375 246.9427 45.0 247.11458Q44.765625 247.28645 44.671875 247.59895Q44.53125 248.0677 44.53125 248.61458L44.53125 251.33333L43.65625 251.33333ZM50.203125 249.66145L51.125 249.77083Q50.90625 250.5677 50.3125 251.02083Q49.734375 251.45833 48.84375 251.45833Q47.703125 251.45833 47.03125 250.7552Q46.359375 250.05208 46.359375 248.78645Q46.359375 247.47395 47.03125 246.7552Q47.71875 246.03645 48.78125 246.03645Q49.828125 246.03645 50.484375 246.73958Q51.140625 247.4427 51.140625 248.72395Q51.140625 248.80208 51.140625 248.95833L47.28125 248.95833Q47.328125 249.8177 47.75 250.27083Q48.1875 250.72395 48.84375 250.72395Q49.328125 250.72395 49.671875 250.47395Q50.015625 250.22395 50.203125 249.66145ZM47.328125 248.23958L50.21875 248.23958Q50.15625 247.58333 49.890625 247.2552Q49.46875 246.7552 48.796875 246.7552Q48.1875 246.7552 47.78125 247.16145Q47.375 247.5677 47.328125 248.23958ZM52.640625 251.33333L52.640625 244.17708L53.515625 244.17708L53.515625 251.33333L52.640625 251.33333ZM58.046875 250.6927Q57.5625 251.11458 57.109375 251.28645Q56.65625 251.45833 56.140625 251.45833Q55.28125 251.45833 54.8125 251.03645Q54.359375 250.61458 54.359375 249.95833Q54.359375 249.58333 54.53125 249.27083Q54.703125 248.95833 54.984375 248.77083Q55.265625 248.5677 55.625 248.47395Q55.875 248.41145 56.40625 248.34895Q57.46875 248.22395 57.96875 248.03645Q57.96875 247.86458 57.96875 247.8177Q57.96875 247.27083 57.71875 247.05208Q57.390625 246.7552 56.71875 246.7552Q56.109375 246.7552 55.8125 246.97395Q55.515625 247.1927 55.375 247.73958L54.515625 247.6302Q54.625 247.0677 54.890625 246.73958Q55.171875 246.39583 55.671875 246.22395Q56.1875 246.03645 56.859375 246.03645Q57.515625 246.03645 57.921875 246.1927Q58.34375 246.34895 58.53125 246.58333Q58.734375 246.8177 58.8125 247.17708Q58.859375 247.39583 58.859375 247.98958L58.859375 249.16145Q58.859375 250.3802 58.90625 250.70833Q58.96875 251.03645 59.140625 251.33333L58.21875 251.33333Q58.078125 251.05208 58.046875 250.6927ZM57.96875 248.72395Q57.484375 248.92708 56.53125 249.0677Q56.0 249.14583 55.765625 249.23958Q55.546875 249.33333 55.421875 249.52083Q55.296875 249.70833 55.296875 249.9427Q55.296875 250.28645 55.5625 250.52083Q55.828125 250.7552 56.34375 250.7552Q56.859375 250.7552 57.25 250.53645Q57.640625 250.3177 57.828125 249.92708Q57.96875 249.6302 57.96875 249.05208L57.96875 248.72395ZM60.65625 251.33333L60.65625 246.14583L61.453125 246.14583L61.453125 246.8802Q62.015625 246.03645 63.09375 246.03645Q63.5625 246.03645 63.953125 246.20833Q64.359375 246.36458 64.546875 246.64583Q64.75 246.91145 64.828125 247.28645Q64.875 247.53645 64.875 248.14583L64.875 251.33333L64.0 251.33333L64.0 248.17708Q64.0 247.64583 63.890625 247.3802Q63.796875 247.11458 63.53125 246.95833Q63.265625 246.78645 62.921875 246.78645Q62.359375 246.78645 61.9375 247.14583Q61.53125 247.5052 61.53125 248.5052L61.53125 251.33333L60.65625 251.33333ZM70.03125 251.33333L70.03125 250.67708Q69.53125 251.45833 68.578125 251.45833Q67.953125 251.45833 67.421875 251.11458Q66.90625 250.77083 66.625 250.16145Q66.34375 249.53645 66.34375 248.73958Q66.34375 247.97395 66.59375 247.34895Q66.859375 246.70833 67.375 246.3802Q67.890625 246.03645 68.53125 246.03645Q69.0 246.03645 69.359375 246.23958Q69.734375 246.42708 69.96875 246.73958L69.96875 244.17708L70.84375 244.17708L70.84375 251.33333L70.03125 251.33333ZM67.25 248.73958Q67.25 249.73958 67.65625 250.23958Q68.078125 250.72395 68.65625 250.72395Q69.234375 250.72395 69.625 250.2552Q70.03125 249.78645 70.03125 248.8177Q70.03125 247.7552 69.625 247.2552Q69.21875 246.7552 68.625 246.7552Q68.03125 246.7552 67.640625 247.23958Q67.25 247.70833 67.25 248.73958Z" fill-rule="nonzero"/><path fill="#4db3a9" d="M32.0 270.83334C32.0 274.14703 29.31371 276.83334 26.0 276.83334C22.68629 276.83334 20.0 274.14703 20.0 270.83334C20.0 267.51962 22.68629 264.83334 26.0 264.83334C29.31371 264.83334 32.0 267.51962 32.0 270.83334Z" fill-rule="nonzero"/><path fill="#20303a" d="M45.46875 267.1771L46.421875 267.1771L46.421875 271.31772Q46.421875 272.39584 46.171875 273.03647Q45.921875 273.66147 45.28125 274.06772Q44.65625 274.45834 43.625 274.45834Q42.609375 274.45834 41.96875 274.1146Q41.328125 273.75522 41.046875 273.09897Q40.78125 272.44272 40.78125 271.31772L40.78125 267.1771L41.734375 267.1771L41.734375 271.3021Q41.734375 272.2396 41.90625 272.6771Q42.078125 273.1146 42.5 273.3646Q42.921875 273.59897 43.53125 273.59897Q44.578125 273.59897 45.015625 273.13022Q45.46875 272.64584 45.46875 271.3021L45.46875 267.1771ZM47.453125 272.03647L48.34375 271.95834Q48.40625 272.4896 48.640625 272.83334Q48.875 273.1771 49.359375 273.39584Q49.84375 273.59897 50.453125 273.59897Q51.0 273.59897 51.40625 273.44272Q51.828125 273.28647 52.03125 273.00522Q52.234375 272.72397 52.234375 272.39584Q52.234375 272.0521 52.03125 271.8021Q51.84375 271.5521 51.390625 271.38022Q51.109375 271.27084 50.125 271.03647Q49.140625 270.78647 48.734375 270.58334Q48.21875 270.31772 47.96875 269.9271Q47.71875 269.52084 47.71875 269.02084Q47.71875 268.4896 48.03125 268.02084Q48.34375 267.53647 48.921875 267.3021Q49.515625 267.0521 50.25 267.0521Q51.03125 267.0521 51.640625 267.31772Q52.25 267.56772 52.578125 268.06772Q52.90625 268.56772 52.9375 269.19272L52.03125 269.25522Q51.953125 268.58334 51.53125 268.2396Q51.109375 267.88022 50.28125 267.88022Q49.421875 267.88022 49.03125 268.20834Q48.640625 268.52084 48.640625 268.95834Q48.640625 269.34897 48.921875 269.59897Q49.1875 269.84897 50.34375 270.1146Q51.5 270.3646 51.921875 270.56772Q52.546875 270.84897 52.84375 271.3021Q53.140625 271.7396 53.140625 272.31772Q53.140625 272.88022 52.8125 273.39584Q52.5 273.89584 51.875 274.1771Q51.265625 274.45834 50.5 274.45834Q49.53125 274.45834 48.875 274.1771Q48.21875 273.89584 47.84375 273.33334Q47.46875 272.75522 47.453125 272.03647Z" fill-rule="nonzero"/><path fill="#f2e5d9" d="M32.0 293.83334C32.0 297.14703 29.31371 299.83334 26.0 299.83334C22.68629 299.83334 20.0 297.14703 20.0 293.83334C20.0 290.51962 22.68629 287.83334 26.0 287.83334C29.31371 287.83334 32.0 290.51962 32.0 293.83334Z" fill-rule="nonzero"/><path fill="#20303a" d="M40.734375 297.33334L40.734375 290.1771L43.421875 290.1771Q44.234375 290.1771 44.734375 290.39584Q45.234375 290.6146 45.515625 291.06772Q45.796875 291.50522 45.796875 292.00522Q45.796875 292.45834 45.546875 292.8646Q45.296875 293.27084 44.796875 293.52084Q45.4375 293.70834 45.78125 294.1771Q46.140625 294.63022 46.140625 295.25522Q46.140625 295.75522 45.921875 296.19272Q45.71875 296.63022 45.40625 296.8646Q45.09375 297.09897 44.609375 297.22397Q44.140625 297.33334 43.46875 297.33334L40.734375 297.33334ZM41.6875 293.1771L43.234375 293.1771Q43.859375 293.1771 44.125 293.09897Q44.5 292.9896 44.671875 292.7396Q44.859375 292.4896 44.859375 292.1146Q44.859375 291.75522 44.6875 291.4896Q44.515625 291.22397 44.1875 291.13022Q43.875 291.02084 43.109375 291.02084L41.6875 291.02084L41.6875 293.1771ZM41.6875 296.4896L43.46875 296.4896Q43.921875 296.4896 44.109375 296.45834Q44.4375 296.39584 44.65625 296.25522Q44.875 296.1146 45.015625 295.8646Q45.15625 295.59897 45.15625 295.25522Q45.15625 294.8646 44.953125 294.56772Q44.75 294.27084 44.375 294.14584Q44.015625 294.02084 43.328125 294.02084L41.6875 294.02084L41.6875 296.4896ZM47.65625 297.33334L47.65625 292.14584L48.4375 292.14584L48.4375 292.9271Q48.75 292.38022 49.0 292.20834Q49.25 292.03647 49.5625 292.03647Q50.015625 292.03647 50.46875 292.31772L50.171875 293.13022Q49.84375 292.94272 49.515625 292.94272Q49.234375 292.94272 49.0 293.1146Q48.765625 293.28647 48.671875 293.59897Q48.53125 294.06772 48.53125 294.6146L48.53125 297.33334L47.65625 297.33334ZM54.046875 296.69272Q53.5625 297.1146 53.109375 297.28647Q52.65625 297.45834 52.140625 297.45834Q51.28125 297.45834 50.8125 297.03647Q50.359375 296.6146 50.359375 295.95834Q50.359375 295.58334 50.53125 295.27084Q50.703125 294.95834 50.984375 294.77084Q51.265625 294.56772 51.625 294.47397Q51.875 294.41147 52.40625 294.34897Q53.46875 294.22397 53.96875 294.03647Q53.96875 293.8646 53.96875 293.81772Q53.96875 293.27084 53.71875 293.0521Q53.390625 292.75522 52.71875 292.75522Q52.109375 292.75522 51.8125 292.97397Q51.515625 293.19272 51.375 293.7396L50.515625 293.63022Q50.625 293.06772 50.890625 292.7396Q51.171875 292.39584 51.671875 292.22397Q52.1875 292.03647 52.859375 292.03647Q53.515625 292.03647 53.921875 292.19272Q54.34375 292.34897 54.53125 292.58334Q54.734375 292.81772 54.8125 293.1771Q54.859375 293.39584 54.859375 293.9896L54.859375 295.16147Q54.859375 296.38022 54.90625 296.70834Q54.96875 297.03647 55.140625 297.33334L54.21875 297.33334Q54.078125 297.0521 54.046875 296.69272ZM53.96875 294.72397Q53.484375 294.9271 52.53125 295.06772Q52.0 295.14584 51.765625 295.2396Q51.546875 295.33334 51.421875 295.52084Q51.296875 295.70834 51.296875 295.94272Q51.296875 296.28647 51.5625 296.52084Q51.828125 296.75522 52.34375 296.75522Q52.859375 296.75522 53.25 296.53647Q53.640625 296.31772 53.828125 295.9271Q53.96875 295.63022 53.96875 295.0521L53.96875 294.72397ZM56.203125 297.33334L56.203125 296.6146L59.5 292.83334Q58.9375 292.8646 58.5 292.8646L56.390625 292.8646L56.390625 292.14584L60.625 292.14584L60.625 292.72397L57.828125 296.02084L57.28125 296.6146Q57.875 296.58334 58.390625 296.58334L60.78125 296.58334L60.78125 297.33334L56.203125 297.33334ZM61.671875 291.19272L61.671875 290.1771L62.546875 290.1771L62.546875 291.19272L61.671875 291.19272ZM61.671875 297.33334L61.671875 292.14584L62.546875 292.14584L62.546875 297.33334L61.671875 297.33334ZM63.640625 297.33334L63.640625 290.1771L64.515625 290.1771L64.515625 297.33334L63.640625 297.33334Z" fill-rule="nonzero"/><path fill="#9ad9e2" d="M32.0 316.83334C32.0 320.14703 29.31371 322.83334 26.0 322.83334C22.68629 322.83334 20.0 320.14703 20.0 316.83334C20.0 313.51962 22.68629 310.83334 26.0 310.83334C29.31371 310.83334 32.0 313.51962 32.0 316.83334Z" fill-rule="nonzero"/><path fill="#20303a" d="M42.59375 320.33334L42.59375 314.02084L40.234375 314.02084L40.234375 313.1771L45.90625 313.1771L45.90625 314.02084L43.546875 314.02084L43.546875 320.33334L42.59375 320.33334ZM50.046875 319.69272Q49.5625 320.1146 49.109375 320.28647Q48.65625 320.45834 48.140625 320.45834Q47.28125 320.45834 46.8125 320.03647Q46.359375 319.6146 46.359375 318.95834Q46.359375 318.58334 46.53125 318.27084Q46.703125 317.95834 46.984375 317.77084Q47.265625 317.56772 47.625 317.47397Q47.875 317.41147 48.40625 317.34897Q49.46875 317.22397 49.96875 317.03647Q49.96875 316.8646 49.96875 316.81772Q49.96875 316.27084 49.71875 316.0521Q49.390625 315.75522 48.71875 315.75522Q48.109375 315.75522 47.8125 315.97397Q47.515625 316.19272 47.375 316.7396L46.515625 316.63022Q46.625 316.06772 46.890625 315.7396Q47.171875 315.39584 47.671875 315.22397Q48.1875 315.03647 48.859375 315.03647Q49.515625 315.03647 49.921875 315.19272Q50.34375 315.34897 50.53125 315.58334Q50.734375 315.81772 50.8125 316.1771Q50.859375 316.39584 50.859375 316.9896L50.859375 318.16147Q50.859375 319.38022 50.90625 319.70834Q50.96875 320.03647 51.140625 320.33334L50.21875 320.33334Q50.078125 320.0521 50.046875 319.69272ZM49.96875 317.72397Q49.484375 317.9271 48.53125 318.06772Q48.0 318.14584 47.765625 318.2396Q47.546875 318.33334 47.421875 318.52084Q47.296875 318.70834 47.296875 318.94272Q47.296875 319.28647 47.5625 319.52084Q47.828125 319.75522 48.34375 319.75522Q48.859375 319.75522 49.25 319.53647Q49.640625 319.31772 49.828125 318.9271Q49.96875 318.63022 49.96875 318.0521L49.96875 317.72397ZM52.671875 314.19272L52.671875 313.1771L53.546875 313.1771L53.546875 314.19272L52.671875 314.19272ZM52.671875 320.33334L52.671875 315.14584L53.546875 315.14584L53.546875 320.33334L52.671875 320.33334ZM55.609375 320.33334L54.03125 315.14584L54.9375 315.14584L55.765625 318.14584L56.078125 319.25522Q56.09375 319.1771 56.34375 318.1771L57.171875 315.14584L58.0625 315.14584L58.84375 318.16147L59.109375 319.14584L59.40625 318.14584L60.296875 315.14584L61.140625 315.14584L59.515625 320.33334L58.609375 320.33334L57.78125 317.22397L57.578125 316.34897L56.53125 320.33334L55.609375 320.33334ZM65.046875 319.69272Q64.5625 320.1146 64.109375 320.28647Q63.65625 320.45834 63.140625 320.45834Q62.28125 320.45834 61.8125 320.03647Q61.359375 319.6146 61.359375 318.95834Q61.359375 318.58334 61.53125 318.27084Q61.703125 317.95834 61.984375 317.77084Q62.265625 317.56772 62.625 317.47397Q62.875 317.41147 63.40625 317.34897Q64.46875 317.22397 64.96875 317.03647Q64.96875 316.8646 64.96875 316.81772Q64.96875 316.27084 64.71875 316.0521Q64.390625 315.75522 63.71875 315.75522Q63.109375 315.75522 62.8125 315.97397Q62.515625 316.19272 62.375 316.7396L61.515625 316.63022Q61.625 316.06772 61.890625 315.7396Q62.171875 315.39584 62.671875 315.22397Q63.1875 315.03647 63.859375 315.03647Q64.515625 315.03647 64.921875 315.19272Q65.34375 315.34897 65.53125 315.58334Q65.734375 315.81772 65.8125 316.1771Q65.859375 316.39584 65.859375 316.9896L65.859375 318.16147Q65.859375 319.38022 65.90625 319.70834Q65.96875 320.03647 66.140625 320.33334L65.21875 320.33334Q65.078125 320.0521 65.046875 319.69272ZM64.96875 317.72397Q64.484375 317.9271 63.53125 318.06772Q63.0 318.14584 62.765625 318.2396Q62.546875 318.33334 62.421875 318.52084Q62.296875 318.70834 62.296875 318.94272Q62.296875 319.28647 62.5625 319.52084Q62.828125 319.75522 63.34375 319.75522Q63.859375 319.75522 64.25 319.53647Q64.640625 319.31772 64.828125 318.9271Q64.96875 318.63022 64.96875 318.0521L64.96875 317.72397ZM67.65625 320.33334L67.65625 315.14584L68.453125 315.14584L68.453125 315.88022Q69.015625 315.03647 70.09375 315.03647Q70.5625 315.03647 70.953125 315.20834Q71.359375 315.3646 71.546875 315.64584Q71.75 315.91147 71.828125 316.28647Q71.875 316.53647 71.875 317.14584L71.875 320.33334L71.0 320.33334L71.0 317.1771Q71.0 316.64584 70.890625 316.38022Q70.796875 316.1146 70.53125 315.95834Q70.265625 315.78647 69.921875 315.78647Q69.359375 315.78647 68.9375 316.14584Q68.53125 316.50522 68.53125 317.50522L68.53125 320.33334L67.65625 320.33334Z" fill-rule="nonzero"/><path fill="#99acb7" d="M32.0 339.83334C32.0 343.14703 29.31371 345.83334 26.0 345.83334C22.68629 345.83334 20.0 343.14703 20.0 339.83334C20.0 336.51962 22.68629 333.83334 26.0 333.83334C29.31371 333.83334 32.0 336.51962 32.0 339.83334Z" fill-rule="nonzero"/><path fill="#20303a" d="M40.453125 341.03647L41.34375 340.95834Q41.40625 341.4896 41.640625 341.83334Q41.875 342.1771 42.359375 342.39584Q42.84375 342.59897 43.453125 342.59897Q44.0 342.59897 44.40625 342.44272Q44.828125 342.28647 45.03125 342.00522Q45.234375 341.72397 45.234375 341.39584Q45.234375 341.0521 45.03125 340.8021Q44.84375 340.5521 44.390625 340.38022Q44.109375 340.27084 43.125 340.03647Q42.140625 339.78647 41.734375 339.58334Q41.21875 339.31772 40.96875 338.9271Q40.71875 338.52084 40.71875 338.02084Q40.71875 337.4896 41.03125 337.02084Q41.34375 336.53647 41.921875 336.3021Q42.515625 336.0521 43.25 336.0521Q44.03125 336.0521 44.640625 336.31772Q45.25 336.56772 45.578125 337.06772Q45.90625 337.56772 45.9375 338.19272L45.03125 338.25522Q44.953125 337.58334 44.53125 337.2396Q44.109375 336.88022 43.28125 336.88022Q42.421875 336.88022 42.03125 337.20834Q41.640625 337.52084 41.640625 337.95834Q41.640625 338.34897 41.921875 338.59897Q42.1875 338.84897 43.34375 339.1146Q44.5 339.3646 44.921875 339.56772Q45.546875 339.84897 45.84375 340.3021Q46.140625 340.7396 46.140625 341.31772Q46.140625 341.88022 45.8125 342.39584Q45.5 342.89584 44.875 343.1771Q44.265625 343.45834 43.5 343.45834Q42.53125 343.45834 41.875 343.1771Q41.21875 342.89584 40.84375 342.33334Q40.46875 341.75522 40.453125 341.03647ZM47.65625 345.31772L47.65625 338.14584L48.453125 338.14584L48.453125 338.81772Q48.75 338.4271 49.09375 338.2396Q49.453125 338.03647 49.96875 338.03647Q50.625 338.03647 51.125 338.38022Q51.640625 338.70834 51.890625 339.33334Q52.15625 339.95834 52.15625 340.70834Q52.15625 341.4896 51.875 342.13022Q51.59375 342.77084 51.046875 343.1146Q50.5 343.45834 49.90625 343.45834Q49.46875 343.45834 49.109375 343.27084Q48.765625 343.08334 48.53125 342.8021L48.53125 345.31772L47.65625 345.31772ZM48.453125 340.77084Q48.453125 341.77084 48.859375 342.25522Q49.265625 342.72397 49.84375 342.72397Q50.421875 342.72397 50.84375 342.2396Q51.265625 341.7396 51.265625 340.69272Q51.265625 339.70834 50.859375 339.22397Q50.453125 338.72397 49.875 338.72397Q49.3125 338.72397 48.875 339.25522Q48.453125 339.77084 48.453125 340.77084ZM57.046875 342.69272Q56.5625 343.1146 56.109375 343.28647Q55.65625 343.45834 55.140625 343.45834Q54.28125 343.45834 53.8125 343.03647Q53.359375 342.6146 53.359375 341.95834Q53.359375 341.58334 53.53125 341.27084Q53.703125 340.95834 53.984375 340.77084Q54.265625 340.56772 54.625 340.47397Q54.875 340.41147 55.40625 340.34897Q56.46875 340.22397 56.96875 340.03647Q56.96875 339.8646 56.96875 339.81772Q56.96875 339.27084 56.71875 339.0521Q56.390625 338.75522 55.71875 338.75522Q55.109375 338.75522 54.8125 338.97397Q54.515625 339.19272 54.375 339.7396L53.515625 339.63022Q53.625 339.06772 53.890625 338.7396Q54.171875 338.39584 54.671875 338.22397Q55.1875 338.03647 55.859375 338.03647Q56.515625 338.03647 56.921875 338.19272Q57.34375 338.34897 57.53125 338.58334Q57.734375 338.81772 57.8125 339.1771Q57.859375 339.39584 57.859375 339.9896L57.859375 341.16147Q57.859375 342.38022 57.90625 342.70834Q57.96875 343.03647 58.140625 343.33334L57.21875 343.33334Q57.078125 343.0521 57.046875 342.69272ZM56.96875 340.72397Q56.484375 340.9271 55.53125 341.06772Q55.0 341.14584 54.765625 341.2396Q54.546875 341.33334 54.421875 341.52084Q54.296875 341.70834 54.296875 341.94272Q54.296875 342.28647 54.5625 342.52084Q54.828125 342.75522 55.34375 342.75522Q55.859375 342.75522 56.25 342.53647Q56.640625 342.31772 56.828125 341.9271Q56.96875 341.63022 56.96875 341.0521L56.96875 340.72397ZM59.671875 337.19272L59.671875 336.1771L60.546875 336.1771L60.546875 337.19272L59.671875 337.19272ZM59.671875 343.33334L59.671875 338.14584L60.546875 338.14584L60.546875 343.33334L59.671875 343.33334ZM61.65625 343.33334L61.65625 338.14584L62.453125 338.14584L62.453125 338.88022Q63.015625 338.03647 64.09375 338.03647Q64.5625 338.03647 64.953125 338.20834Q65.359375 338.3646 65.546875 338.64584Q65.75 338.91147 65.828125 339.28647Q65.875 339.53647 65.875 340.14584L65.875 343.33334L65.0 343.33334L65.0 340.1771Q65.0 339.64584 64.890625 339.38022Q64.796875 339.1146 64.53125 338.95834Q64.265625 338.78647 63.921875 338.78647Q63.359375 338.78647 62.9375 339.14584Q62.53125 339.50522 62.53125 340.50522L62.53125 343.33334L61.65625 343.33334Z" fill-rule="nonzero"/><path fill="#20303a" d="M20.765625 366.33334L20.765625 359.1771L21.734375 359.1771L25.5 364.8021L25.5 359.1771L26.40625 359.1771L26.40625 366.33334L25.4375 366.33334L21.671875 360.70834L21.671875 366.33334L20.765625 366.33334ZM27.328125 363.7396Q27.328125 362.3021 28.140625 361.59897Q28.796875 361.03647 29.765625 361.03647Q30.828125 361.03647 31.5 361.7396Q32.1875 362.4271 32.1875 363.66147Q32.1875 364.66147 31.890625 365.2396Q31.59375 365.81772 31.015625 366.14584Q30.4375 366.45834 29.765625 366.45834Q28.671875 366.45834 28.0 365.75522Q27.328125 365.0521 27.328125 363.7396ZM28.234375 363.7396Q28.234375 364.7396 28.671875 365.2396Q29.109375 365.72397 29.765625 365.72397Q30.421875 365.72397 30.84375 365.22397Q31.28125 364.72397 31.28125 363.70834Q31.28125 362.75522 30.84375 362.25522Q30.40625 361.75522 29.765625 361.75522Q29.109375 361.75522 28.671875 362.25522Q28.234375 362.7396 28.234375 363.7396ZM33.5 366.77084L34.359375 366.89584Q34.40625 367.28647 34.65625 367.47397Q34.984375 367.70834 35.546875 367.70834Q36.15625 367.70834 36.484375 367.45834Q36.8125 367.22397 36.9375 366.78647Q37.0 366.52084 37.0 365.66147Q36.421875 366.33334 35.5625 366.33334Q34.5 366.33334 33.90625 365.56772Q33.328125 364.78647 33.328125 363.70834Q33.328125 362.97397 33.59375 362.34897Q33.859375 361.70834 34.359375 361.38022Q34.875 361.03647 35.5625 361.03647Q36.484375 361.03647 37.078125 361.77084L37.078125 361.14584L37.890625 361.14584L37.890625 365.63022Q37.890625 366.84897 37.640625 367.34897Q37.40625 367.84897 36.859375 368.14584Q36.328125 368.44272 35.546875 368.44272Q34.625 368.44272 34.046875 368.02084Q33.484375 367.59897 33.5 366.77084ZM34.21875 363.64584Q34.21875 364.66147 34.625 365.13022Q35.03125 365.59897 35.640625 365.59897Q36.25 365.59897 36.65625 365.14584Q37.078125 364.6771 37.078125 363.6771Q37.078125 362.72397 36.65625 362.2396Q36.234375 361.75522 35.625 361.75522Q35.046875 361.75522 34.625 362.2396Q34.21875 362.70834 34.21875 363.64584ZM47.03125 365.4896L47.03125 366.33334L42.296875 366.33334Q42.296875 366.02084 42.40625 365.72397Q42.59375 365.2396 42.984375 364.77084Q43.375 364.3021 44.140625 363.69272Q45.296875 362.72397 45.703125 362.1771Q46.125 361.6146 46.125 361.1146Q46.125 360.58334 45.75 360.2396Q45.375 359.88022 44.78125 359.88022Q44.140625 359.88022 43.75 360.25522Q43.375 360.63022 43.375 361.3021L42.46875 361.20834Q42.5625 360.20834 43.15625 359.6771Q43.765625 359.14584 44.796875 359.14584Q45.828125 359.14584 46.421875 359.72397Q47.03125 360.28647 47.03125 361.13022Q47.03125 361.56772 46.84375 361.9896Q46.671875 362.39584 46.265625 362.8646Q45.859375 363.31772 44.90625 364.1146Q44.125 364.77084 43.890625 365.02084Q43.671875 365.25522 43.53125 365.4896L47.03125 365.4896Z" fill-rule="nonzero"/><path fill="#798389" d="M31.765625 33.984375L33.65625 34.453125Q33.0625 36.796875 31.515625 38.03125Q29.96875 39.25 27.71875 39.25Q25.40625 39.25 23.953125 38.3125Q22.515625 37.359375 21.75 35.578125Q21.0 33.78125 21.0 31.734375Q21.0 29.5 21.84375 27.84375Q22.703125 26.171875 24.28125 25.3125Q25.859375 24.4375 27.75 24.4375Q29.90625 24.4375 31.359375 25.53125Q32.828125 26.625 33.40625 28.609375L31.546875 29.046875Q31.046875 27.484375 30.09375 26.78125Q29.15625 26.0625 27.71875 26.0625Q26.0625 26.0625 24.953125 26.859375Q23.84375 27.640625 23.390625 28.984375Q22.953125 30.3125 22.953125 31.71875Q22.953125 33.546875 23.484375 34.921875Q24.015625 36.28125 25.140625 36.953125Q26.265625 37.625 27.5625 37.625Q29.15625 37.625 30.265625 36.703125Q31.375 35.78125 31.765625 33.984375ZM34.671875 33.8125Q34.671875 30.9375 36.265625 29.546875Q37.609375 28.390625 39.53125 28.390625Q41.671875 28.390625 43.015625 29.796875Q44.375 31.203125 44.375 33.671875Q44.375 35.671875 43.78125 36.828125Q43.1875 37.96875 42.03125 38.609375Q40.890625 39.234375 39.53125 39.234375Q37.34375 39.234375 36.0 37.84375Q34.671875 36.4375 34.671875 33.8125ZM36.46875 33.8125Q36.46875 35.8125 37.328125 36.796875Q38.203125 37.78125 39.53125 37.78125Q40.84375 37.78125 41.703125 36.796875Q42.578125 35.796875 42.578125 33.75Q42.578125 31.828125 41.703125 30.84375Q40.828125 29.84375 39.53125 29.84375Q38.203125 29.84375 37.328125 30.84375Q36.46875 31.828125 36.46875 33.8125ZM53.109375 39.0L53.109375 37.46875Q51.90625 39.234375 49.828125 39.234375Q48.90625 39.234375 48.109375 38.890625Q47.3125 38.53125 46.921875 38.0Q46.546875 37.46875 46.390625 36.6875Q46.28125 36.171875 46.28125 35.046875L46.28125 28.625L48.03125 28.625L48.03125 34.375Q48.03125 35.75 48.140625 36.234375Q48.3125 36.921875 48.84375 37.328125Q49.390625 37.71875 50.171875 37.71875Q50.96875 37.71875 51.65625 37.3125Q52.359375 36.90625 52.640625 36.21875Q52.9375 35.515625 52.9375 34.1875L52.9375 28.625L54.6875 28.625L54.6875 39.0L53.109375 39.0ZM57.3125 39.0L57.3125 28.625L58.90625 28.625L58.90625 30.109375Q60.046875 28.390625 62.203125 28.390625Q63.140625 28.390625 63.921875 28.734375Q64.71875 29.0625 65.109375 29.609375Q65.5 30.15625 65.65625 30.90625Q65.75 31.40625 65.75 32.625L65.75 39.0L63.984375 39.0L63.984375 32.6875Q63.984375 31.609375 63.78125 31.078125Q63.578125 30.546875 63.046875 30.234375Q62.53125 29.921875 61.828125 29.921875Q60.703125 29.921875 59.890625 30.640625Q59.078125 31.34375 59.078125 33.328125L59.078125 39.0L57.3125 39.0ZM72.15625 37.421875L72.40625 38.984375Q71.671875 39.140625 71.078125 39.140625Q70.125 39.140625 69.59375 38.84375Q69.078125 38.53125 68.859375 38.046875Q68.640625 37.546875 68.640625 35.96875L68.640625 30.0L67.359375 30.0L67.359375 28.625L68.640625 28.625L68.640625 26.0625L70.390625 25.0L70.390625 28.625L72.15625 28.625L72.15625 30.0L70.390625 30.0L70.390625 36.0625Q70.390625 36.8125 70.484375 37.03125Q70.578125 37.234375 70.78125 37.375Q71.0 37.5 71.390625 37.5Q71.671875 37.5 72.15625 37.421875ZM74.296875 39.0L74.296875 28.625L75.875 28.625L75.875 30.203125Q76.484375 29.09375 77.0 28.75Q77.515625 28.390625 78.125 28.390625Q79.015625 28.390625 79.9375 28.953125L79.328125 30.59375Q78.6875 30.203125 78.046875 30.203125Q77.46875 30.203125 77.0 30.5625Q76.546875 30.90625 76.34375 31.515625Q76.0625 32.453125 76.0625 33.5625L76.0625 39.0L74.296875 39.0ZM81.234375 43.0L81.046875 41.34375Q81.625 41.5 82.046875 41.5Q82.640625 41.5 82.984375 41.296875Q83.34375 41.109375 83.5625 40.765625Q83.734375 40.5 84.109375 39.453125Q84.15625 39.296875 84.265625 39.015625L80.328125 28.625L82.21875 28.625L84.375 34.640625Q84.796875 35.78125 85.125 37.03125Q85.4375 35.828125 85.84375 34.671875L88.0625 28.625L89.828125 28.625L85.875 39.171875Q85.25 40.890625 84.890625 41.53125Q84.421875 42.40625 83.8125 42.796875Q83.21875 43.203125 82.375 43.203125Q81.859375 43.203125 81.234375 43.0ZM96.671875 33.8125Q96.671875 30.9375 98.265625 29.546875Q99.609375 28.390625 101.53125 28.390625Q103.671875 28.390625 105.015625 29.796875Q106.375 31.203125 106.375 33.671875Q106.375 35.671875 105.78125 36.828125Q105.1875 37.96875 104.03125 38.609375Q102.890625 39.234375 101.53125 39.234375Q99.34375 39.234375 98.0 37.84375Q96.671875 36.4375 96.671875 33.8125ZM98.46875 33.8125Q98.46875 35.8125 99.328125 36.796875Q100.203125 37.78125 101.53125 37.78125Q102.84375 37.78125 103.703125 36.796875Q104.578125 35.796875 104.578125 33.75Q104.578125 31.828125 103.703125 30.84375Q102.828125 29.84375 101.53125 29.84375Q100.203125 29.84375 99.328125 30.84375Q98.46875 31.828125 98.46875 33.8125ZM108.734375 39.0L108.734375 30.0L107.1875 30.0L107.1875 28.625L108.734375 28.625L108.734375 27.53125Q108.734375 26.484375 108.921875 25.96875Q109.171875 25.28125 109.8125 24.859375Q110.453125 24.4375 111.609375 24.4375Q112.359375 24.4375 113.25 24.609375L112.984375 26.140625Q112.4375 26.046875 111.953125 26.046875Q111.15625 26.046875 110.8125 26.390625Q110.484375 26.734375 110.484375 27.671875L110.484375 28.625L112.515625 28.625L112.515625 30.0L110.484375 30.0L110.484375 39.0L108.734375 39.0ZM119.96875 32.03125Q119.96875 28.46875 121.875 26.453125Q123.796875 24.421875 126.828125 24.421875Q128.8125 24.421875 130.39062 25.375Q131.98438 26.328125 132.8125 28.03125Q133.65625 29.71875 133.65625 31.859375Q133.65625 34.03125 132.78125 35.75Q131.90625 37.46875 130.28125 38.359375Q128.67188 39.25 126.8125 39.25Q124.796875 39.25 123.203125 38.28125Q121.609375 37.296875 120.78125 35.609375Q119.96875 33.90625 119.96875 32.03125ZM121.921875 32.0625Q121.921875 34.640625 123.3125 36.140625Q124.703125 37.625 126.796875 37.625Q128.9375 37.625 130.3125 36.125Q131.70312 34.609375 131.70312 31.84375Q131.70312 30.109375 131.10938 28.8125Q130.53125 27.5 129.39062 26.78125Q128.25 26.0625 126.828125 26.0625Q124.828125 26.0625 123.375 27.453125Q121.921875 28.828125 121.921875 32.0625ZM136.29688 39.0L136.29688 28.625L137.875 28.625L137.875 30.203125Q138.48438 29.09375 139.0 28.75Q139.51562 28.390625 140.125 28.390625Q141.01562 28.390625 141.9375 28.953125L141.32812 30.59375Q140.6875 30.203125 140.04688 30.203125Q139.46875 30.203125 139.0 30.5625Q138.54688 30.90625 138.34375 31.515625Q138.0625 32.453125 138.0625 33.5625L138.0625 39.0L136.29688 39.0ZM143.32812 26.703125L143.32812 24.6875L145.09375 24.6875L145.09375 26.703125L143.32812 26.703125ZM143.32812 39.0L143.32812 28.625L145.09375 28.625L145.09375 39.0L143.32812 39.0ZM147.0 39.859375L148.70312 40.109375Q148.8125 40.90625 149.29688 41.265625Q149.95312 41.75 151.09375 41.75Q152.3125 41.75 152.96875 41.265625Q153.64062 40.78125 153.875 39.90625Q154.01562 39.359375 154.0 37.640625Q152.84375 39.0 151.125 39.0Q148.98438 39.0 147.8125 37.453125Q146.64062 35.90625 146.64062 33.75Q146.64062 32.265625 147.17188 31.015625Q147.71875 29.765625 148.73438 29.078125Q149.76562 28.390625 151.14062 28.390625Q152.96875 28.390625 154.17188 29.875L154.17188 28.625L155.78125 28.625L155.78125 37.59375Q155.78125 40.015625 155.28125 41.015625Q154.79688 42.03125 153.71875 42.609375Q152.65625 43.203125 151.09375 43.203125Q149.25 43.203125 148.09375 42.375Q146.95312 41.546875 147.0 39.859375ZM148.45312 33.625Q148.45312 35.671875 149.26562 36.609375Q150.07812 37.546875 151.29688 37.546875Q152.5 37.546875 153.3125 36.609375Q154.14062 35.671875 154.14062 33.6875Q154.14062 31.78125 153.29688 30.8125Q152.45312 29.84375 151.26562 29.84375Q150.09375 29.84375 149.26562 30.796875Q148.45312 31.75 148.45312 33.625ZM158.32812 26.703125L158.32812 24.6875L160.09375 24.6875L160.09375 26.703125L158.32812 26.703125ZM158.32812 39.0L158.32812 28.625L160.09375 28.625L160.09375 39.0L158.32812 39.0ZM162.3125 39.0L162.3125 28.625L163.90625 28.625L163.90625 30.109375Q165.04688 28.390625 167.20312 28.390625Q168.14062 28.390625 168.92188 28.734375Q169.71875 29.0625 170.10938 29.609375Q170.5 30.15625 170.65625 30.90625Q170.75 31.40625 170.75 32.625L170.75 39.0L168.98438 39.0L168.98438 32.6875Q168.98438 31.609375 168.78125 31.078125Q168.57812 30.546875 168.04688 30.234375Q167.53125 29.921875 166.82812 29.921875Q165.70312 29.921875 164.89062 30.640625Q164.07812 31.34375 164.07812 33.328125L164.07812 39.0L162.3125 39.0Z" fill-rule="nonzero"/></svg>