<svg version="1.1" viewBox="0.0 0.0 600.0 400.0" fill="none" stroke="none" stroke-linecap="square" stroke-miterlimit="10" width="600" height="400" xmlns:xlink="http://www.w3.org/1999/xlink" xmlns="http://www.w3.org/2000/svg"><path fill="#ffffff" d="M0 0L600.0 0L600.0 400.0L0 400.0L0 0Z" fill-rule="nonzero"/><path fill="#3c78d8" d="M300.0 57.333332C359.83942 57.333332 414.76343 90.45373 442.6885 143.37767C470.61362 196.30162 466.9521 260.3344 433.17615 309.73016L300.0 218.66667Z" fill-rule="nonzero"/><path fill="#ad8463" d="M433.17615 309.73016C389.85428 373.08636 307.89536 397.15167 237.19775 367.27463C166.50014 337.39755 126.6379 261.8502 141.88002 186.62741C157.12213 111.40461 223.2485 57.333332 300.0 57.333332L300.0 218.66667Z" fill-rule="nonzero"/><path fill="#20303a" d="M30.578125 285.69122L26.90625 285.69122L26.90625 285.26935Q27.109375 285.26935 27.421875 285.2381Q27.734375 285.19122 27.859375 285.12872Q28.03125 285.01935 28.109375 284.87872Q28.203125 284.7381 28.203125 284.51935L28.203125 278.47247L28.109375 278.47247L25.28125 285.5506L24.984375 285.5506L22.28125 278.33185L22.203125 278.33185L22.203125 283.28497Q22.203125 284.00372 22.296875 284.37872Q22.390625 284.75372 22.578125 284.9256Q22.703125 285.0506 23.109375 285.15997Q23.515625 285.26935 23.640625 285.26935L23.640625 285.69122L20.28125 285.69122L20.28125 285.26935Q20.546875 285.25372 20.828125 285.19122Q21.125 285.12872 21.28125 284.9881Q21.484375 284.83185 21.5625 284.4881Q21.640625 284.14435 21.640625 283.34747L21.640625 279.09747Q21.640625 278.72247 21.546875 278.4881Q21.46875 278.25372 21.296875 278.1131Q21.125 277.95685 20.859375 277.87872Q20.59375 277.8006 20.328125 277.78497L20.328125 277.37872L23.171875 277.37872L25.546875 283.6131L27.578125 278.39435Q27.6875 278.1131 27.765625 277.8006Q27.859375 277.4881 27.859375 277.37872L30.578125 277.37872L30.578125 277.78497Q30.40625 277.8006 30.140625 277.84747Q29.890625 277.89435 29.78125 277.9256Q29.578125 278.00372 29.5 278.1756Q29.4375 278.33185 29.4375 278.51935L29.4375 284.51935Q29.4375 284.72247 29.5 284.8631Q29.578125 285.00372 29.78125 285.1131Q29.890625 285.1756 30.15625 285.22247Q30.421875 285.26935 30.578125 285.26935L30.578125 285.69122ZM36.890625 285.58185Q36.625 285.69122 36.40625 285.75372Q36.203125 285.81622 35.9375 285.81622Q35.484375 285.81622 35.203125 285.59747Q34.9375 285.37872 34.859375 284.97247L34.828125 284.97247Q34.453125 285.39435 34.015625 285.6131Q33.578125 285.83185 32.953125 285.83185Q32.3125 285.83185 31.890625 285.44122Q31.46875 285.03497 31.46875 284.39435Q31.46875 284.06622 31.5625 283.8006Q31.65625 283.53497 31.84375 283.31622Q31.984375 283.14435 32.21875 283.01935Q32.46875 282.87872 32.6875 282.78497Q32.953125 282.69122 33.75 282.4256Q34.5625 282.14435 34.84375 282.00372L34.84375 281.4256Q34.84375 281.34747 34.8125 281.12872Q34.78125 280.90997 34.671875 280.72247Q34.546875 280.50372 34.328125 280.34747Q34.125 280.1756 33.734375 280.1756Q33.46875 280.1756 33.234375 280.26935Q33.0 280.3631 32.90625 280.45685Q32.90625 280.58185 32.953125 280.81622Q33.015625 281.03497 33.015625 281.22247Q33.015625 281.4256 32.828125 281.59747Q32.640625 281.76935 32.3125 281.76935Q32.03125 281.76935 31.890625 281.56622Q31.75 281.34747 31.75 281.09747Q31.75 280.83185 31.9375 280.58185Q32.125 280.33185 32.4375 280.14435Q32.703125 279.97247 33.078125 279.8631Q33.453125 279.75372 33.8125 279.75372Q34.296875 279.75372 34.65625 279.81622Q35.03125 279.87872 35.328125 280.1131Q35.625 280.31622 35.78125 280.69122Q35.9375 281.06622 35.9375 281.65997Q35.9375 282.4881 35.921875 283.14435Q35.90625 283.78497 35.90625 284.5506Q35.90625 284.78497 35.984375 284.9256Q36.0625 285.0506 36.234375 285.14435Q36.3125 285.19122 36.5 285.20685Q36.703125 285.20685 36.890625 285.20685L36.890625 285.58185ZM34.84375 282.4881Q34.359375 282.64435 33.984375 282.78497Q33.609375 282.9256 33.28125 283.12872Q32.984375 283.33185 32.8125 283.6131Q32.640625 283.87872 32.640625 284.25372Q32.640625 284.7381 32.890625 284.97247Q33.15625 285.19122 33.546875 285.19122Q33.96875 285.19122 34.28125 284.9881Q34.59375 284.78497 34.8125 284.51935L34.84375 282.4881ZM40.125 285.69122L37.3125 285.69122L37.3125 285.3006Q37.453125 285.28497 37.59375 285.28497Q37.75 285.26935 37.84375 285.2381Q38.015625 285.1756 38.09375 285.0506Q38.171875 284.90997 38.171875 284.70685L38.171875 278.01935Q38.171875 277.8006 38.078125 277.62872Q38.0 277.44122 37.84375 277.33185Q37.75 277.25372 37.46875 277.20685Q37.1875 277.14435 37.015625 277.12872L37.015625 276.75372L39.1875 276.6131L39.265625 276.70685L39.265625 284.62872Q39.265625 284.84747 39.34375 284.97247Q39.421875 285.09747 39.59375 285.1756Q39.71875 285.2381 39.84375 285.26935Q39.96875 285.28497 40.125 285.3006L40.125 285.69122ZM45.5625 284.33185Q45.1875 285.01935 44.578125 285.44122Q43.96875 285.84747 43.1875 285.84747Q42.484375 285.84747 41.953125 285.59747Q41.4375 285.34747 41.09375 284.9256Q40.75 284.50372 40.578125 283.94122Q40.421875 283.37872 40.421875 282.75372Q40.421875 282.19122 40.59375 281.65997Q40.78125 281.1131 41.125 280.6756Q41.453125 280.25372 41.953125 280.00372Q42.453125 279.75372 43.0625 279.75372Q43.703125 279.75372 44.140625 279.95685Q44.59375 280.14435 44.875 280.4881Q45.15625 280.81622 45.28125 281.26935Q45.421875 281.70685 45.421875 282.2381L45.421875 282.6131L41.59375 282.6131Q41.59375 283.19122 41.703125 283.65997Q41.8125 284.1131 42.046875 284.47247Q42.265625 284.8006 42.625 285.00372Q43.0 285.19122 43.515625 285.19122Q44.03125 285.19122 44.40625 284.95685Q44.796875 284.70685 45.140625 284.08185L45.5625 284.33185ZM44.265625 282.12872Q44.265625 281.8006 44.203125 281.4256Q44.15625 281.0506 44.03125 280.8006Q43.890625 280.53497 43.65625 280.3631Q43.421875 280.19122 43.046875 280.19122Q42.4375 280.19122 42.03125 280.70685Q41.625 281.20685 41.59375 282.12872L44.265625 282.12872Z" fill-rule="nonzero"/><path fill="#9e9e9e" d="M26.296875 299.9881Q26.296875 300.59747 26.078125 301.12872Q25.859375 301.65997 25.484375 302.03497Q25.0625 302.47247 24.546875 302.6756Q24.03125 302.87872 23.46875 302.87872Q22.8125 302.87872 22.28125 302.64435Q21.765625 302.39435 21.390625 301.95685Q21.015625 301.51935 20.8125 300.87872Q20.609375 300.22247 20.609375 299.4256Q20.609375 297.33185 21.84375 295.89435Q23.09375 294.45685 25.1875 294.1756L25.296875 294.69122L24.765625 294.78497Q23.5 295.20685 22.796875 296.08185Q22.109375 296.94122 21.90625 298.1756Q22.40625 297.7381 22.890625 297.5506Q23.390625 297.3631 23.9375 297.3631Q24.90625 297.3631 25.59375 298.1131Q26.296875 298.8631 26.296875 299.9881ZM25.03125 300.14435Q25.03125 299.19122 24.59375 298.62872Q24.15625 298.0506 23.421875 298.0506Q22.984375 298.0506 22.609375 298.22247Q22.234375 298.37872 21.875 298.76935Q21.875 298.83185 21.859375 299.09747Q21.84375 299.34747 21.84375 299.4881Q21.84375 300.8631 22.296875 301.64435Q22.75 302.40997 23.46875 302.40997Q24.171875 302.40997 24.59375 301.81622Q25.03125 301.20685 25.03125 300.14435ZM31.9375 299.94122Q32.328125 300.25372 32.578125 300.7381Q32.84375 301.20685 32.84375 301.9256Q32.84375 303.19122 31.96875 304.00372Q31.109375 304.83185 29.796875 304.83185Q28.765625 304.83185 28.046875 304.34747Q27.34375 303.8631 27.34375 303.20685Q27.34375 302.90997 27.484375 302.69122Q27.640625 302.47247 27.9375 302.47247Q28.296875 302.47247 28.484375 302.65997Q28.671875 302.83185 28.671875 303.0506Q28.671875 303.2381 28.59375 303.51935Q28.53125 303.8006 28.5 303.94122Q28.546875 303.9881 28.65625 304.0506Q28.765625 304.12872 28.90625 304.19122Q29.0625 304.25372 29.28125 304.3006Q29.5 304.34747 29.796875 304.34747Q30.171875 304.34747 30.5 304.19122Q30.828125 304.0506 31.0625 303.75372Q31.3125 303.4256 31.4375 303.00372Q31.5625 302.58185 31.5625 301.94122Q31.5625 301.1131 31.09375 300.56622Q30.640625 300.01935 29.890625 300.01935Q29.421875 300.01935 29.015625 300.20685Q28.609375 300.37872 28.296875 300.78497L27.890625 300.62872L28.390625 296.40997L32.59375 296.40997L32.59375 297.44122L28.875 297.44122L28.5625 299.9256Q28.828125 299.7381 29.25 299.56622Q29.6875 299.37872 30.203125 299.37872Q30.640625 299.37872 31.09375 299.51935Q31.546875 299.64435 31.9375 299.94122ZM35.515625 302.4881Q35.515625 302.90997 35.328125 303.28497Q35.140625 303.65997 34.890625 303.9256Q34.640625 304.20685 34.359375 304.4256Q34.078125 304.64435 33.84375 304.76935L33.5625 304.37872Q33.84375 304.19122 34.0625 304.01935Q34.296875 303.84747 34.4375 303.6756Q34.609375 303.47247 34.734375 303.22247Q34.859375 302.9881 34.890625 302.6756L34.59375 302.6756Q34.203125 302.6756 33.984375 302.47247Q33.765625 302.26935 33.765625 301.9256Q33.765625 301.6756 33.953125 301.44122Q34.15625 301.20685 34.5 301.20685Q35.015625 301.20685 35.265625 301.5506Q35.515625 301.89435 35.515625 302.4881ZM40.9375 299.94122Q41.328125 300.25372 41.578125 300.7381Q41.84375 301.20685 41.84375 301.9256Q41.84375 303.19122 40.96875 304.00372Q40.109375 304.83185 38.796875 304.83185Q37.765625 304.83185 37.046875 304.34747Q36.34375 303.8631 36.34375 303.20685Q36.34375 302.90997 36.484375 302.69122Q36.640625 302.47247 36.9375 302.47247Q37.296875 302.47247 37.484375 302.65997Q37.671875 302.83185 37.671875 303.0506Q37.671875 303.2381 37.59375 303.51935Q37.53125 303.8006 37.5 303.94122Q37.546875 303.9881 37.65625 304.0506Q37.765625 304.12872 37.90625 304.19122Q38.0625 304.25372 38.28125 304.3006Q38.5 304.34747 38.796875 304.34747Q39.171875 304.34747 39.5 304.19122Q39.828125 304.0506 40.0625 303.75372Q40.3125 303.4256 40.4375 303.00372Q40.5625 302.58185 40.5625 301.94122Q40.5625 301.1131 40.09375 300.56622Q39.640625 300.01935 38.890625 300.01935Q38.421875 300.01935 38.015625 300.20685Q37.609375 300.37872 37.296875 300.78497L36.890625 300.62872L37.390625 296.40997L41.59375 296.40997L41.59375 297.44122L37.875 297.44122L37.5625 299.9256Q37.828125 299.7381 38.25 299.56622Q38.6875 299.37872 39.203125 299.37872Q39.640625 299.37872 40.09375 299.51935Q40.546875 299.64435 40.9375 299.94122ZM46.625 296.34747Q46.625 297.37872 46.0625 297.95685Q45.5 298.51935 44.625 298.51935Q43.75 298.51935 43.1875 297.95685Q42.640625 297.37872 42.640625 296.34747Q42.640625 295.37872 43.171875 294.78497Q43.71875 294.1756 44.625 294.1756Q45.53125 294.1756 46.078125 294.78497Q46.625 295.37872 46.625 296.34747ZM45.625 296.34747Q45.625 295.58185 45.375 295.09747Q45.125 294.6131 44.625 294.6131Q44.125 294.6131 43.875 295.09747Q43.625 295.58185 43.625 296.34747Q43.625 297.12872 43.875 297.6131Q44.140625 298.08185 44.625 298.08185Q45.125 298.08185 45.375 297.6131Q45.625 297.12872 45.625 296.34747ZM51.171875 300.70685Q51.171875 301.7381 50.609375 302.31622Q50.0625 302.87872 49.171875 302.87872Q48.296875 302.87872 47.734375 302.31622Q47.1875 301.7381 47.1875 300.70685Q47.1875 299.7381 47.734375 299.14435Q48.28125 298.53497 49.1875 298.53497Q50.078125 298.53497 50.625 299.14435Q51.171875 299.7381 51.171875 300.70685ZM50.1875 300.70685Q50.1875 299.94122 49.921875 299.45685Q49.671875 298.97247 49.1875 298.97247Q48.6875 298.97247 48.4375 299.45685Q48.1875 299.94122 48.1875 300.70685Q48.1875 301.4881 48.4375 301.97247Q48.6875 302.44122 49.171875 302.44122Q49.671875 302.44122 49.921875 301.97247Q50.1875 301.4881 50.1875 300.70685ZM50.78125 294.34747L43.875 302.69122L43.0625 302.69122L49.953125 294.34747L50.78125 294.34747Z" fill-rule="nonzero"/><path stroke="#757575" stroke-width="1.0" stroke-linecap="butt" d="M20.0 290.19122L132.66667 290.19122L164.4459 290.19122" fill-rule="nonzero"/><path fill="#9e9e9e" d="M166.4459 290.19122C166.4459 289.08664 165.55048 288.19122 164.4459 288.19122C163.34134 288.19122 162.4459 289.08664 162.4459 290.19122C162.4459 291.29578 163.34134 292.19122 164.4459 292.19122C165.55048 292.19122 166.4459 291.29578 166.4459 290.19122" fill-rule="nonzero"/><path fill="#20303a" d="M548.03125 136.40775L547.59375 136.40775Q547.46875 135.939 547.0781 135.42337Q546.6875 134.89212 546.3281 134.82962Q546.1406 134.814 545.8906 134.79837Q545.6406 134.78275 545.3281 134.78275L543.9375 134.78275L543.9375 138.1265L544.8906 138.1265Q545.3281 138.1265 545.5625 138.04837Q545.8125 137.95462 545.96875 137.76712Q546.09375 137.6265 546.1875 137.36087Q546.28125 137.07962 546.3125 136.78275L546.7656 136.78275L546.7656 140.03275L546.3125 140.03275Q546.2969 139.78275 546.1875 139.45462Q546.09375 139.1265 545.96875 138.98587Q545.7969 138.76712 545.53125 138.689Q545.2656 138.61087 544.8906 138.61087L543.9375 138.61087L543.9375 141.47025Q543.9375 141.65775 544.0156 141.814Q544.09375 141.97025 544.28125 142.064Q544.375 142.09525 544.65625 142.15775Q544.9531 142.22025 545.1094 142.22025L545.1094 142.64212L541.5 142.64212L541.5 142.22025Q541.6875 142.22025 541.96875 142.189Q542.2656 142.15775 542.3594 142.1265Q542.53125 142.04837 542.6094 141.90775Q542.6875 141.7515 542.6875 141.53275L542.6875 135.53275Q542.6875 135.34525 542.625 135.20462Q542.5625 135.04837 542.3594 134.95462Q542.2031 134.8765 541.9219 134.814Q541.65625 134.7515 541.5 134.73587L541.5 134.32962L548.03125 134.32962L548.03125 136.40775ZM553.5625 141.28275Q553.1875 141.97025 552.5781 142.39212Q551.96875 142.79837 551.1875 142.79837Q550.4844 142.79837 549.9531 142.54837Q549.4375 142.29837 549.09375 141.8765Q548.75 141.45462 548.5781 140.89212Q548.4219 140.32962 548.4219 139.70462Q548.4219 139.14212 548.59375 138.61087Q548.78125 138.064 549.125 137.6265Q549.4531 137.20462 549.9531 136.95462Q550.4531 136.70462 551.0625 136.70462Q551.7031 136.70462 552.1406 136.90775Q552.59375 137.09525 552.875 137.439Q553.15625 137.76712 553.28125 138.22025Q553.4219 138.65775 553.4219 139.189L553.4219 139.564L549.59375 139.564Q549.59375 140.14212 549.7031 140.61087Q549.8125 141.064 550.0469 141.42337Q550.2656 141.7515 550.625 141.95462Q551.0 142.14212 551.5156 142.14212Q552.03125 142.14212 552.40625 141.90775Q552.7969 141.65775 553.1406 141.03275L553.5625 141.28275ZM552.2656 139.07962Q552.2656 138.7515 552.2031 138.3765Q552.15625 138.0015 552.03125 137.7515Q551.8906 137.48587 551.65625 137.314Q551.4219 137.14212 551.0469 137.14212Q550.4375 137.14212 550.03125 137.65775Q549.625 138.15775 549.59375 139.07962L552.2656 139.07962ZM564.3125 142.64212L561.5 142.64212L561.5 142.2515Q561.6406 142.23587 561.7656 142.23587Q561.90625 142.22025 562.0156 142.189Q562.1875 142.1265 562.2656 142.0015Q562.34375 141.86087 562.34375 141.65775L562.34375 138.67337Q562.34375 138.064 562.0625 137.73587Q561.78125 137.40775 561.3594 137.40775Q561.0781 137.40775 560.8281 137.5015Q560.5781 137.57962 560.3594 137.73587Q560.1875 137.86087 560.0781 138.01712Q559.96875 138.15775 559.90625 138.26712L559.90625 141.59525Q559.90625 141.79837 559.96875 141.939Q560.0469 142.064 560.21875 142.14212Q560.3594 142.189 560.4531 142.22025Q560.5625 142.23587 560.75 142.2515L560.75 142.64212L557.9844 142.64212L557.9844 142.2515Q558.125 142.23587 558.25 142.23587Q558.375 142.22025 558.4844 142.189Q558.6406 142.1265 558.71875 142.0015Q558.7969 141.86087 558.7969 141.65775L558.7969 138.67337Q558.7969 138.064 558.5156 137.73587Q558.25 137.40775 557.8281 137.40775Q557.5469 137.40775 557.28125 137.5015Q557.03125 137.57962 556.8281 137.73587Q556.65625 137.8765 556.53125 138.03275Q556.4219 138.189 556.3594 138.28275L556.3594 141.57962Q556.3594 141.78275 556.4375 141.92337Q556.53125 142.04837 556.6875 142.1265Q556.8125 142.189 556.9375 142.22025Q557.0781 142.23587 557.2344 142.2515L557.2344 142.64212L554.4219 142.64212L554.4219 142.2515Q554.5625 142.23587 554.7031 142.23587Q554.84375 142.22025 554.9531 142.189Q555.1094 142.1265 555.1875 142.0015Q555.2656 141.86087 555.2656 141.65775L555.2656 138.064Q555.2656 137.8765 555.1875 137.73587Q555.1094 137.57962 554.9531 137.47025Q554.84375 137.40775 554.6719 137.36087Q554.5156 137.314 554.3281 137.29837L554.3281 136.92337L556.2656 136.79837L556.34375 136.8765L556.34375 137.70462L556.3906 137.70462Q556.53125 137.54837 556.7344 137.36087Q556.9531 137.15775 557.1406 137.03275Q557.34375 136.89212 557.65625 136.79837Q557.96875 136.70462 558.3125 136.70462Q558.875 136.70462 559.28125 137.01712Q559.6875 137.314 559.8594 137.73587Q560.0781 137.53275 560.2344 137.3765Q560.40625 137.22025 560.65625 137.04837Q560.8906 136.89212 561.1875 136.79837Q561.4844 136.70462 561.8594 136.70462Q562.59375 136.70462 563.0156 137.189Q563.4531 137.67337 563.4531 138.65775L563.4531 141.59525Q563.4531 141.79837 563.5156 141.939Q563.59375 142.064 563.75 142.14212Q563.8906 142.189 564.0156 142.22025Q564.15625 142.23587 564.3125 142.2515L564.3125 142.64212ZM570.8906 142.53275Q570.625 142.64212 570.40625 142.70462Q570.2031 142.76712 569.9375 142.76712Q569.4844 142.76712 569.2031 142.54837Q568.9375 142.32962 568.8594 141.92337L568.8281 141.92337Q568.4531 142.34525 568.0156 142.564Q567.5781 142.78275 566.9531 142.78275Q566.3125 142.78275 565.8906 142.39212Q565.46875 141.98587 565.46875 141.34525Q565.46875 141.01712 565.5625 140.7515Q565.65625 140.48587 565.84375 140.26712Q565.9844 140.09525 566.21875 139.97025Q566.46875 139.82962 566.6875 139.73587Q566.9531 139.64212 567.75 139.3765Q568.5625 139.09525 568.84375 138.95462L568.84375 138.3765Q568.84375 138.29837 568.8125 138.07962Q568.78125 137.86087 568.6719 137.67337Q568.5469 137.45462 568.3281 137.29837Q568.125 137.1265 567.7344 137.1265Q567.46875 137.1265 567.2344 137.22025Q567.0 137.314 566.90625 137.40775Q566.90625 137.53275 566.9531 137.76712Q567.0156 137.98587 567.0156 138.17337Q567.0156 138.3765 566.8281 138.54837Q566.6406 138.72025 566.3125 138.72025Q566.03125 138.72025 565.8906 138.51712Q565.75 138.29837 565.75 138.04837Q565.75 137.78275 565.9375 137.53275Q566.125 137.28275 566.4375 137.09525Q566.7031 136.92337 567.0781 136.814Q567.4531 136.70462 567.8125 136.70462Q568.2969 136.70462 568.65625 136.76712Q569.03125 136.82962 569.3281 137.064Q569.625 137.26712 569.78125 137.64212Q569.9375 138.01712 569.9375 138.61087Q569.9375 139.439 569.9219 140.09525Q569.90625 140.73587 569.90625 141.5015Q569.90625 141.73587 569.9844 141.8765Q570.0625 142.0015 570.2344 142.09525Q570.3125 142.14212 570.5 142.15775Q570.7031 142.15775 570.8906 142.15775L570.8906 142.53275ZM568.84375 139.439Q568.3594 139.59525 567.9844 139.73587Q567.6094 139.8765 567.28125 140.07962Q566.9844 140.28275 566.8125 140.564Q566.6406 140.82962 566.6406 141.20462Q566.6406 141.689 566.8906 141.92337Q567.15625 142.14212 567.5469 142.14212Q567.96875 142.14212 568.28125 141.939Q568.59375 141.73587 568.8125 141.47025L568.84375 139.439ZM574.125 142.64212L571.3125 142.64212L571.3125 142.2515Q571.4531 142.23587 571.59375 142.23587Q571.75 142.22025 571.84375 142.189Q572.0156 142.1265 572.09375 142.0015Q572.1719 141.86087 572.1719 141.65775L572.1719 134.97025Q572.1719 134.7515 572.0781 134.57962Q572.0 134.39212 571.84375 134.28275Q571.75 134.20462 571.46875 134.15775Q571.1875 134.09525 571.0156 134.07962L571.0156 133.70462L573.1875 133.564L573.2656 133.65775L573.2656 141.57962Q573.2656 141.79837 573.34375 141.92337Q573.4219 142.04837 573.59375 142.1265Q573.71875 142.189 573.84375 142.22025Q573.96875 142.23587 574.125 142.2515L574.125 142.64212ZM579.5625 141.28275Q579.1875 141.97025 578.5781 142.39212Q577.96875 142.79837 577.1875 142.79837Q576.4844 142.79837 575.9531 142.54837Q575.4375 142.29837 575.09375 141.8765Q574.75 141.45462 574.5781 140.89212Q574.4219 140.32962 574.4219 139.70462Q574.4219 139.14212 574.59375 138.61087Q574.78125 138.064 575.125 137.6265Q575.4531 137.20462 575.9531 136.95462Q576.4531 136.70462 577.0625 136.70462Q577.7031 136.70462 578.1406 136.90775Q578.59375 137.09525 578.875 137.439Q579.15625 137.76712 579.28125 138.22025Q579.4219 138.65775 579.4219 139.189L579.4219 139.564L575.59375 139.564Q575.59375 140.14212 575.7031 140.61087Q575.8125 141.064 576.0469 141.42337Q576.2656 141.7515 576.625 141.95462Q577.0 142.14212 577.5156 142.14212Q578.03125 142.14212 578.40625 141.90775Q578.7969 141.65775 579.1406 141.03275L579.5625 141.28275ZM578.2656 139.07962Q578.2656 138.7515 578.2031 138.3765Q578.15625 138.0015 578.03125 137.7515Q577.8906 137.48587 577.65625 137.314Q577.4219 137.14212 577.0469 137.14212Q576.4375 137.14212 576.03125 137.65775Q575.625 138.15775 575.59375 139.07962L578.2656 139.07962Z" fill-rule="nonzero"/><path fill="#9e9e9e" d="M549.8594 161.78275Q549.2969 161.78275 548.84375 161.64212Q548.3906 161.5015 548.0625 161.26712Q547.7344 161.03275 547.5469 160.72025Q547.375 160.42337 547.375 160.11087Q547.375 159.814 547.5156 159.59525Q547.65625 159.36087 547.96875 159.36087Q548.3125 159.36087 548.5 159.53275Q548.6875 159.70462 548.6875 159.92337Q548.6875 160.11087 548.625 160.39212Q548.5625 160.689 548.53125 160.814Q548.5781 160.86087 548.6719 160.939Q548.78125 161.03275 548.9531 161.11087Q549.1406 161.189 549.34375 161.23587Q549.5469 161.29837 549.9219 161.29837Q550.2656 161.29837 550.59375 161.17337Q550.9219 161.064 551.1719 160.814Q551.4219 160.53275 551.5625 160.17337Q551.71875 159.814 551.71875 159.23587Q551.71875 158.90775 551.6406 158.61087Q551.5781 158.29837 551.3906 158.064Q551.21875 157.82962 550.90625 157.70462Q550.59375 157.57962 550.1094 157.57962L549.34375 157.57962L549.34375 156.90775L549.84375 156.90775Q550.65625 156.90775 551.0156 156.47025Q551.375 156.01712 551.375 155.1265Q551.375 154.39212 551.03125 154.01712Q550.6875 153.64212 550.0469 153.64212Q549.75 153.64212 549.5469 153.72025Q549.34375 153.79837 549.2344 153.86087Q549.0781 153.939 548.9844 154.04837Q548.8906 154.14212 548.84375 154.189Q548.8906 154.3765 548.9375 154.65775Q549.0 154.92337 549.0 155.17337Q549.0 155.39212 548.8125 155.564Q548.6406 155.73587 548.28125 155.73587Q547.96875 155.73587 547.8281 155.51712Q547.6875 155.28275 547.6875 155.0015Q547.6875 154.689 547.84375 154.3765Q548.0156 154.064 548.3594 153.78275Q548.6875 153.5015 549.1719 153.34525Q549.65625 153.17337 550.28125 153.17337Q551.0 153.17337 551.46875 153.39212Q551.9375 153.59525 552.2031 153.89212Q552.46875 154.20462 552.5625 154.53275Q552.6719 154.86087 552.6719 155.09525Q552.6719 155.3765 552.59375 155.67337Q552.5156 155.97025 552.3281 156.22025Q552.1094 156.5015 551.7656 156.73587Q551.4375 156.95462 550.9375 157.09525L550.9375 157.189Q551.2656 157.22025 551.625 157.34525Q552.0 157.45462 552.2969 157.67337Q552.6094 157.92337 552.8125 158.29837Q553.0156 158.67337 553.0156 159.2515Q553.0156 160.3765 552.1094 161.07962Q551.2031 161.78275 549.8594 161.78275ZM560.3594 159.11087L559.15625 159.11087L559.15625 161.78275L558.03125 161.78275L558.03125 159.11087L554.28125 159.11087L554.28125 158.20462L558.3906 153.20462L559.15625 153.20462L559.15625 158.34525L560.3594 158.34525L560.3594 159.11087ZM558.03125 158.34525L558.03125 154.5015L554.875 158.34525L558.03125 158.34525ZM563.5156 159.439Q563.5156 159.86087 563.3281 160.23587Q563.1406 160.61087 562.8906 160.8765Q562.6406 161.15775 562.3594 161.3765Q562.0781 161.59525 561.84375 161.72025L561.5625 161.32962Q561.84375 161.14212 562.0625 160.97025Q562.2969 160.79837 562.4375 160.6265Q562.6094 160.42337 562.7344 160.17337Q562.8594 159.939 562.8906 159.6265L562.59375 159.6265Q562.2031 159.6265 561.9844 159.42337Q561.7656 159.22025 561.7656 158.8765Q561.7656 158.6265 561.9531 158.39212Q562.15625 158.15775 562.5 158.15775Q563.0156 158.15775 563.2656 158.5015Q563.5156 158.84525 563.5156 159.439ZM568.9375 156.89212Q569.3281 157.20462 569.5781 157.689Q569.84375 158.15775 569.84375 158.8765Q569.84375 160.14212 568.96875 160.95462Q568.1094 161.78275 566.7969 161.78275Q565.7656 161.78275 565.0469 161.29837Q564.34375 160.814 564.34375 160.15775Q564.34375 159.86087 564.4844 159.64212Q564.6406 159.42337 564.9375 159.42337Q565.2969 159.42337 565.4844 159.61087Q565.6719 159.78275 565.6719 160.0015Q565.6719 160.189 565.59375 160.47025Q565.53125 160.7515 565.5 160.89212Q565.5469 160.939 565.65625 161.0015Q565.7656 161.07962 565.90625 161.14212Q566.0625 161.20462 566.28125 161.2515Q566.5 161.29837 566.7969 161.29837Q567.1719 161.29837 567.5 161.14212Q567.8281 161.0015 568.0625 160.70462Q568.3125 160.3765 568.4375 159.95462Q568.5625 159.53275 568.5625 158.89212Q568.5625 158.064 568.09375 157.51712Q567.6406 156.97025 566.8906 156.97025Q566.4219 156.97025 566.0156 157.15775Q565.6094 157.32962 565.2969 157.73587L564.8906 157.57962L565.3906 153.36087L569.59375 153.36087L569.59375 154.39212L565.875 154.39212L565.5625 156.8765Q565.8281 156.689 566.25 156.51712Q566.6875 156.32962 567.2031 156.32962Q567.6406 156.32962 568.09375 156.47025Q568.5469 156.59525 568.9375 156.89212ZM574.625 153.29837Q574.625 154.32962 574.0625 154.90775Q573.5 155.47025 572.625 155.47025Q571.75 155.47025 571.1875 154.90775Q570.6406 154.32962 570.6406 153.29837Q570.6406 152.32962 571.1719 151.73587Q571.71875 151.1265 572.625 151.1265Q573.53125 151.1265 574.0781 151.73587Q574.625 152.32962 574.625 153.29837ZM573.625 153.29837Q573.625 152.53275 573.375 152.04837Q573.125 151.564 572.625 151.564Q572.125 151.564 571.875 152.04837Q571.625 152.53275 571.625 153.29837Q571.625 154.07962 571.875 154.564Q572.1406 155.03275 572.625 155.03275Q573.125 155.03275 573.375 154.564Q573.625 154.07962 573.625 153.29837ZM579.1719 157.65775Q579.1719 158.689 578.6094 159.26712Q578.0625 159.82962 577.1719 159.82962Q576.2969 159.82962 575.7344 159.26712Q575.1875 158.689 575.1875 157.65775Q575.1875 156.689 575.7344 156.09525Q576.28125 155.48587 577.1875 155.48587Q578.0781 155.48587 578.625 156.09525Q579.1719 156.689 579.1719 157.65775ZM578.1875 157.65775Q578.1875 156.89212 577.9219 156.40775Q577.6719 155.92337 577.1875 155.92337Q576.6875 155.92337 576.4375 156.40775Q576.1875 156.89212 576.1875 157.65775Q576.1875 158.439 576.4375 158.92337Q576.6875 159.39212 577.1719 159.39212Q577.6719 159.39212 577.9219 158.92337Q578.1875 158.439 578.1875 157.65775ZM578.78125 151.29837L571.875 159.64212L571.0625 159.64212L577.9531 151.29837L578.78125 151.29837Z" fill-rule="nonzero"/><path stroke="#757575" stroke-width="1.0" stroke-linecap="butt" d="M580.0 147.14212L467.33334 147.14212L435.55408 147.14212" fill-rule="nonzero"/><path fill="#9e9e9e" d="M437.55408 147.14212C437.55408 146.03755 436.65866 145.14212 435.55408 145.14212C434.44952 145.14212 433.55408 146.03755 433.55408 147.14212C433.55408 148.24669 434.44952 149.14212 435.55408 149.14212C436.65866 149.14212 437.55408 148.24669 437.55408 147.14212" fill-rule="nonzero"/><path fill="#798389" d="M34.359375 33.46875Q34.125 33.484375 33.734375 33.5625Q33.34375 33.625 33.09375 33.734375Q32.796875 33.875 32.671875 34.15625Q32.5625 34.421875 32.5625 34.78125L32.5625 35.859375Q32.5625 37.03125 32.578125 37.4375Q32.59375 37.84375 32.609375 38.109375Q31.3125 38.703125 30.015625 39.015625Q28.734375 39.328125 27.484375 39.328125Q26.15625 39.328125 24.921875 38.828125Q23.703125 38.328125 22.78125 37.40625Q21.859375 36.484375 21.3125 35.15625Q20.765625 33.828125 20.765625 32.1875Q20.765625 30.59375 21.28125 29.25Q21.8125 27.890625 22.765625 26.90625Q23.6875 25.921875 24.96875 25.390625Q26.265625 24.84375 27.71875 24.84375Q28.890625 24.84375 29.765625 25.125Q30.640625 25.40625 31.296875 25.8125L31.703125 25.140625L32.484375 25.140625L32.5625 29.984375L31.765625 29.984375Q31.5625 29.1875 31.25 28.40625Q30.953125 27.625 30.484375 27.015625Q30.0 26.40625 29.3125 26.046875Q28.625 25.671875 27.671875 25.671875Q26.625 25.671875 25.796875 26.09375Q24.984375 26.515625 24.375 27.359375Q23.78125 28.171875 23.453125 29.390625Q23.140625 30.59375 23.140625 32.078125Q23.140625 33.40625 23.453125 34.578125Q23.765625 35.734375 24.375 36.59375Q24.984375 37.453125 25.890625 37.953125Q26.796875 38.453125 27.953125 38.453125Q28.8125 38.453125 29.515625 38.1875Q30.21875 37.921875 30.515625 37.625Q30.59375 37.125 30.59375 36.609375Q30.609375 36.09375 30.609375 35.734375L30.609375 34.96875Q30.609375 34.5625 30.484375 34.25Q30.375 33.921875 30.03125 33.78125Q29.703125 33.625 29.15625 33.5625Q28.609375 33.484375 28.296875 33.46875L28.296875 32.75L34.359375 32.75L34.359375 33.46875ZM44.265625 36.734375Q43.65625 37.890625 42.640625 38.578125Q41.625 39.25 40.296875 39.25Q39.140625 39.25 38.265625 38.84375Q37.390625 38.4375 36.828125 37.734375Q36.265625 37.03125 35.984375 36.09375Q35.703125 35.15625 35.703125 34.109375Q35.703125 33.171875 36.0 32.265625Q36.296875 31.359375 36.875 30.640625Q37.4375 29.953125 38.25 29.53125Q39.078125 29.09375 40.109375 29.09375Q41.15625 29.09375 41.90625 29.4375Q42.671875 29.765625 43.140625 30.34375Q43.578125 30.890625 43.796875 31.640625Q44.03125 32.375 44.03125 33.234375L44.03125 33.875L37.640625 33.875Q37.640625 34.828125 37.828125 35.609375Q38.015625 36.375 38.40625 36.953125Q38.78125 37.53125 39.390625 37.859375Q40.015625 38.171875 40.859375 38.171875Q41.734375 38.171875 42.359375 37.78125Q42.984375 37.375 43.578125 36.3125L44.265625 36.734375ZM42.09375 33.0625Q42.09375 32.515625 42.0 31.890625Q41.921875 31.265625 41.703125 30.84375Q41.484375 30.390625 41.09375 30.109375Q40.703125 29.828125 40.09375 29.828125Q39.0625 29.828125 38.375 30.6875Q37.703125 31.53125 37.640625 33.0625L42.09375 33.0625ZM56.34375 39.0L51.625 39.0L51.625 38.359375Q51.84375 38.328125 52.109375 38.3125Q52.390625 38.296875 52.5625 38.234375Q52.828125 38.15625 52.953125 37.9375Q53.09375 37.703125 53.09375 37.359375L53.09375 32.40625Q53.09375 31.375 52.609375 30.828125Q52.125 30.265625 51.4375 30.265625Q50.921875 30.265625 50.484375 30.4375Q50.0625 30.59375 49.734375 30.828125Q49.40625 31.046875 49.21875 31.3125Q49.03125 31.5625 48.9375 31.71875L48.9375 37.265625Q48.9375 37.59375 49.0625 37.8125Q49.203125 38.015625 49.484375 38.140625Q49.6875 38.234375 49.921875 38.28125Q50.171875 38.328125 50.421875 38.359375L50.421875 39.0L45.703125 39.0L45.703125 38.359375Q45.921875 38.328125 46.15625 38.3125Q46.40625 38.296875 46.578125 38.234375Q46.859375 38.15625 46.984375 37.9375Q47.125 37.703125 47.125 37.359375L47.125 31.40625Q47.125 31.078125 46.984375 30.796875Q46.84375 30.515625 46.578125 30.34375Q46.390625 30.234375 46.140625 30.1875Q45.890625 30.125 45.59375 30.109375L45.59375 29.46875L48.796875 29.25L48.9375 29.390625L48.9375 30.75L48.984375 30.75Q49.21875 30.515625 49.5625 30.1875Q49.921875 29.859375 50.234375 29.65625Q50.59375 29.421875 51.09375 29.265625Q51.59375 29.109375 52.21875 29.109375Q53.609375 29.109375 54.265625 29.96875Q54.9375 30.828125 54.9375 32.265625L54.9375 37.28125Q54.9375 37.625 55.046875 37.84375Q55.171875 38.046875 55.453125 38.15625Q55.6875 38.25 55.859375 38.296875Q56.03125 38.328125 56.34375 38.359375L56.34375 39.0ZM68.25 38.828125L64.890625 39.046875L64.75 38.90625L64.75 38.0L64.671875 37.984375Q64.15625 38.546875 63.40625 38.921875Q62.671875 39.28125 61.875 39.28125Q61.046875 39.28125 60.28125 38.921875Q59.515625 38.546875 58.953125 37.875Q58.375 37.203125 58.03125 36.265625Q57.703125 35.3125 57.703125 34.171875Q57.703125 33.125 58.0625 32.1875Q58.421875 31.25 59.0625 30.546875Q59.65625 29.890625 60.515625 29.5Q61.390625 29.109375 62.28125 29.109375Q62.953125 29.109375 63.59375 29.28125Q64.25 29.453125 64.71875 29.71875L64.71875 26.359375Q64.71875 25.953125 64.578125 25.625Q64.453125 25.28125 64.203125 25.109375Q63.9375 24.921875 63.46875 24.84375Q63.0 24.75 62.46875 24.71875L62.46875 24.109375L66.40625 23.875L66.546875 24.03125L66.546875 37.015625Q66.546875 37.359375 66.671875 37.609375Q66.8125 37.84375 67.0625 38.0Q67.25 38.125 67.59375 38.15625Q67.953125 38.171875 68.25 38.1875L68.25 38.828125ZM64.71875 37.140625L64.71875 31.5Q64.640625 31.25 64.46875 30.953125Q64.296875 30.65625 64.03125 30.421875Q63.75 30.171875 63.359375 30.015625Q62.984375 29.84375 62.484375 29.84375Q61.890625 29.84375 61.390625 30.15625Q60.90625 30.453125 60.53125 31.015625Q60.171875 31.5625 59.953125 32.40625Q59.75 33.25 59.75 34.28125Q59.75 35.109375 59.90625 35.78125Q60.0625 36.4375 60.421875 37.015625Q60.765625 37.5625 61.296875 37.90625Q61.828125 38.234375 62.5625 38.234375Q63.34375 38.234375 63.859375 37.890625Q64.375 37.546875 64.71875 37.140625ZM77.265625 36.734375Q76.65625 37.890625 75.640625 38.578125Q74.625 39.25 73.296875 39.25Q72.140625 39.25 71.265625 38.84375Q70.390625 38.4375 69.828125 37.734375Q69.265625 37.03125 68.984375 36.09375Q68.703125 35.15625 68.703125 34.109375Q68.703125 33.171875 69.0 32.265625Q69.296875 31.359375 69.875 30.640625Q70.4375 29.953125 71.25 29.53125Q72.078125 29.09375 73.109375 29.09375Q74.15625 29.09375 74.90625 29.4375Q75.671875 29.765625 76.140625 30.34375Q76.578125 30.890625 76.796875 31.640625Q77.03125 32.375 77.03125 33.234375L77.03125 33.875L70.640625 33.875Q70.640625 34.828125 70.828125 35.609375Q71.015625 36.375 71.40625 36.953125Q71.78125 37.53125 72.390625 37.859375Q73.015625 38.171875 73.859375 38.171875Q74.734375 38.171875 75.359375 37.78125Q75.984375 37.375 76.578125 36.3125L77.265625 36.734375ZM75.09375 33.0625Q75.09375 32.515625 75.0 31.890625Q74.921875 31.265625 74.703125 30.84375Q74.484375 30.390625 74.09375 30.109375Q73.703125 29.828125 73.09375 29.828125Q72.0625 29.828125 71.375 30.6875Q70.703125 31.53125 70.640625 33.0625L75.09375 33.0625ZM86.078125 30.609375Q86.078125 31.109375 85.828125 31.5Q85.59375 31.875 85.078125 31.875Q84.53125 31.875 84.234375 31.59375Q83.953125 31.3125 83.953125 30.96875Q83.953125 30.75 83.984375 30.578125Q84.03125 30.40625 84.0625 30.234375Q83.59375 30.234375 82.96875 30.609375Q82.359375 30.96875 81.9375 31.65625L81.9375 37.265625Q81.9375 37.609375 82.0625 37.828125Q82.203125 38.03125 82.484375 38.140625Q82.734375 38.234375 83.109375 38.28125Q83.5 38.328125 83.78125 38.359375L83.78125 39.0L78.703125 39.0L78.703125 38.359375Q78.921875 38.328125 79.15625 38.3125Q79.40625 38.296875 79.578125 38.234375Q79.859375 38.15625 79.984375 37.9375Q80.125 37.703125 80.125 37.359375L80.125 31.40625Q80.125 31.109375 79.984375 30.8125Q79.84375 30.515625 79.578125 30.34375Q79.390625 30.234375 79.140625 30.1875Q78.890625 30.125 78.59375 30.109375L78.59375 29.46875L81.796875 29.25L81.9375 29.390625L81.9375 30.75L81.984375 30.75Q82.59375 29.953125 83.328125 29.546875Q84.078125 29.140625 84.6875 29.140625Q85.3125 29.140625 85.6875 29.546875Q86.078125 29.9375 86.078125 30.609375ZM105.234375 32.15625Q105.234375 33.921875 104.5625 35.21875Q103.90625 36.515625 102.84375 37.34375Q101.765625 38.171875 100.421875 38.59375Q99.09375 39.0 97.65625 39.0L91.921875 39.0L91.921875 38.3125Q92.203125 38.3125 92.65625 38.265625Q93.109375 38.203125 93.25 38.125Q93.546875 38.0 93.671875 37.75Q93.8125 37.5 93.8125 37.15625L93.8125 27.15625Q93.8125 26.828125 93.703125 26.5625Q93.59375 26.296875 93.25 26.140625Q92.953125 25.984375 92.59375 25.921875Q92.25 25.859375 92.0 25.828125L92.0 25.140625L98.046875 25.140625Q99.296875 25.140625 100.5 25.53125Q101.71875 25.90625 102.625 26.5625Q103.84375 27.4375 104.53125 28.84375Q105.234375 30.25 105.234375 32.15625ZM102.84375 32.140625Q102.84375 30.75 102.46875 29.625Q102.09375 28.484375 101.375 27.65625Q100.703125 26.84375 99.71875 26.390625Q98.75 25.9375 97.546875 25.9375Q97.140625 25.9375 96.640625 25.953125Q96.140625 25.96875 95.890625 25.96875L95.890625 36.625Q95.890625 37.515625 96.40625 37.859375Q96.921875 38.203125 98.0 38.203125Q99.25 38.203125 100.171875 37.765625Q101.09375 37.3125 101.671875 36.53125Q102.28125 35.71875 102.5625 34.640625Q102.84375 33.5625 102.84375 32.140625ZM111.375 39.0L106.71875 39.0L106.71875 38.359375Q106.953125 38.328125 107.1875 38.3125Q107.421875 38.296875 107.609375 38.234375Q107.875 38.15625 108.0 37.9375Q108.140625 37.703125 108.140625 37.359375L108.140625 31.40625Q108.140625 31.09375 108.0 30.84375Q107.859375 30.578125 107.609375 30.40625Q107.421875 30.28125 107.0625 30.203125Q106.71875 30.125 106.421875 30.109375L106.421875 29.46875L109.8125 29.25L109.953125 29.390625L109.953125 37.234375Q109.953125 37.578125 110.078125 37.8125Q110.21875 38.03125 110.5 38.140625Q110.71875 38.234375 110.921875 38.28125Q111.125 38.328125 111.375 38.359375L111.375 39.0ZM110.15625 25.453125Q110.15625 26.015625 109.78125 26.4375Q109.421875 26.84375 108.875 26.84375Q108.390625 26.84375 108.015625 26.453125Q107.65625 26.046875 107.65625 25.546875Q107.65625 25.0 108.015625 24.609375Q108.390625 24.203125 108.875 24.203125Q109.4375 24.203125 109.796875 24.578125Q110.15625 24.953125 110.15625 25.453125ZM119.0625 34.28125Q119.46875 34.640625 119.671875 35.09375Q119.890625 35.546875 119.890625 36.21875Q119.890625 37.546875 118.890625 38.40625Q117.890625 39.25 116.296875 39.25Q115.453125 39.25 114.75 38.953125Q114.046875 38.640625 113.734375 38.390625L113.546875 39.03125L112.8125 39.03125L112.71875 35.671875L113.390625 35.671875Q113.46875 36.0625 113.71875 36.578125Q113.96875 37.078125 114.328125 37.484375Q114.71875 37.921875 115.25 38.21875Q115.78125 38.5 116.4375 38.5Q117.375 38.5 117.875 38.078125Q118.390625 37.65625 118.390625 36.859375Q118.390625 36.453125 118.234375 36.15625Q118.078125 35.859375 117.765625 35.625Q117.4375 35.40625 116.96875 35.234375Q116.5 35.046875 115.921875 34.875Q115.46875 34.734375 114.90625 34.5Q114.34375 34.25 113.9375 33.9375Q113.515625 33.59375 113.234375 33.09375Q112.96875 32.59375 112.96875 31.921875Q112.96875 30.734375 113.84375 29.921875Q114.71875 29.09375 116.203125 29.09375Q116.765625 29.09375 117.359375 29.25Q117.953125 29.390625 118.3125 29.59375L118.546875 29.09375L119.25 29.09375L119.390625 32.1875L118.71875 32.1875Q118.515625 31.140625 117.828125 30.5Q117.15625 29.84375 116.1875 29.84375Q115.375 29.84375 114.921875 30.25Q114.46875 30.65625 114.46875 31.21875Q114.46875 31.65625 114.609375 31.953125Q114.765625 32.234375 115.0625 32.453125Q115.359375 32.640625 115.796875 32.8125Q116.25 32.984375 116.90625 33.203125Q117.546875 33.40625 118.109375 33.6875Q118.6875 33.953125 119.0625 34.28125ZM127.65625 38.578125Q127.015625 38.84375 126.453125 39.015625Q125.890625 39.203125 125.0625 39.203125Q123.859375 39.203125 123.359375 38.59375Q122.859375 37.984375 122.859375 36.875L122.859375 30.34375L121.125 30.34375L121.125 29.40625L122.90625 29.40625L122.90625 26.40625L124.6875 26.40625L124.6875 29.40625L127.453125 29.40625L127.453125 30.34375L124.703125 30.34375L124.703125 35.734375Q124.703125 36.328125 124.75 36.734375Q124.796875 37.140625 124.953125 37.453125Q125.109375 37.734375 125.421875 37.875Q125.734375 38.015625 126.265625 38.015625Q126.515625 38.015625 126.984375 37.984375Q127.453125 37.9375 127.65625 37.859375L127.65625 38.578125ZM136.07812 30.609375Q136.07812 31.109375 135.82812 31.5Q135.59375 31.875 135.07812 31.875Q134.53125 31.875 134.23438 31.59375Q133.95312 31.3125 133.95312 30.96875Q133.95312 30.75 133.98438 30.578125Q134.03125 30.40625 134.0625 30.234375Q133.59375 30.234375 132.96875 30.609375Q132.35938 30.96875 131.9375 31.65625L131.9375 37.265625Q131.9375 37.609375 132.0625 37.828125Q132.20312 38.03125 132.48438 38.140625Q132.73438 38.234375 133.10938 38.28125Q133.5 38.328125 133.78125 38.359375L133.78125 39.0L128.70312 39.0L128.70312 38.359375Q128.92188 38.328125 129.15625 38.3125Q129.40625 38.296875 129.57812 38.234375Q129.85938 38.15625 129.98438 37.9375Q130.125 37.703125 130.125 37.359375L130.125 31.40625Q130.125 31.109375 129.98438 30.8125Q129.84375 30.515625 129.57812 30.34375Q129.39062 30.234375 129.14062 30.1875Q128.89062 30.125 128.59375 30.109375L128.59375 29.46875L131.79688 29.25L131.9375 29.390625L131.9375 30.75L131.98438 30.75Q132.59375 29.953125 133.32812 29.546875Q134.07812 29.140625 134.6875 29.140625Q135.3125 29.140625 135.6875 29.546875Q136.07812 29.9375 136.07812 30.609375ZM141.375 39.0L136.71875 39.0L136.71875 38.359375Q136.95312 38.328125 137.1875 38.3125Q137.42188 38.296875 137.60938 38.234375Q137.875 38.15625 138.0 37.9375Q138.14062 37.703125 138.14062 37.359375L138.14062 31.40625Q138.14062 31.09375 138.0 30.84375Q137.85938 30.578125 137.60938 30.40625Q137.42188 30.28125 137.0625 30.203125Q136.71875 30.125 136.42188 30.109375L136.42188 29.46875L139.8125 29.25L139.95312 29.390625L139.95312 37.234375Q139.95312 37.578125 140.07812 37.8125Q140.21875 38.03125 140.5 38.140625Q140.71875 38.234375 140.92188 38.28125Q141.125 38.328125 141.375 38.359375L141.375 39.0ZM140.15625 25.453125Q140.15625 26.015625 139.78125 26.4375Q139.42188 26.84375 138.875 26.84375Q138.39062 26.84375 138.01562 26.453125Q137.65625 26.046875 137.65625 25.546875Q137.65625 25.0 138.01562 24.609375Q138.39062 24.203125 138.875 24.203125Q139.4375 24.203125 139.79688 24.578125Q140.15625 24.953125 140.15625 25.453125ZM152.48438 34.171875Q152.48438 36.34375 151.10938 37.828125Q149.75 39.296875 147.9375 39.296875Q147.14062 39.296875 146.375 39.046875Q145.60938 38.796875 144.9375 38.390625L144.21875 39.515625L143.60938 39.375Q143.65625 38.65625 143.67188 37.640625Q143.70312 36.625 143.70312 35.671875L143.70312 26.140625Q143.70312 25.8125 143.54688 25.484375Q143.39062 25.15625 143.15625 25.0Q142.98438 24.875 142.54688 24.8125Q142.10938 24.75 141.84375 24.734375L141.84375 24.109375L145.375 23.875L145.51562 24.03125L145.51562 30.375L145.57812 30.390625Q146.1875 29.75 146.90625 29.4375Q147.625 29.109375 148.3125 29.109375Q150.09375 29.109375 151.28125 30.515625Q152.48438 31.921875 152.48438 34.171875ZM150.4375 34.25Q150.4375 33.515625 150.28125 32.765625Q150.125 32.015625 149.79688 31.453125Q149.46875 30.890625 148.92188 30.546875Q148.39062 30.1875 147.64062 30.1875Q146.95312 30.1875 146.4375 30.46875Q145.92188 30.734375 145.51562 31.1875L145.51562 36.796875Q145.57812 37.03125 145.75 37.34375Q145.92188 37.65625 146.20312 37.9375Q146.5 38.203125 146.875 38.375Q147.25 38.546875 147.78125 38.546875Q148.96875 38.546875 149.70312 37.40625Q150.4375 36.25 150.4375 34.25ZM164.03125 38.828125L160.89062 39.046875L160.75 38.90625L160.75 37.6875L160.6875 37.6875Q160.45312 37.921875 160.15625 38.203125Q159.85938 38.484375 159.48438 38.703125Q159.04688 38.96875 158.625 39.109375Q158.21875 39.25 157.46875 39.25Q156.1875 39.25 155.51562 38.421875Q154.85938 37.578125 154.85938 35.984375L154.85938 31.375Q154.85938 31.015625 154.71875 30.78125Q154.59375 30.546875 154.34375 30.359375Q154.15625 30.25 153.89062 30.203125Q153.64062 30.140625 153.34375 30.125L153.34375 29.484375L156.5625 29.25L156.70312 29.390625L156.70312 36.078125Q156.70312 37.125 157.17188 37.65625Q157.64062 38.171875 158.29688 38.171875Q158.82812 38.171875 159.25 38.015625Q159.67188 37.84375 159.95312 37.625Q160.21875 37.421875 160.42188 37.1875Q160.625 36.953125 160.71875 36.765625L160.71875 31.296875Q160.71875 30.984375 160.57812 30.734375Q160.45312 30.484375 160.20312 30.3125Q160.03125 30.1875 159.6875 30.171875Q159.34375 30.140625 158.90625 30.125L158.90625 29.484375L162.40625 29.25L162.54688 29.390625L162.54688 37.03125Q162.54688 37.375 162.6875 37.609375Q162.82812 37.84375 163.0625 38.0Q163.25 38.109375 163.48438 38.140625Q163.73438 38.171875 164.03125 38.1875L164.03125 38.828125ZM171.65625 38.578125Q171.01562 38.84375 170.45312 39.015625Q169.89062 39.203125 169.0625 39.203125Q167.85938 39.203125 167.35938 38.59375Q166.85938 37.984375 166.85938 36.875L166.85938 30.34375L165.125 30.34375L165.125 29.40625L166.90625 29.40625L166.90625 26.40625L168.6875 26.40625L168.6875 29.40625L171.45312 29.40625L171.45312 30.34375L168.70312 30.34375L168.70312 35.734375Q168.70312 36.328125 168.75 36.734375Q168.79688 37.140625 168.95312 37.453125Q169.10938 37.734375 169.42188 37.875Q169.73438 38.015625 170.26562 38.015625Q170.51562 38.015625 170.98438 37.984375Q171.45312 37.9375 171.65625 37.859375L171.65625 38.578125ZM177.375 39.0L172.71875 39.0L172.71875 38.359375Q172.95312 38.328125 173.1875 38.3125Q173.42188 38.296875 173.60938 38.234375Q173.875 38.15625 174.0 37.9375Q174.14062 37.703125 174.14062 37.359375L174.14062 31.40625Q174.14062 31.09375 174.0 30.84375Q173.85938 30.578125 173.60938 30.40625Q173.42188 30.28125 173.0625 30.203125Q172.71875 30.125 172.42188 30.109375L172.42188 29.46875L175.8125 29.25L175.95312 29.390625L175.95312 37.234375Q175.95312 37.578125 176.07812 37.8125Q176.21875 38.03125 176.5 38.140625Q176.71875 38.234375 176.92188 38.28125Q177.125 38.328125 177.375 38.359375L177.375 39.0ZM176.15625 25.453125Q176.15625 26.015625 175.78125 26.4375Q175.42188 26.84375 174.875 26.84375Q174.39062 26.84375 174.01562 26.453125Q173.65625 26.046875 173.65625 25.546875Q173.65625 25.0 174.01562 24.609375Q174.39062 24.203125 174.875 24.203125Q175.4375 24.203125 175.79688 24.578125Q176.15625 24.953125 176.15625 25.453125ZM188.09375 34.09375Q188.09375 35.109375 187.76562 36.09375Q187.4375 37.0625 186.84375 37.75Q186.17188 38.53125 185.28125 38.921875Q184.39062 39.296875 183.29688 39.296875Q182.375 39.296875 181.54688 38.953125Q180.71875 38.59375 180.07812 37.9375Q179.4375 37.28125 179.0625 36.34375Q178.6875 35.390625 178.6875 34.21875Q178.6875 31.96875 180.0 30.53125Q181.3125 29.09375 183.4375 29.09375Q185.46875 29.09375 186.78125 30.46875Q188.09375 31.828125 188.09375 34.09375ZM186.0625 34.109375Q186.0625 33.375 185.92188 32.5625Q185.78125 31.75 185.48438 31.171875Q185.17188 30.578125 184.65625 30.21875Q184.15625 29.84375 183.42188 29.84375Q182.67188 29.84375 182.14062 30.21875Q181.60938 30.578125 181.26562 31.21875Q180.95312 31.828125 180.82812 32.59375Q180.70312 33.34375 180.70312 34.0625Q180.70312 35.0 180.85938 35.796875Q181.01562 36.59375 181.34375 37.21875Q181.67188 37.84375 182.17188 38.203125Q182.67188 38.546875 183.42188 38.546875Q184.64062 38.546875 185.34375 37.375Q186.0625 36.1875 186.0625 34.109375ZM200.34375 39.0L195.625 39.0L195.625 38.359375Q195.84375 38.328125 196.10938 38.3125Q196.39062 38.296875 196.5625 38.234375Q196.82812 38.15625 196.95312 37.9375Q197.09375 37.703125 197.09375 37.359375L197.09375 32.40625Q197.09375 31.375 196.60938 30.828125Q196.125 30.265625 195.4375 30.265625Q194.92188 30.265625 194.48438 30.4375Q194.0625 30.59375 193.73438 30.828125Q193.40625 31.046875 193.21875 31.3125Q193.03125 31.5625 192.9375 31.71875L192.9375 37.265625Q192.9375 37.59375 193.0625 37.8125Q193.20312 38.015625 193.48438 38.140625Q193.6875 38.234375 193.92188 38.28125Q194.17188 38.328125 194.42188 38.359375L194.42188 39.0L189.70312 39.0L189.70312 38.359375Q189.92188 38.328125 190.15625 38.3125Q190.40625 38.296875 190.57812 38.234375Q190.85938 38.15625 190.98438 37.9375Q191.125 37.703125 191.125 37.359375L191.125 31.40625Q191.125 31.078125 190.98438 30.796875Q190.84375 30.515625 190.57812 30.34375Q190.39062 30.234375 190.14062 30.1875Q189.89062 30.125 189.59375 30.109375L189.59375 29.46875L192.79688 29.25L192.9375 29.390625L192.9375 30.75L192.98438 30.75Q193.21875 30.515625 193.5625 30.1875Q193.92188 29.859375 194.23438 29.65625Q194.59375 29.421875 195.09375 29.265625Q195.59375 29.109375 196.21875 29.109375Q197.60938 29.109375 198.26562 29.96875Q198.9375 30.828125 198.9375 32.265625L198.9375 37.28125Q198.9375 37.625 199.04688 37.84375Q199.17188 38.046875 199.45312 38.15625Q199.6875 38.25 199.85938 38.296875Q200.03125 38.328125 200.34375 38.359375L200.34375 39.0Z" fill-rule="nonzero"/></svg>